<svg width="50" height="78" viewBox="0 0 50 78" fill="none" xmlns="http://www.w3.org/2000/svg">
<g id="Group">
<path id="Vector" d="M49.9819 24.449C50.4841 38.4507 40.4036 69.7309 26.6054 70.2384C12.8085 70.7474 0.518369 40.293 0.0168165 26.2906C-0.484736 12.2889 10.2945 0.526065 24.092 0.0170662C37.8889 -0.491933 49.4803 10.4473 49.9819 24.449Z" fill="#0AB764"/>
<path id="Vector_2" d="M28.7016 70.1624C28.7434 71.3373 27.8399 72.3249 26.6822 72.3681C25.523 72.4112 24.5506 71.4914 24.5088 70.3179C24.4663 69.143 25.3711 68.154 26.5282 68.1123C27.6866 68.0698 28.6584 68.9867 28.7016 70.1624Z" fill="#0AB764"/>
<path id="Vector_3" d="M22.7954 77.262C23.6292 77.7548 25.1443 78.0559 26.8817 77.9916C28.6211 77.9273 30.1104 77.5158 30.9066 76.963C30.0714 76.4688 28.3968 71.6284 26.6567 71.692C24.9193 71.7564 23.5916 76.7071 22.7954 77.262Z" fill="#0AB764"/>
<path id="Vector_4" opacity="0.5" d="M45.626 11.0449C45.4344 26.8656 41.2931 54.7213 15.8818 64.7245C19.206 68.2175 22.8499 70.3773 26.6053 70.2387C40.4036 69.7304 50.4841 38.451 49.9818 24.4493C49.8028 19.466 48.2139 14.8737 45.626 11.0449Z" fill="#0AB764"/>
<path id="Vector_5" opacity="0.2" d="M17.1189 5.41004C13.9431 4.27822 8.99094 10.2293 6.05895 18.7013C3.12696 27.174 3.32411 34.9596 6.5013 36.0928C9.6778 37.2246 14.6285 31.2743 17.5612 22.8008C20.4925 14.3281 20.2947 6.54186 17.1189 5.41004Z" fill="white"/>
<path id="Vector_6" opacity="0.2" d="M31.3104 9.31781C31.401 11.8331 29.4658 13.9455 26.9866 14.0367C24.5095 14.1286 22.4267 12.1633 22.3375 9.64866C22.247 7.13335 24.1835 5.02101 26.6613 4.92981C29.1391 4.83861 31.2213 6.8025 31.3104 9.31781Z" fill="white"/>
<path id="Vector_7" d="M35.948 27.7181C35.9751 28.4766 35.3907 29.115 34.6425 29.1433C33.8951 29.1709 33.2653 28.577 33.2382 27.8185C33.2117 27.0592 33.7955 26.4209 34.5443 26.394C35.2924 26.3664 35.9208 26.9588 35.948 27.7181Z" fill="#0AB764"/>
<path id="Vector_8" opacity="0.5" d="M29.2292 74.3086C27.7845 75.0085 25.9036 75.6398 23.6724 75.7833C23.3339 76.5093 23.0399 77.0911 22.7954 77.2608C23.6292 77.7535 25.1443 78.0547 26.8817 77.9903C28.6211 77.926 30.1104 77.5146 30.9066 76.9617C30.5103 76.7277 29.923 75.5132 29.2292 74.3086Z" fill="#0AB764"/>
</g>
</svg>
