<svg width="72" height="111" viewBox="0 0 72 111" fill="none" xmlns="http://www.w3.org/2000/svg">
<g id="Group">
<path id="Vector" d="M71.7511 34.5841C72.4721 54.3901 58.0011 98.6371 38.1931 99.3551C18.3871 100.075 0.744141 56.9961 0.0241408 37.1891C-0.695859 17.3831 14.7781 0.744141 34.5851 0.0241408C54.3911 -0.695859 71.0311 14.7781 71.7511 34.5841Z" fill="#FF842E"/>
<path id="Vector_2" d="M41.2032 99.2472C41.2632 100.909 39.9662 102.306 38.3042 102.367C36.6402 102.428 35.2442 101.127 35.1842 99.4672C35.1232 97.8052 36.4222 96.4062 38.0832 96.3472C39.7462 96.2872 41.1412 97.5842 41.2032 99.2472Z" fill="#FF842E"/>
<path id="Vector_3" d="M32.7241 109.29C33.9211 109.987 36.0961 110.413 38.5901 110.322C41.0871 110.231 43.2251 109.649 44.3681 108.867C43.1691 108.168 40.7651 101.321 38.2671 101.411C35.7731 101.502 33.8671 108.505 32.7241 109.29Z" fill="#FF842E"/>
<path id="Vector_4" opacity="0.5" d="M65.4983 15.624C65.2233 38.003 59.2783 77.406 22.7993 91.556C27.5713 96.497 32.8023 99.552 38.1933 99.356C58.0013 98.637 72.4723 54.391 71.7513 34.585C71.4943 27.536 69.2133 21.04 65.4983 15.624Z" fill="#FF842E"/>
<path id="Vector_5" opacity="0.2" d="M24.575 7.65331C20.016 6.05231 12.907 14.4703 8.69802 26.4543C4.48902 38.4393 4.77203 49.4523 9.33303 51.0553C13.893 52.6563 21 44.2393 25.21 32.2533C29.418 20.2683 29.134 9.25431 24.575 7.65331Z" fill="white"/>
<path id="Vector_6" opacity="0.2" d="M44.9469 13.1801C45.0769 16.7381 42.2989 19.7261 38.7399 19.8551C35.1839 19.9851 32.1939 17.2051 32.0659 13.6481C31.9359 10.0901 34.7159 7.10207 38.2729 6.97307C41.8299 6.84407 44.8189 9.62207 44.9469 13.1801Z" fill="white"/>
<path id="Vector_7" d="M51.6051 39.2083C51.6441 40.2813 50.8051 41.1843 49.7311 41.2243C48.6581 41.2633 47.7541 40.4233 47.7151 39.3503C47.6771 38.2763 48.5151 37.3733 49.5901 37.3353C50.6641 37.2963 51.5661 38.1343 51.6051 39.2083Z" fill="#FF842E"/>
<path id="Vector_8" opacity="0.5" d="M41.9601 105.113C39.8861 106.103 37.1861 106.996 33.9831 107.199C33.4971 108.226 33.0751 109.049 32.7241 109.289C33.9211 109.986 36.0961 110.412 38.5901 110.321C41.0871 110.23 43.2251 109.648 44.3681 108.866C43.7991 108.535 42.9561 106.817 41.9601 105.113Z" fill="#FF842E"/>
</g>
</svg>
