<svg width="84" height="61" viewBox="0 0 84 61" fill="none" xmlns="http://www.w3.org/2000/svg">
<path d="M56.5 41C56.5 41 46.4999 59 29 59C11.5 59 1.5 41 1.5 41C1.5 41 11.5 23 29 23C36.9142 23 43.2945 26.6813 47.9095 30.7143M20.75 41C20.75 45.2606 24.4435 48.7143 29 48.7143C33.5565 48.7143 37.25 45.2606 37.25 41C37.25 36.7394 33.5565 33.2857 29 33.2857" stroke="#A5B6CF" stroke-width="3" stroke-linecap="round" stroke-linejoin="round"/>
<path d="M58.7525 22.1326L57.7689 23.1158C57.6377 23.2469 57.4869 23.3125 57.3164 23.3125C57.1459 23.3125 56.9951 23.2469 56.8639 23.1158L47.6967 13.9523C47.5656 13.8212 47.5 13.6704 47.5 13.5C47.5 13.3296 47.5656 13.1788 47.6967 13.0477L56.8639 3.88416C56.9951 3.75307 57.1459 3.68752 57.3164 3.68752C57.4869 3.68752 57.6377 3.75307 57.7689 3.88416L58.7525 4.86738C58.8836 4.99847 58.9492 5.14923 58.9492 5.31966C58.9492 5.49008 58.8836 5.64084 58.7525 5.77194L51.0213 13.5L58.7525 21.2281C58.8836 21.3592 58.9492 21.5099 58.9492 21.6803C58.9492 21.8508 58.8836 22.0015 58.7525 22.1326ZM70.3787 1.15083L63.041 26.5374C62.9885 26.7078 62.8869 26.8357 62.7361 26.9209C62.5852 27.0061 62.4311 27.0225 62.2738 26.97L61.0541 26.6357C60.8836 26.5833 60.7557 26.4817 60.6705 26.3309C60.5852 26.1802 60.5689 26.0196 60.6213 25.8492L67.959 0.462579C68.0115 0.292155 68.1131 0.164337 68.2639 0.0791253C68.4148 -0.00608657 68.5689 -0.0224735 68.7262 0.0299646L69.9459 0.364257C70.1164 0.416696 70.2443 0.518294 70.3295 0.669054C70.4148 0.819813 70.4311 0.980405 70.3787 1.15083ZM83.3033 13.9523L74.1361 23.1158C74.0049 23.2469 73.8541 23.3125 73.6836 23.3125C73.5131 23.3125 73.3623 23.2469 73.2311 23.1158L72.2475 22.1326C72.1164 22.0015 72.0508 21.8508 72.0508 21.6803C72.0508 21.5099 72.1164 21.3592 72.2475 21.2281L79.9787 13.5L72.2475 5.77194C72.1164 5.64084 72.0508 5.49008 72.0508 5.31966C72.0508 5.14923 72.1164 4.99847 72.2475 4.86738L73.2311 3.88416C73.3623 3.75307 73.5131 3.68752 73.6836 3.68752C73.8541 3.68752 74.0049 3.75307 74.1361 3.88416L83.3033 13.0477C83.4344 13.1788 83.5 13.3296 83.5 13.5C83.5 13.6704 83.4344 13.8212 83.3033 13.9523Z" fill="#0A84FF"/>
</svg>
