<svg width="173" height="151" viewBox="0 0 173 151" fill="none" xmlns="http://www.w3.org/2000/svg">
<path opacity="0.08" d="M172.382 131.906C172.382 134.082 157.207 135.847 138.488 135.847C119.768 135.847 104.593 134.082 104.593 131.906C104.593 129.73 119.768 127.965 138.488 127.965C157.207 127.965 172.382 129.729 172.382 131.906Z" fill="#3D3D6B"/>
<path d="M136.3 131.65C153.812 131.65 168.008 117.454 168.008 99.9425C168.008 82.4311 153.812 68.2354 136.3 68.2354C118.789 68.2354 104.593 82.4311 104.593 99.9425C104.593 117.454 118.789 131.65 136.3 131.65Z" fill="url(#paint0_linear_2252_3269)"/>
<path d="M136.301 123.522C149.323 123.522 159.88 112.965 159.88 99.9426C159.88 86.9198 149.323 76.3628 136.301 76.3628C123.278 76.3628 112.721 86.9198 112.721 99.9426C112.721 112.965 123.278 123.522 136.301 123.522Z" fill="white"/>
<path d="M136.3 115.889C145.107 115.889 152.246 108.749 152.246 99.9427C152.246 91.136 145.107 83.9968 136.3 83.9968C127.494 83.9968 120.354 91.136 120.354 99.9427C120.354 108.749 127.494 115.889 136.3 115.889Z" fill="url(#paint1_linear_2252_3269)"/>
<path d="M141.871 105.513C138.795 108.59 133.806 108.59 130.73 105.513C127.653 102.436 127.653 97.4482 130.73 94.3715C133.806 91.2948 138.795 91.2948 141.871 94.3715C144.948 97.4482 144.948 102.436 141.871 105.513Z" fill="white"/>
<path d="M171.042 126.656L162.183 117.797L155.054 118.697L163.913 127.556L171.042 126.656Z" fill="url(#paint2_linear_2252_3269)"/>
<path d="M155.054 118.697L163.914 127.556L163.014 134.685L154.155 125.826L155.054 118.697Z" fill="url(#paint3_linear_2252_3269)"/>
<path d="M136.3 99.9426L167.028 130.671" stroke="#0B1C23" stroke-width="4" stroke-miterlimit="10" stroke-linecap="round" stroke-linejoin="round"/>
<path d="M82.358 74.1325L81.02 64.1997C99.5822 61.6992 110.153 44.8218 112.95 39.7087C116.794 32.6813 117.79 27.1203 117.56 24.9358C112.344 25.2313 104.552 33.332 100.646 39.1443L92.328 33.5538C93.7474 31.4423 106.593 12.9728 120.072 15.0745C123.754 15.6452 127.664 18.7823 127.593 25.875C127.445 40.7595 110.158 70.3882 82.358 74.1325Z" fill="url(#paint4_linear_2252_3269)"/>
<path d="M45.2365 74.1326C17.4364 70.3883 0.149767 40.7604 0.000950021 25.8758C-0.0699487 18.7832 3.84001 15.6461 7.52183 15.0754C21.0221 12.9681 33.847 31.4417 35.2657 33.5547L26.9502 39.1494C23.0283 33.3406 15.228 25.242 10.0342 24.938C9.80323 27.1232 10.7993 32.6835 14.6433 39.7102C17.4406 44.8234 28.0116 61.7008 46.5737 64.2012L45.2365 74.1326Z" fill="url(#paint5_linear_2252_3269)"/>
<path d="M68.8083 75.3933H58.7856V131.353H68.8083V75.3933Z" fill="url(#paint6_linear_2252_3269)"/>
<path d="M73.6507 117.989H53.9437C52.0133 117.989 50.4338 119.568 50.4338 121.499V132.019C50.4338 133.949 52.0133 135.528 53.9437 135.528H73.6507C75.5811 135.528 77.1606 133.949 77.1606 132.019V121.499C77.1606 119.568 75.5811 117.989 73.6507 117.989Z" fill="url(#paint7_linear_2252_3269)"/>
<path d="M83.6734 150.145H43.921C41.9906 150.145 40.4111 148.566 40.4111 146.635V130.269C40.4111 128.338 41.9906 126.759 43.921 126.759H83.6734C85.6038 126.759 87.1833 128.338 87.1833 130.269V146.635C87.1833 148.566 85.6038 150.145 83.6734 150.145Z" fill="url(#paint8_linear_2252_3269)"/>
<path d="M58.7856 75.3933V100.246C60.3868 100.646 62.054 100.868 63.797 100.868C65.54 100.868 67.2064 100.646 68.8083 100.246V75.3933H58.7856Z" fill="#C98C1F"/>
<path d="M23.2893 12.3347C23.2893 12.3347 29.9713 91.6796 63.7971 91.6796C97.6228 91.6796 104.305 12.3347 104.305 12.3347H23.2893Z" fill="url(#paint9_linear_2252_3269)"/>
<path d="M77.1093 125.426H50.4338V126.759H77.1093V125.426Z" fill="#C98C1F"/>
<path d="M85.1003 15.498L86.9156 20.4027L91.8196 22.2173L86.9156 24.0326L85.1003 28.9365L83.2858 24.0326L78.3811 22.2173L83.2858 20.4027L85.1003 15.498Z" fill="#FFFDDE"/>
<path d="M95.4877 0.144531L98.6957 8.81383L107.364 12.0218L98.6957 15.2298L95.4877 23.8991L92.2797 15.2298L83.6104 12.0218L92.2797 8.81383L95.4877 0.144531Z" fill="#FFFDDE"/>
<path d="M53.0432 29.5109C59.8333 29.5109 61.351 26.2355 62.7093 22.4807H68.6206V78.3995H59.8334V35.7409H53.0432V29.5109Z" fill="white"/>
<defs>
<linearGradient id="paint0_linear_2252_3269" x1="113.88" y1="77.5222" x2="158.72" y2="122.363" gradientUnits="userSpaceOnUse">
<stop stop-color="#FE911A"/>
<stop offset="1" stop-color="#FECF00"/>
</linearGradient>
<linearGradient id="paint1_linear_2252_3269" x1="125.025" y1="88.6673" x2="147.576" y2="111.218" gradientUnits="userSpaceOnUse">
<stop stop-color="#FECF00"/>
<stop offset="1" stop-color="#FE911A"/>
</linearGradient>
<linearGradient id="paint2_linear_2252_3269" x1="157.061" y1="116.69" x2="169.035" y2="128.663" gradientUnits="userSpaceOnUse">
<stop stop-color="#2C5871"/>
<stop offset="1"/>
</linearGradient>
<linearGradient id="paint3_linear_2252_3269" x1="153.047" y1="120.704" x2="165.021" y2="132.678" gradientUnits="userSpaceOnUse">
<stop/>
<stop offset="1" stop-color="#2C5871"/>
</linearGradient>
<linearGradient id="paint4_linear_2252_3269" x1="81.0202" y1="44.5204" x2="127.594" y2="44.5204" gradientUnits="userSpaceOnUse">
<stop stop-color="#FECF00"/>
<stop offset="1" stop-color="#FE911A"/>
</linearGradient>
<linearGradient id="paint5_linear_2252_3269" x1="0.000388444" y1="44.5201" x2="46.5741" y2="44.5201" gradientUnits="userSpaceOnUse">
<stop stop-color="#FECF00"/>
<stop offset="1" stop-color="#FE911A"/>
</linearGradient>
<linearGradient id="paint6_linear_2252_3269" x1="58.7856" y1="103.373" x2="68.8082" y2="103.373" gradientUnits="userSpaceOnUse">
<stop stop-color="#FECF00"/>
<stop offset="1" stop-color="#FE911A"/>
</linearGradient>
<linearGradient id="paint7_linear_2252_3269" x1="50.4338" y1="126.759" x2="77.1605" y2="126.759" gradientUnits="userSpaceOnUse">
<stop stop-color="#FECF00"/>
<stop offset="1" stop-color="#FE911A"/>
</linearGradient>
<linearGradient id="paint8_linear_2252_3269" x1="40.4112" y1="138.452" x2="87.183" y2="138.452" gradientUnits="userSpaceOnUse">
<stop stop-color="#FECF00"/>
<stop offset="1" stop-color="#FE911A"/>
</linearGradient>
<linearGradient id="paint9_linear_2252_3269" x1="23.2892" y1="52.0075" x2="104.305" y2="52.0075" gradientUnits="userSpaceOnUse">
<stop stop-color="#FECF00"/>
<stop offset="1" stop-color="#FE911A"/>
</linearGradient>
</defs>
</svg>
