<svg width="204" height="164" viewBox="0 0 204 164" fill="none" xmlns="http://www.w3.org/2000/svg">
<path d="M48.763 163.383L48.8433 163.381C49.4994 163.369 50.0062 162.833 49.9445 162.216L45.5669 118.521L41.7471 118.862L48.0329 162.792C48.0819 163.135 48.396 163.389 48.763 163.383Z" fill="#8CB4F4"/>
<path d="M6.61114 163.383L6.53083 163.381C5.8747 163.369 5.36789 162.833 5.42966 162.216L9.80728 118.521L13.6272 118.862L7.34128 162.792C7.29221 163.135 6.9782 163.389 6.61114 163.383Z" fill="#8CB4F4"/>
<path d="M79.6464 163.383L79.7267 163.381C80.3828 163.369 80.8896 162.833 80.8278 162.216L76.4502 118.521L72.6304 118.862L78.9162 162.792C78.9654 163.135 79.2794 163.389 79.6464 163.383Z" fill="#8CB4F4"/>
<path d="M7.91477 112.165L0.144249 73.8122C-0.853176 68.6196 3.45194 63.8714 9.04193 63.9991L24.0278 64.3411C29.1976 64.4592 33.6926 67.9173 35.1293 72.8821L46.4979 112.165H7.91477Z" fill="#8CB4F4"/>
<path d="M12.6158 112.165L4.84542 73.8122C3.848 68.6196 8.15311 63.8714 13.7431 63.9991L28.729 64.3411C33.8987 64.4592 38.3936 67.9173 39.8305 72.8821L51.1991 112.165H12.6158Z" fill="#8CB4F4"/>
<path d="M10.0805 119.159H69.371C70.5621 119.159 71.5368 118.185 71.5368 116.995V114.329C71.5368 113.139 70.5622 112.165 69.371 112.165H7.91479V116.995C7.91479 118.185 8.88938 119.159 10.0805 119.159Z" fill="#8CB4F4"/>
<path d="M37.9039 119.159H75.7002C76.6597 119.159 77.4449 118.375 77.4449 117.416V113.908C77.4449 112.949 76.6599 112.165 75.7002 112.165H37.9039C36.9443 112.165 36.1592 112.949 36.1592 113.908V117.416C36.1592 118.375 36.9442 119.159 37.9039 119.159Z" fill="#8CB4F4"/>
<path d="M59.5658 104.138C56.3582 109.718 52.3239 111.872 52.3239 111.872H35.54C35.54 111.872 62.0128 99.8817 59.5658 104.138Z" fill="#233862"/>
<path d="M80.2667 159.571C80.0852 161.331 82.5347 161.786 85.3752 161.958C88.216 162.13 87.3507 162.702 91.2382 163.449C95.1255 164.196 96.6979 163.147 96.9854 162.624C97.2415 162.161 95.4385 161.411 93.5176 160.566C93.2757 160.46 93.0337 160.351 92.7916 160.242C90.6298 159.265 89.432 157.305 87.758 155.482C86.1723 153.755 84.7081 148.264 84.7081 148.264L79.4272 147.078C79.4272 147.078 80.8605 152.021 81.3539 154.129C81.644 155.37 81.1815 156.748 80.7727 157.797C80.5524 158.367 80.3299 158.951 80.2667 159.571Z" fill="#FFB27D"/>
<path d="M85.375 161.958C88.2158 162.13 87.3505 162.703 91.238 163.449C95.1254 164.196 96.6977 163.148 96.9852 162.625C97.2413 162.161 95.4383 161.411 93.5174 160.566L93.4868 160.598C93.4868 160.598 90.7382 161.498 87.5863 160.606C85.0172 159.879 82.5425 158.313 80.7727 157.797C80.5523 158.367 80.3297 158.951 80.2666 159.571C80.0851 161.331 82.5345 161.786 85.375 161.958Z" fill="#0F2549"/>
<path d="M72.2657 98.4228C69.4242 96.4285 50.6276 92.8733 41.0352 91.8451L30.4329 82.6465C30.4329 82.6465 21.4084 96.006 21.3368 106.226C21.3035 110.992 23.4996 111.465 23.5001 111.466C23.5001 111.466 57.488 111.718 58.9779 111.872C61.4165 112.123 64.6332 118.195 65.4372 123.725C66.241 129.255 80.4138 151.748 80.4138 151.748C80.4138 151.748 83.3695 152.695 84.7364 152.615C86.2064 152.528 86.8869 152.036 86.8869 152.036C86.8869 152.036 78.6741 102.92 72.2657 98.4228Z" fill="#233862"/>
<path d="M71.4753 159.571C71.2939 161.331 73.7432 161.786 76.5838 161.958C79.4246 162.13 78.5593 162.702 82.4466 163.449C86.334 164.196 87.9063 163.147 88.1939 162.624C88.45 162.161 86.647 161.411 84.7259 160.566C84.4842 160.46 84.2422 160.351 84.0001 160.242C81.8383 159.265 80.6405 157.305 78.9665 155.482C77.3808 153.755 75.9166 148.264 75.9166 148.264L70.6357 147.078C70.6357 147.078 72.0691 152.021 72.5625 154.129C72.8526 155.37 72.3901 156.748 71.9813 157.797C71.761 158.367 71.5385 158.951 71.4753 159.571Z" fill="#FFB27D"/>
<path d="M76.5838 161.958C79.4245 162.13 78.5593 162.703 82.4465 163.449C86.334 164.196 87.9063 163.148 88.1939 162.625C88.45 162.161 86.647 161.411 84.7259 160.566L84.6955 160.598C84.6955 160.598 81.9468 161.498 78.795 160.606C76.2258 159.879 73.7511 158.313 71.9813 157.797C71.7609 158.367 71.5385 158.951 71.4753 159.571C71.2938 161.331 73.7431 161.786 76.5838 161.958Z" fill="#233862"/>
<path d="M63.3969 98.4228C60.9282 96.6903 53.5035 95.3472 45.3075 94.3502C43.0414 94.0747 41.181 92.4279 40.6275 90.2144L21.564 82.6465C21.564 82.6465 12.5395 96.006 12.4679 106.226C12.4346 110.992 14.6307 111.465 14.6312 111.466C14.6312 111.466 48.6191 111.718 50.109 111.872C52.5476 112.123 55.7643 118.195 56.5683 123.725C57.3721 129.255 71.545 151.748 71.545 151.748C71.545 151.748 74.5006 152.695 75.8675 152.615C77.3375 152.528 78.018 152.036 78.018 152.036C78.018 152.036 69.8051 102.92 63.3969 98.4228Z" fill="#2B478B"/>
<path d="M37.8873 27.1404C35.2676 25.7655 31.2816 25.5795 30.634 25.4925C22.8848 24.4516 18.2208 35.7059 17.9464 39.1161C17.4408 45.4018 14.1139 46.3601 9.43102 50.2965C0.0414414 58.1896 2.79488 67.3616 7.92922 70.7694C11.0097 72.8142 16.4396 70.7691 16.4396 70.7691C16.5164 70.8228 31.2894 62.515 38.5716 58.5076C49.4887 56.9566 44.563 30.644 37.8873 27.1404Z" fill="#233862"/>
<path d="M36.2711 54.636C36.305 54.6534 32.8278 56.2341 30.3176 55.4052C27.9563 54.6275 25.8764 51.0743 25.9098 51.069C26.9348 50.9205 27.9766 49.9101 28.2674 43.9219L28.7213 44.036L36.3524 45.9638C36.3524 45.9638 36.0505 48.38 35.9261 50.6645C35.8208 52.5827 35.8422 54.4083 36.2711 54.636Z" fill="#FFB27D"/>
<path d="M36.3525 45.9641C36.3525 45.9641 36.3525 46.4613 36.0673 48.7092C31.7515 47.6212 29.8483 46.1908 28.5063 44.5537L36.3525 45.9641Z" fill="#ED975D"/>
<path d="M37.9804 46.2681C37.9804 46.2681 27.8891 47.9103 26.9628 41.6136C26.0363 35.3169 24.1099 31.2882 30.5137 29.9735C36.9175 28.6588 38.5258 30.877 39.3464 32.9037C40.1671 34.9302 40.5815 45.6787 37.9804 46.2681Z" fill="#FFB27D"/>
<path d="M37.9901 29.7095C37.9901 29.7095 33.4074 36.9395 29.3165 38.6518C25.2255 40.3642 23.2156 39.4948 23.2156 39.4948C23.2156 39.4948 25.0767 36.6744 25.5616 32.8873C25.7045 31.771 26.4322 30.8139 27.4776 30.3955C30.4133 29.2203 36.0921 27.3673 37.9901 29.7095Z" fill="#233862"/>
<path d="M33.9646 30.4084C33.9646 30.4084 36.6507 31.7847 37.7569 33.0746C38.8243 34.3194 40.0572 37.697 39.9692 39.2138C39.9692 39.2138 41.2942 31.9445 38.5343 29.4457C35.608 26.7961 33.9646 30.4084 33.9646 30.4084Z" fill="#233862"/>
<path d="M44.3443 70.0188C44.038 90.52 44.2602 86.2359 42.0165 88.1813C41.4757 88.6496 39.9559 88.9287 37.9554 89.0608C31.6658 89.4781 20.6093 88.4424 20.1887 87.2807C18.738 83.2609 19.7622 82.012 18.5517 75.8578C18.4255 75.2034 18.2694 74.4948 18.0862 73.7234C17.077 69.4964 16.0947 68.0584 19.6752 61.2678C22.9221 55.1166 26.7405 50.1195 27.0438 50.2996C35.6103 55.3821 35.9036 51.1218 35.9036 51.1218C35.9036 51.1218 44.4945 60.0189 44.3443 70.0188Z" fill="white"/>
<path d="M35.9036 51.1221C35.9036 51.1221 44.6709 52.6074 45.706 56.4007C46.7411 60.1938 52.8322 82.493 52.8322 82.493C52.8322 82.493 48.3512 83.2975 46.281 81.2285C44.2109 79.1594 39.0779 62.0329 39.0779 62.0329L35.9036 51.1221Z" fill="white"/>
<path d="M37.9555 89.0612C31.6659 89.4785 20.6093 88.4428 20.1888 87.2811C18.738 83.2612 19.7623 82.0124 18.5518 75.8581L21.5854 67.3203C21.5854 67.3203 21.0838 76.8278 23.8893 79.3285C26.6917 81.8292 35.3753 84.1558 36.739 86.2453C37.3968 87.248 37.8293 88.2536 37.9555 89.0612Z" fill="#EBF3FF"/>
<path d="M30.749 85.0622C30.749 85.0622 36.9542 83.6812 37.9555 84.2317C38.9568 84.7821 41.4038 86.7865 41.7101 87.4839C42.0165 88.1814 39.4811 86.9544 38.6564 86.7334C38.1223 86.5902 36.7164 87.0786 36.0206 87.3104C33.0919 88.2861 31.2974 87.7841 31.2974 87.7841L30.749 85.0622Z" fill="#FFB27D"/>
<path d="M27.0438 50.2998C27.0438 50.2998 18.2615 50.8128 15.3772 54.8335C11.317 60.4933 3.26263 84.6145 7.87862 87.8314C13.0771 91.4544 31.5378 88.7793 31.5378 88.7793C31.5378 88.7793 32.1522 85.9093 31.2973 84.5211C30.4426 83.1328 16.5524 80.8901 15.9113 80.2495C15.2702 79.6088 23.9249 67.7551 23.9249 65.8329C23.925 63.9106 27.0438 50.2998 27.0438 50.2998Z" fill="white"/>
<path d="M38.2559 85.958C38.2559 85.958 39.556 87.6342 39.9823 87.8342C40.4085 88.0343 40.6839 87.9843 40.6839 87.9843L39.8078 86.4083L38.2559 85.958Z" fill="#FFB27D"/>
<path d="M37.9553 84.2314L41.7354 86.0661C41.7354 86.0661 41.5747 86.3291 41.1092 86.3078C40.6437 86.2866 39.4697 85.8576 39.4697 85.8576L37.9553 84.2314Z" fill="#FFB27D"/>
<path d="M51.8805 88.5814H34.3242C34.3242 87.8089 34.9508 87.1826 35.7237 87.1826H51.8805V88.5814Z" fill="#ED7D2B"/>
<path d="M51.8303 69.4712H78.9736L72.4629 88.5815H45.1436L51.8303 69.4712Z" fill="#ED7D2B"/>
<path d="M79.3731 69.4707L72.8625 88.5812H45.543L52.2299 69.4707H79.3731Z" fill="#F99746"/>
<path d="M64.7392 78.8494C64.5705 79.5796 63.8415 80.1715 63.111 80.1715C62.3805 80.1715 61.925 79.5796 62.0937 78.8494C62.2624 78.1193 62.9913 77.5273 63.7218 77.5273C64.4523 77.5273 64.9079 78.1193 64.7392 78.8494Z" fill="white"/>
<path d="M28.2561 92.8805H147.207C147.707 92.8805 148.113 92.4752 148.113 91.9752V89.4864C148.113 88.9864 147.707 88.5811 147.207 88.5811H28.2561C27.7559 88.5811 27.3503 88.9864 27.3503 89.4864V91.9752C27.3503 92.4752 27.7559 92.8805 28.2561 92.8805Z" fill="#182D4F"/>
<path d="M150.119 163.702L150.17 163.696C150.779 163.621 151.211 163.077 151.134 162.482L140.534 90.7686L136.653 90.8797L149.125 162.981C149.205 163.443 149.643 163.761 150.119 163.702Z" fill="#182D4F"/>
<path d="M24.2728 163.702L24.2218 163.696C23.6125 163.621 23.1809 163.077 23.2579 162.482L33.8579 90.7686L37.7385 90.8797L25.2668 162.981C25.1869 163.443 24.7485 163.761 24.2728 163.702Z" fill="#182D4F"/>
<path d="M48.8121 163.702L48.7611 163.696C48.1518 163.621 47.7202 163.077 47.7972 162.482L58.3972 90.7686L62.2778 90.8797L49.8062 162.981C49.7262 163.443 49.2878 163.761 48.8121 163.702Z" fill="#182D4F"/>
<path d="M111.348 163.644H132.382C133.394 162.41 133.021 157.857 132.868 156.37C132.836 156.071 132.815 155.896 132.815 155.896C132.815 155.896 125.632 150.154 124.645 154.551C124.615 154.689 124.579 154.824 124.539 154.957C123.296 159.069 117.72 160.938 114.501 161.459C112.408 161.798 111.634 162.886 111.348 163.644Z" fill="#233862"/>
<path d="M168.743 95.333C167.983 95.333 132.712 101.952 126.878 109.17C123.964 112.776 123.53 154.419 123.53 154.419C123.53 154.419 127.136 158.888 134.923 156.293C134.923 156.293 140.633 127.801 140.212 119.159C140.095 116.77 164.31 118.814 168.743 117.667C173.175 116.521 184.004 106.884 181.618 102.19C179.232 97.495 168.743 95.333 168.743 95.333Z" fill="#233862"/>
<path d="M127.029 85.1357C127.029 85.1357 119.915 85.2317 118.232 85.9525C116.549 86.6733 113.136 88.3276 114.05 88.5815C114.963 88.8353 119.322 88.4768 120.263 88.6209C121.205 88.7651 122.366 88.5812 122.943 88.5813C123.52 88.5815 126.211 88.5813 126.211 88.5813L127.029 85.1357Z" fill="#FFB27D"/>
<path d="M118.711 68.0706C118.711 68.0706 116.285 66.3381 113.93 66.0018C112.586 65.8099 111.28 65.5708 110.491 65.2928C108.317 64.5273 103.968 60.6192 104.297 60.1606C105.352 58.6914 110.429 61.8006 111.315 61.4668C112.202 61.133 109.612 59.2928 110.513 58.6455C110.983 58.3076 112.084 60.0018 112.983 60.1719C114.2 60.4021 115.152 62.1198 115.518 62.2094C116.231 62.3839 119.355 64.7057 119.355 64.7057L118.711 68.0706Z" fill="#FFB27D"/>
<path d="M165.23 47.8394C165.23 47.8394 159.814 49.517 154.478 64.2031C149.142 78.8892 147.115 79.6819 145.176 80.2585C143.236 80.8351 126.211 84.2224 126.211 84.2224V88.5809H152.444C152.444 88.5809 162.281 79.2289 165.23 72.933C168.179 66.6372 165.23 47.8394 165.23 47.8394Z" fill="#ED7D2B"/>
<path d="M102.052 163.644H123.086C124.098 162.41 123.725 157.857 123.572 156.37C123.54 156.071 123.519 155.896 123.519 155.896C123.519 155.896 116.336 150.154 115.349 154.551C115.319 154.689 115.283 154.824 115.243 154.957C114 159.069 108.424 160.938 105.205 161.459C103.112 161.798 102.338 162.886 102.052 163.644Z" fill="#1B3051"/>
<path d="M158.349 95.333C157.59 95.333 122.318 101.952 116.484 109.17C113.57 112.776 113.136 154.419 113.136 154.419C113.136 154.419 116.742 158.888 124.53 156.293C124.53 156.293 130.239 127.801 129.818 119.159C129.701 116.77 153.917 118.814 158.349 117.667C162.781 116.521 173.61 106.884 171.224 102.19C168.838 97.495 158.349 95.333 158.349 95.333Z" fill="#2B478B"/>
<path d="M160.556 52.494C163.094 52.2846 165.754 51.6087 168.053 50.863C170.927 49.9309 173.244 48.5685 171.751 45.9428C170.375 43.523 168.149 38.1173 168.299 33.6392L162.951 37.947L159.318 40.8728C159.318 40.8728 159.333 42.5977 159.73 45.6207C159.802 46.1718 159.887 46.7666 159.987 47.4024C160.068 47.9159 159.832 48.4288 159.39 48.7028C159.363 48.7199 159.335 48.7369 159.308 48.754C157.502 49.8878 158.431 52.6693 160.556 52.494Z" fill="#FFB27D"/>
<path d="M159.318 40.1603C159.318 40.1603 159.132 40.7866 159.451 43.0994C162.69 42.5713 165.718 39.9893 165.718 39.9893C164.069 39.5368 163.469 37.756 162.241 37.922L159.318 40.1603Z" fill="#ED975D"/>
<path d="M156.322 40.6878C156.322 40.6878 168.781 42.7565 169.95 34.9822C171.12 27.2078 173.515 22.239 165.61 20.5895C157.705 18.94 155.71 21.6737 154.688 24.1738C153.666 26.6738 153.111 39.9493 156.322 40.6878Z" fill="#FFB27D"/>
<path d="M152.855 20.7335C152.32 22.6055 153.752 24.8859 156.156 25.6365C159.723 26.7508 158.935 31.1248 160.541 31.0654C162.146 31.006 162.794 28.5512 164.228 30.5125C165.451 32.1853 163.21 34.1687 163.364 35.0861C163.629 36.661 166.097 39.8833 168.321 39.7217C170.546 39.56 174.708 28.9943 173.876 25.7256C173.043 22.4569 169.713 19.0099 166.562 18.5344C163.41 18.059 159.033 19.419 158.023 19.419C157.012 19.419 153.145 19.7223 152.855 20.7335Z" fill="#2B478B"/>
<path d="M181.784 58.6294C179.983 51.3855 175.006 43.7846 171.641 43.791C165.907 43.802 157.663 45.3143 154.335 53.5205C151.883 59.5645 148.613 94.3314 152.309 96.804C160.757 102.457 180.338 113.995 183.816 102.228C187.004 91.4464 184.909 71.2018 181.784 58.6294Z" fill="#F99746"/>
<path d="M167.856 51.421C166.22 47.1678 160.944 45.6975 157.346 48.4955C155.399 50.0088 153.016 52.1638 150.137 55.2278C139.436 66.6176 137.261 66.5468 135.251 66.3116C133.241 66.0764 116.26 62.4743 116.26 62.4743C116.26 62.4743 115.39 63.1153 114.879 64.1517C114.195 65.5358 114.539 66.4791 114.539 66.4791C113.874 66.0495 120.558 70.6546 123.886 72.491C128.28 74.9158 134.901 77.1892 137.538 78.0525C138.285 78.2972 139.091 78.2849 139.831 78.0183C143.745 76.6082 156.89 71.4702 167.59 62.5547C170.409 60.2055 169.373 55.3645 167.856 51.421Z" fill="#F99746"/>
<path d="M172.218 43.8607L170.92 40.9375C170.92 40.9375 159.299 41.8846 157.345 48.4953C157.345 48.4953 166.354 44.0025 172.218 43.8607Z" fill="white"/>
<path d="M200.433 163.382L200.514 163.381C201.17 163.369 201.677 162.833 201.615 162.216L197.237 118.521L193.417 118.861L199.703 162.792C199.752 163.135 200.066 163.389 200.433 163.382Z" fill="#8CB4F4"/>
<path d="M177.901 163.382L177.981 163.381C178.637 163.369 179.144 162.833 179.082 162.216L174.705 118.521L170.885 118.861L177.171 162.792C177.22 163.135 177.534 163.389 177.901 163.382Z" fill="#8CB4F4"/>
<path d="M135.601 163.382L135.52 163.381C134.864 163.369 134.357 162.833 134.419 162.216L138.797 118.521L142.617 118.861L136.331 162.792C136.281 163.135 135.967 163.389 135.601 163.382Z" fill="#73A2E5"/>
<path d="M199.196 112.331L203.351 75.8356C203.896 70.5762 202.135 65.4266 194.541 65.0281L181.183 64.2148C173.265 63.8883 169.69 70.4745 168.688 75.5448L160.757 115.662L199.196 112.331Z" fill="#8CB4F4"/>
<path d="M196.964 119.159H137.673C136.482 119.159 135.508 118.185 135.508 116.995V114.329C135.508 113.139 136.482 112.165 137.673 112.165H199.13V116.995C199.13 118.185 198.155 119.159 196.964 119.159Z" fill="#73A2E5"/>
<path d="M197.447 119.16H162.439C161.514 119.16 160.757 118.403 160.757 117.478V113.846C160.757 112.921 161.514 112.165 162.439 112.165H199.13V117.478C199.13 118.403 198.373 119.16 197.447 119.16Z" fill="#8CB4F4"/>
<path d="M111.403 15.7936C111.403 14.7805 111.305 13.7348 111.142 12.7544H96.9917V18.5386H105.096C104.769 20.4013 103.691 22.0353 102.09 23.081L106.926 26.8391C109.769 24.1921 111.403 20.3359 111.403 15.7936Z" fill="#4280EF"/>
<path d="M96.9917 30.4336C101.044 30.4336 104.443 29.0937 106.926 26.8062L102.09 23.0808C100.75 23.9958 99.0178 24.5186 96.9917 24.5186C93.0702 24.5186 89.7696 21.8716 88.5605 18.3423L83.5933 22.1657C86.1422 27.231 91.3055 30.4336 96.9917 30.4336Z" fill="#34A353"/>
<path d="M88.5603 18.3098C87.9394 16.4471 87.9394 14.421 88.5603 12.5583L83.5931 8.70215C81.469 12.9504 81.469 17.9503 83.5931 22.1659L88.5603 18.3098Z" fill="#F6B704"/>
<path d="M96.9917 6.38176C99.1158 6.34908 101.207 7.16606 102.743 8.63662L107.024 4.32298C104.312 1.77401 100.717 0.401485 96.9917 0.434164C91.3055 0.434164 86.1422 3.63672 83.5933 8.70198L88.5605 12.5581C89.7696 8.99609 93.0702 6.38176 96.9917 6.38176Z" fill="#E54335"/>
</svg>
