<svg width="40" height="61" viewBox="0 0 40 61" fill="none" xmlns="http://www.w3.org/2000/svg">
<g id="Group">
<path id="Vector" d="M39.6687 19.1204C40.0673 30.0704 32.0668 54.5331 21.1157 54.93C10.1656 55.3281 0.41141 31.5112 0.0133466 20.5606C-0.384717 9.61054 8.17033 0.41141 19.1209 0.0133466C30.071 -0.384717 39.2707 8.17032 39.6687 19.1204Z" fill="#DB45BD"/>
<path id="Vector_2" d="M22.7795 54.8705C22.8127 55.7894 22.0956 56.5617 21.1768 56.5955C20.2568 56.6292 19.485 55.9099 19.4518 54.9922C19.4181 54.0733 20.1363 53.2998 21.0546 53.2672C21.974 53.234 22.7452 53.9511 22.7795 54.8705Z" fill="#DB45BD"/>
<path id="Vector_3" d="M18.0918 60.4224C18.7536 60.8078 19.9561 61.0433 21.3349 60.993C22.7154 60.9427 23.8974 60.6209 24.5294 60.1886C23.8665 59.8021 22.5374 56.0166 21.1563 56.0664C19.7775 56.1167 18.7237 59.9884 18.0918 60.4224Z" fill="#DB45BD"/>
<path id="Vector_4" opacity="0.5" d="M36.2118 8.63818C36.0598 21.0108 32.773 42.7953 12.605 50.6184C15.2433 53.3501 18.1353 55.0391 21.1158 54.9307C32.067 54.5332 40.0675 30.0711 39.6689 19.1211C39.5268 15.2239 38.2657 11.6325 36.2118 8.63818Z" fill="#DB45BD"/>
<path id="Vector_5" opacity="0.2" d="M13.5867 4.23102C11.0662 3.34588 7.13582 7.99991 4.80881 14.6254C2.4818 21.2515 2.63827 27.3403 5.15989 28.2265C7.68095 29.1116 11.6102 24.4582 13.9377 17.8315C16.2642 11.2054 16.1072 5.11616 13.5867 4.23102Z" fill="white"/>
<path id="Vector_6" opacity="0.2" d="M24.85 7.28705C24.9218 9.25415 23.386 10.9061 21.4183 10.9774C19.4523 11.0493 17.7993 9.51234 17.7285 7.54579C17.6566 5.5787 19.1936 3.92673 21.1601 3.85541C23.1267 3.78409 24.7792 5.31996 24.85 7.28705Z" fill="white"/>
<path id="Vector_7" d="M28.5307 21.6769C28.5523 22.2701 28.0884 22.7693 27.4947 22.7914C26.9014 22.813 26.4016 22.3486 26.3801 21.7554C26.3591 21.1616 26.8224 20.6624 27.4167 20.6413C28.0105 20.6198 28.5092 21.0831 28.5307 21.6769Z" fill="#DB45BD"/>
<path id="Vector_8" opacity="0.5" d="M23.1981 58.1133C22.0514 58.6606 20.5587 59.1543 18.7879 59.2666C18.5192 59.8344 18.2859 60.2894 18.0918 60.422C18.7536 60.8074 19.9561 61.0429 21.3349 60.9926C22.7154 60.9423 23.8974 60.6205 24.5294 60.1882C24.2148 60.0052 23.7487 59.0554 23.1981 58.1133Z" fill="#DB45BD"/>
</g>
</svg>
