<svg width="1102" height="1087" viewBox="0 0 1102 1087" fill="none" xmlns="http://www.w3.org/2000/svg">
<g opacity="0.04">
<g clip-path="url(#clip0_2000_4527)">
<path d="M1102 544.192C1101.23 545.004 1100.35 545.972 1099.44 546.877C1051.41 594.238 1003.36 641.588 955.344 688.969C903.42 740.19 851.56 791.463 799.616 842.674C761.754 880.013 723.778 917.238 685.916 954.576C642.742 997.16 599.631 1039.82 556.499 1082.45C550.353 1088.53 550.405 1088.48 544.395 1082.57C474.109 1013.36 403.771 944.211 333.516 874.976C278.113 820.383 222.816 765.686 167.434 711.062C113.949 658.301 60.4215 605.581 6.89434 552.861C-2.26121 543.839 -2.41745 543.797 7.00892 534.504C73.6393 468.745 140.311 403.037 206.952 337.309C260.146 284.839 313.298 232.328 366.534 179.889C421.946 125.306 477.432 70.786 532.865 16.2347C537.563 11.6141 542.281 7.01443 546.812 2.23781C549.145 -0.228555 550.666 -1.06108 553.645 1.88398C597.027 44.8944 640.534 87.7696 684.041 130.655C721.288 167.359 758.588 204.001 795.824 240.715C829.301 273.725 862.694 306.818 896.16 339.838C942.449 385.513 988.779 431.156 1035.09 476.82C1056.51 497.956 1077.93 519.112 1099.34 540.248C1100.43 541.31 1101.67 542.236 1101.99 544.203L1102 544.192ZM211.889 543.349C212.025 561.27 213.223 579.023 216.295 596.569C218.264 607.808 220.368 619.078 223.482 630.036C246.189 709.844 291.581 773.845 360.743 819.644C442.966 874.102 533.157 890.284 629.243 867.713C718.247 846.806 787.762 796.989 837.009 720.022C876.12 658.894 892.536 591.719 887.432 519.185C884.713 480.598 875.443 443.727 859.549 408.678C831.395 346.623 788.106 297.525 730.236 261.331C689.78 236.032 645.804 220.058 598.673 213.502C553.832 207.258 509.158 209.35 465.183 220.818C411.51 234.815 363.659 259.884 322.631 297.317C250.261 363.357 213.972 445.715 211.889 543.349Z" fill="#167BA2"/>
<path d="M211.891 543.349C213.974 445.725 250.252 363.357 322.632 297.316C363.66 259.884 411.501 234.814 465.184 220.818C509.16 209.349 553.834 207.268 598.674 213.502C645.806 220.058 689.771 236.022 730.237 261.33C788.107 297.525 831.406 346.623 859.55 408.677C875.445 443.727 884.715 480.597 887.433 519.185C892.547 591.719 876.122 658.893 837.01 720.022C787.764 796.989 718.248 846.805 629.244 867.712C533.158 890.284 442.967 874.091 360.744 819.644C291.583 773.845 246.19 709.844 223.484 630.036C220.369 619.078 218.265 607.808 216.297 596.568C213.213 579.012 212.026 561.259 211.891 543.349ZM250.523 597.64C250.7 599.16 250.763 600.71 251.065 602.209C262.658 659.174 288.499 708.876 328.955 750.524C380.576 803.649 443.446 834.317 517.336 842.466C560.364 847.211 602.694 843.59 643.545 830.009C732.622 800.413 796.732 742.76 833.094 655.719C856.998 598.504 861.56 539.207 848.134 478.891C834.812 419.032 805.752 367.54 760.412 325.997C683.584 255.596 593.185 230.641 490.984 248.884C430.457 259.686 378.243 287.742 334.756 330.961C276.261 389.082 246.523 459.847 245.232 542.329C244.94 560.967 246.492 579.522 250.596 597.776L250.523 597.64Z" fill="white"/>
<path d="M250.596 597.776C246.492 579.512 244.94 560.968 245.232 542.319C246.523 459.836 276.26 389.071 334.756 330.951C378.253 287.732 430.457 259.686 490.984 248.874C593.184 230.631 683.584 255.586 760.411 325.987C805.752 367.53 834.812 419.022 848.134 478.88C861.56 539.197 856.987 598.494 833.093 655.709C796.732 742.75 732.622 800.392 643.545 829.999C602.694 843.579 560.364 847.201 517.336 842.456C443.456 834.307 380.575 803.629 328.954 750.513C288.489 708.877 262.657 659.164 251.064 602.198C250.762 600.7 250.7 599.16 250.523 597.63C257.126 601.137 263.199 605.914 271.521 604.831C274.813 604.405 276.229 607.319 276.969 610.222C277.01 611.585 276.719 613.021 277.969 614.072C278.114 614.905 278.26 615.737 278.406 616.58C275.386 624.614 277.698 632.971 276.969 641.14C276.562 645.74 278.791 647.259 283.187 647.186C294.301 647.02 305.425 647.134 316.539 647.134C321.934 654.252 324.028 654.388 330.027 647.821C338.329 638.736 345.266 628.839 348.495 616.737C350.151 614.572 350.14 612.397 348.515 610.232C347.297 606.257 344.766 603.468 341.006 601.678C329.829 596.329 319.111 589.992 307.269 586.058C306.456 585.735 305.644 585.402 304.821 585.08C302.373 583.852 300.144 582.561 303.571 579.908C305.654 579.908 307.727 579.908 309.81 579.908C313.403 581.323 316.997 582.728 320.59 584.143C321.486 584.455 322.382 584.767 323.278 585.08C333.017 588.524 341.839 593.707 350.671 598.993C359.754 604.415 361.473 609.348 356.702 618.745C348.682 634.553 341.526 650.818 328.559 663.618C324.038 668.083 325.225 670.518 331.381 672.006C339.87 674.066 349.057 669.415 354.984 659.997C361.285 649.965 367.535 639.902 373.816 629.859C375.149 627.715 375.19 625.582 373.743 623.48C372.764 620.389 370.691 617.663 370.67 614.26C370.701 612.522 370.732 610.784 370.774 609.046C375.211 606.288 375.961 606.746 378.732 613.916C378.732 615.8 378.055 617.808 379.711 619.39C379.805 620.244 379.898 621.107 380.003 621.961C380.044 623.792 379.398 625.749 380.992 627.299C381.586 629.537 381.096 631.618 380.2 633.678C374.722 646.416 368.16 658.55 358.515 668.655C355.504 671.808 355.004 673.328 359.494 675.055C363.743 676.699 364.181 679.707 361.754 683.453C360.598 685.243 359.14 687.314 360.983 689.458C362.764 691.518 365.108 691.341 367.629 690.8C374.784 689.281 378.992 684.244 381.94 678.281C387.273 667.531 392.866 656.885 396.835 645.48C399.428 638.039 401.907 630.973 396.356 623.74C395.21 622.252 395.054 619.578 396.72 618.266C398.824 616.601 400.876 618.235 402.47 619.775C404.928 622.148 406.199 625.124 406.417 628.538C406.376 629.974 406.084 631.483 407.417 632.586C407.417 633.502 407.417 634.407 407.417 635.323C405.803 636.852 406.48 638.819 406.407 640.651C406.303 641.952 406.199 643.253 406.105 644.553C404.751 645.708 405.063 647.249 405.157 648.737C405.251 651.276 403.897 653.337 402.865 655.501C397.991 665.783 393.335 676.179 386.648 685.493C384.877 687.959 384.034 690.842 386.138 693.35C388.408 696.045 391.137 694.224 393.252 692.871C396.741 690.644 400.564 688.49 403.178 685.399C413.208 673.567 422.854 661.412 432.54 649.299C435.519 645.573 436.207 641.629 433.321 637.227C430.78 633.366 430.749 628.954 432.259 624.604C432.999 622.481 434.051 620.389 436.675 620.348C439.29 620.306 440.561 621.981 440.8 624.489C440.686 625.551 440.769 626.55 441.685 627.299C442.748 630.328 443.956 633.335 443.06 636.644C441.758 637.716 442.029 639.184 442.05 640.599C442.456 648.071 438.717 654.023 434.957 659.986C426.437 673.463 413.833 683.297 403.501 695.15C402.095 696.763 399.98 697.991 400.782 700.676C401.699 703.746 404.449 704.433 406.959 704.808C414.229 705.879 420.635 703.923 424.822 697.617C430.728 688.698 436.405 679.603 441.883 670.414C447.018 661.807 451.789 652.972 458.861 645.708C462.444 646.843 466.09 647.217 469.871 647.207C499.348 647.124 528.825 647.134 558.312 647.207C561.864 647.207 565.301 646.926 568.676 645.854C570.53 648.789 571.78 652.109 574.644 654.388C583.341 661.308 592.914 658.009 599.153 645.854C601.278 646.291 603.402 646.739 605.517 647.176C605.885 654.183 608.256 657.225 612.631 656.302C614.516 651.786 611.787 643.211 621.828 645.854C621.953 648.674 622.099 651.495 622.193 654.325C622.266 656.687 623.745 657.177 625.713 657.125C627.588 657.073 629.213 656.791 629.255 654.356C629.296 651.963 629.452 649.58 629.546 647.186C632.879 646.406 633.254 649.309 634.483 651.141C638.368 658.155 640.681 659.018 648.201 656.188C649.18 655.824 650.003 654.752 651.159 655.47C658.211 659.872 658.617 656.302 657.315 650.444C657.086 649.413 657.398 648.269 657.461 647.176C659.669 647.176 661.867 647.176 664.075 647.176C664.179 652.66 664.283 658.155 664.377 663.639C664.419 666.064 664.023 668.499 667.856 668.541C671.481 668.582 671.553 666.553 671.606 663.899C671.658 661.152 670.97 658.311 672.137 655.595C682.011 659.56 685.219 657.957 689.271 647.186C691.281 645.147 693.302 647.041 695.312 647.186C695.75 649.923 695.166 652.91 697.104 655.283C699.114 657.749 701.843 658.092 704.77 657.52C706.78 657.125 707.301 655.834 707.53 653.815C707.936 650.194 704.426 651.723 703.343 650.215C704.02 645.688 707.613 647.675 710.103 647.186C712.321 653.243 715.613 658.113 723.008 657.728C728.862 657.426 732.653 654.471 733.788 648.518C735.517 647.561 737.34 646.978 739.35 647.186C739.455 649.361 739.652 651.536 739.642 653.711C739.632 656.219 740.777 657.229 743.246 657.177C745.61 657.125 746.923 656.313 746.85 653.711C746.787 651.536 747.006 649.361 747.1 647.186C769.723 647.186 792.346 647.186 814.97 647.186C820.719 647.186 823.601 644.217 823.615 638.278C823.615 625.114 823.542 611.939 823.667 598.775C823.698 595.226 823.032 591.188 827.354 589.201C830.573 592.489 833.677 595.913 837.051 599.035C839.822 601.595 843.322 604.53 846.665 600.627C849.717 597.068 848.176 593.342 844.707 590.304C826.865 574.652 809.918 558.179 794.992 539.592C788.576 531.611 783.285 523.306 779.233 513.982C775.369 505.095 770.702 496.384 763.536 489.859C757.339 484.229 751.183 478.579 745.808 472.231C733.945 458.213 718.258 450.793 700.812 448.503C684.094 446.308 669.002 440.678 654.19 433.351C645.545 429.074 637.244 423.829 627.661 421.894C613.891 419.105 603.517 411.622 596.278 399.863C586.435 383.879 573.832 370.1 561.603 356.051C552.708 345.832 545.24 345.301 533.803 352.721C514.17 365.459 500.358 383.004 491.65 404.515C487.349 415.14 482.266 425.297 476.235 434.996C462.892 456.475 442.56 470.43 422.364 484.5C417.312 488.017 413.219 487.362 409.573 481.992C402.022 470.878 393.272 460.721 383.731 451.272C375.743 443.363 372.264 443.748 364.816 451.938C345.109 473.635 330.6 498.57 318.476 525.044C314.539 533.65 310.352 542.08 303.04 548.511C286.874 562.747 270.803 577.077 254.658 591.324C252.627 593.114 250.752 594.893 250.606 597.807L250.596 597.776ZM717.987 434.746C716.675 434.829 715.363 434.902 714.05 434.996C710.405 435.266 707.228 436.598 707.415 440.73C707.634 445.319 711.655 444.903 714.884 445.277C717.644 445.59 720.185 443.352 722.591 444.122C724.102 446.505 719.217 450.085 724.289 450.585C729.778 451.136 735.361 450.71 740.736 450.71C741.09 447.286 738.371 445.517 739.35 442.863C744.236 441.75 751.016 449.159 753.881 440.355C755.891 434.194 749.87 434.059 745.392 432.946C755.318 421.779 759.943 409.302 758.964 395.014C758.172 383.556 752.11 375.532 741.434 371.713C730.716 367.884 720.508 369.288 712.227 377.801C703.447 386.834 703.853 398.011 705.405 409.375C706.749 419.251 712.894 426.733 717.987 434.746ZM399.897 387.906C400.189 377.156 384.867 365.167 373.149 366.25C367.67 366.76 362.483 371.651 356.692 367.134C356.463 366.957 355.775 367.145 355.432 367.374C352.369 369.372 350.526 368.092 348.484 365.48C345.328 361.463 341.078 361.39 336.568 363.284C331.902 365.251 328.402 368.477 329.194 373.67C329.767 377.385 328.611 379.091 326.017 381.298C320.184 386.272 320.33 390.882 326.559 395.118C329.35 397.012 329.808 398.448 328.548 401.393C327.152 404.66 325.903 409.552 328.819 411.269C335.089 414.963 339.891 421.696 348.13 421.654C349.422 421.654 351.109 421.675 351.932 420.936C357.452 415.941 362.868 417.898 368.566 420.531C370.899 421.602 373.628 421.977 376.222 422.3C386.429 423.548 397.397 415.91 398.137 405.868C398.616 399.468 396.241 392.859 399.866 387.895L399.897 387.906ZM673.314 726.276C656.065 726.204 645.67 736.725 645.587 754.353C645.503 771.961 655.773 782.607 673.001 782.784C690.24 782.961 700.426 772.586 700.603 754.676C700.77 736.922 690.615 726.349 673.314 726.276ZM526.7 747.495C526.7 744.425 526.7 741.345 526.7 738.275C526.7 727.046 526.7 727.213 515.472 727.348C511.805 727.39 510.514 728.368 510.607 732.146C510.847 741.584 510.795 751.023 510.639 760.462C510.534 766.956 507.42 770.026 501.493 770.036C495.556 770.036 492.369 766.945 492.234 760.556C492.067 753.094 492.192 745.633 492.192 738.161C492.192 726.38 491.723 726.058 479.578 727.379C477.068 727.65 476.141 728.462 476.172 730.939C476.277 741.689 475.912 752.47 476.443 763.199C476.902 772.357 482.464 779.34 490.359 781.213C496.077 782.566 501.941 783.367 507.962 782.274C519.992 780.089 526.387 772.929 526.669 760.66C526.773 756.268 526.689 751.877 526.689 747.485L526.7 747.495ZM558.708 726.401C557.385 726.401 556.062 726.308 554.76 726.412C544.782 727.255 538.012 732.531 537.032 740.148C535.98 748.442 540.365 754.27 550.49 757.725C554.219 758.995 558.135 759.734 561.864 761.014C564.989 762.085 567.415 764.073 566.343 767.892C565.332 771.503 562.239 772.326 559.031 772.18C555.51 772.013 552.875 770.223 551.302 766.893C550.698 765.603 550.833 763.261 548.979 763.303C544.448 763.386 538.657 761.513 535.783 764.937C533.439 767.726 536.595 772.398 539.126 775.395C546.157 783.71 555.729 783.492 565.207 782.149C575.904 780.63 582.227 773.907 582.644 764.677C583.008 756.466 577.831 750.555 567.405 747.475C563.416 746.299 559.322 745.445 555.323 744.259C553.615 743.749 551.917 742.688 552.052 740.627C552.198 738.421 553.771 737.12 555.927 736.787C558.604 736.381 562.01 736.183 563.155 738.681C566.405 745.82 572.217 742.625 577.175 742.792C580.696 742.906 580.967 741.033 580.019 738.057C577.508 730.116 570.655 726.224 558.708 726.401ZM638.566 743.114C635.254 731.532 627.994 726.318 615.516 726.276C602.496 726.245 593.528 732.271 590.341 743.364C588.289 750.492 588.289 757.704 590.247 764.854C593.111 775.312 600.517 781.234 612.256 782.638C623.484 783.991 632.775 780.016 636.931 771.41C638.035 769.131 642.431 764.926 637.025 763.574C633.119 762.595 627.432 754.999 623.838 764.614C622.13 769.193 618.266 770.525 613.641 769.942C609.079 769.37 606.631 766.529 605.861 762.221C604.996 757.434 604.809 752.595 605.767 747.797C606.59 743.687 608.527 740.377 612.975 739.305C617.308 738.254 621.016 739.42 623.193 743.322C624.724 746.059 626.359 746.319 629.046 745.435C632.14 744.425 635.379 743.874 638.577 743.125L638.566 743.114ZM440.196 726.276C433.665 726.36 424.937 729.409 420.427 739.181C415.667 749.493 415.792 760.119 420.916 770.348C425.77 780.037 434.582 782.784 444.612 782.753C453.539 782.732 461.184 779.818 465.298 771.347C466.392 769.089 470.798 764.958 465.298 763.511C461.34 762.47 455.684 755.269 452.143 764.677C450.539 768.923 446.987 770.359 442.56 770.005C438.3 769.672 435.478 767.414 434.488 763.417C433.103 757.819 432.894 752.033 434.394 746.434C436.269 739.409 445.258 735.819 449.164 741.075C453.872 747.402 458.497 745.029 463.84 743.905C466.871 743.26 467.163 742.282 466.059 739.534C462.673 731.084 454.872 726.287 440.186 726.266L440.196 726.276ZM357.827 433.643C361.379 433.497 364.098 431.884 364.191 427.857C364.295 423.548 361.587 421.467 357.504 421.478C353.369 421.478 350.755 423.715 350.911 427.961C351.057 431.936 353.786 433.601 357.827 433.643ZM349.463 444.986C348.755 442.01 347.265 439.647 343.401 439.845C339.756 440.033 337.704 441.885 337.756 445.579C337.808 449.076 340.089 450.564 343.297 450.689C346.932 450.835 348.963 448.951 349.453 444.986H349.463ZM584.945 325.414C584.373 324.842 583.8 324.27 583.227 323.697C577.769 329.494 572.311 335.28 566.853 341.076C567.405 341.576 567.957 342.086 568.509 342.585C573.988 336.862 579.456 331.138 584.935 325.414H584.945ZM536.887 335.623C537.668 335.332 538.449 335.051 539.22 334.759C536.366 327.319 533.512 319.888 530.647 312.448C529.897 312.729 529.148 313.02 528.398 313.301C531.22 320.742 534.053 328.182 536.876 335.623H536.887ZM557.77 335.207C558.479 335.457 559.187 335.706 559.895 335.956C563.041 328.38 565.77 320.669 567.905 312.739C567.228 312.5 566.561 312.26 565.884 312.021C563.176 319.753 560.479 327.475 557.77 335.207ZM335.641 448.795C335.027 445.725 332.964 445.007 330.319 445.132C327.84 445.246 326.007 446.37 326.038 448.941C326.08 451.927 328.413 452.937 330.954 452.905C333.569 452.874 335.475 451.594 335.641 448.795ZM592.82 341.628C592.445 340.983 592.07 340.327 591.695 339.682C585.362 343.293 579.029 346.904 572.686 350.515C573.082 351.202 573.478 351.899 573.884 352.586C580.373 349.245 586.883 345.926 592.82 341.628ZM513.211 326.101C518.45 331.752 522.971 338.058 528.262 341.43C523.867 336.955 518.534 331.523 513.211 326.101ZM505.483 342.044C510.941 346.332 516.638 350.224 523.638 351.753C518.086 347.622 512.524 343.511 505.483 342.044ZM548.552 308.753C548.261 308.753 547.959 308.753 547.667 308.764V332.636C547.959 332.636 548.261 332.636 548.552 332.636V308.753Z" fill="#187CA2"/>
<path d="M406.115 644.553C406.219 643.252 406.324 641.951 406.417 640.651C407.657 639.048 407.646 637.206 407.428 635.322C407.428 634.407 407.428 633.501 407.428 632.586C407.636 631.108 407.698 629.661 406.428 628.537C406.199 625.124 404.938 622.137 402.48 619.775C400.886 618.235 398.835 616.611 396.73 618.266C395.064 619.577 395.231 622.252 396.366 623.74C401.918 630.973 399.439 638.028 396.845 645.479C392.877 656.885 387.283 667.531 381.95 678.281C378.992 684.244 374.795 689.281 367.639 690.8C365.118 691.331 362.775 691.518 360.994 689.458C359.15 687.324 360.608 685.243 361.764 683.453C364.191 679.707 363.754 676.699 359.504 675.055C355.025 673.327 355.525 671.808 358.525 668.655C368.17 658.55 374.722 646.426 380.211 633.678C381.096 631.607 381.586 629.526 381.003 627.299C381.253 625.415 381.117 623.594 380.013 621.96C379.919 621.107 379.826 620.243 379.721 619.39C379.878 617.475 379.846 615.602 378.742 613.916C375.972 606.746 375.222 606.288 370.785 609.046C369.378 610.752 369.243 612.49 370.68 614.26C370.701 617.673 372.774 620.389 373.753 623.48C373.774 625.603 373.805 627.736 373.826 629.859C367.556 639.912 361.306 649.975 354.994 659.997C349.067 669.425 339.881 674.066 331.392 672.006C325.236 670.518 324.048 668.072 328.569 663.618C341.537 650.818 348.692 634.552 356.713 618.745C361.483 609.337 359.754 604.415 350.682 598.993C341.849 593.717 333.027 588.534 323.288 585.079C322.569 584.257 321.674 583.945 320.601 584.143C317.007 582.728 313.414 581.323 309.82 579.907C307.737 578.534 305.664 578.492 303.581 579.907C300.154 582.561 302.383 583.841 304.831 585.079C305.644 585.402 306.456 585.735 307.279 586.058C319.111 589.991 329.829 596.329 341.016 601.678C344.776 603.478 347.297 606.257 348.526 610.232C348.526 612.397 348.515 614.572 348.505 616.736C345.276 628.829 338.329 638.736 330.038 647.821C324.038 654.387 321.944 654.252 316.549 647.134C316.132 645.677 315.58 644.251 315.31 642.763C313.643 633.709 312.258 632.45 303.342 632.398C299.832 632.377 296.311 632.752 292.822 632.554C286.812 632.211 281.625 630.608 280.562 623.376C280.218 621.055 279.146 618.838 278.417 616.58C278.271 615.748 278.125 614.915 277.979 614.072C278.187 612.647 278.26 611.262 276.979 610.222C276.24 607.308 274.823 604.404 271.532 604.831C263.209 605.903 257.137 601.137 250.533 597.63L250.606 597.765C250.752 594.851 252.637 593.072 254.658 591.292C270.803 577.046 286.874 562.705 303.04 548.479C310.352 542.048 314.528 533.619 318.476 525.013C330.6 498.538 345.109 473.604 364.816 451.906C372.264 443.706 375.742 443.331 383.731 451.24C393.272 460.689 402.032 470.857 409.573 481.96C413.219 487.33 417.312 487.986 422.364 484.468C442.56 470.409 462.892 456.444 476.235 434.964C482.255 425.276 487.349 415.109 491.65 404.483C500.358 382.963 514.18 365.427 533.803 352.69C545.24 345.27 552.719 345.801 561.603 356.02C573.832 370.069 586.435 383.847 596.278 399.832C603.517 411.591 613.891 419.073 627.661 421.862C637.244 423.808 645.545 429.053 654.19 433.32C669.002 440.646 684.094 446.276 700.812 448.472C718.258 450.762 733.945 458.181 745.808 472.199C751.183 478.547 757.339 484.188 763.536 489.828C770.702 496.342 775.369 505.063 779.233 513.95C783.285 523.275 788.576 531.569 794.992 539.561C809.928 558.137 826.865 574.61 844.707 590.272C848.165 593.311 849.717 597.037 846.665 600.596C843.322 604.488 839.822 601.563 837.051 599.003C833.677 595.881 830.573 592.458 827.354 589.169C825.188 586.713 823.146 584.132 820.823 581.833C805.47 566.67 790.93 550.8 778.962 532.786C775.431 527.479 770.994 524.326 764.932 524.867C758.745 525.418 756.787 530.924 755.016 535.96C751.193 546.866 750.683 558.324 749.756 569.688C749.131 577.347 748.923 585.152 744.194 591.688C742.142 594.518 740.35 598.889 735.632 597.214C730.445 595.372 732.174 590.553 732.622 586.963C733.278 581.76 734.976 576.702 736.059 571.551C740.069 552.476 742.298 532.984 749.839 514.762C752.11 509.288 751.36 503.492 750.766 497.82C750.495 495.229 749.683 492.055 746.485 491.982C743.6 491.92 742.007 494.417 741.309 497.196C740.986 498.465 740.569 499.735 740.382 501.025C739.038 509.913 737.746 518.81 736.424 527.697C736.226 529.04 735.872 530.632 734.455 530.819C732.455 531.09 731.976 529.102 731.705 527.729C730.716 522.713 731.184 517.676 731.789 512.639C733.215 500.859 734.84 489.089 732.632 477.225C732.08 474.228 730.778 471.325 727.633 470.982C724.154 470.596 722.956 473.823 722.143 476.559C721.404 479.067 720.914 481.711 720.727 484.312C719.352 504.46 717.55 524.586 718.102 544.827C718.165 547.012 718.185 549.291 717.613 551.362C716.998 553.558 716.383 556.201 713.061 556.097C710.124 556.003 708.488 554.047 707.894 551.737C707.145 548.802 706.936 545.649 707.02 542.6C707.457 526.574 708.467 510.558 708.436 494.532C708.415 485.134 709.592 475.644 707.467 466.288C706.947 463.999 706.082 461.907 703.541 461.626C701.364 461.387 699.833 462.948 698.947 464.8C698.104 466.559 697.062 468.463 697.031 470.316C696.906 478.662 695.198 486.904 695.645 495.302C695.916 500.328 695.687 505.417 695.25 510.443C695.073 512.421 694.677 515.116 691.812 515.397C689.083 515.667 688.271 513.472 687.229 511.453C683.323 503.908 684.896 495.937 685.532 488.142C686.177 480.212 686.479 472.345 684.844 464.529C684.313 462.001 683.907 458.723 680.699 458.525C677.022 458.296 677.188 461.793 676.751 464.269C675.98 468.578 675.532 472.948 674.689 477.246C674.157 480.004 672.168 481.274 669.345 481.003C666.346 480.712 666.002 478.401 666.096 476.164C666.262 472.23 666.689 468.297 667.043 464.363C667.325 461.314 667.887 458.275 667.887 455.226C667.887 452.884 666.543 451.063 664.054 450.512C662.158 450.085 660.867 450.824 659.534 452.354C654.024 458.723 653.284 458.702 647.962 452.229C643.91 447.307 640.129 442.166 636.046 437.275C632.213 432.685 627.692 429.428 621.172 431.103C615.089 432.664 613.183 437.472 612.079 442.842C611.548 445.413 611.454 448.097 610.787 450.626C610.256 452.635 610.183 455.278 607.496 455.871C604.767 456.475 602.288 455.746 600.226 453.717C598.757 452.281 597.747 450.585 597.33 448.628C595.726 440.906 592.976 433.487 592.039 425.567C591.278 419.094 592.789 411.841 588.831 406.294C582.862 397.938 576.904 389.477 569.613 381.943C563.916 389.935 554.104 395.336 555.583 407.064C551.5 407.866 549.5 406.7 549.667 402.038C549.854 396.637 549.042 391.142 554.135 387.448C552.188 385.054 548.969 386.033 547.584 383.774C549.636 381.537 553.365 381.87 555.198 378.613C550.875 377.52 547.261 375.626 542.855 375.782C544.282 379.039 548.136 377.447 549.49 379.997C546.99 381.329 544.449 382.671 541.709 384.128C544.324 387.084 552.573 385.377 547.802 392.63C547.802 394.764 547.802 396.897 547.802 399.041V400.56C547.75 401.434 547.646 402.319 547.657 403.193C547.688 405.462 547.865 407.543 544.449 407.574C541.282 407.605 540.865 405.878 540.782 403.443C540.74 402.35 540.438 401.278 540.282 400.185C539.813 396.783 540.095 392.079 535.605 392.079C532.241 392.079 532.491 396.668 531.772 399.363C524.169 428.013 520.117 457.38 514.565 486.446C513.576 491.607 513.118 496.956 511.441 501.879C509.191 508.466 504.41 509.361 499.233 504.741C497.608 503.284 496.046 501.681 494.765 499.922C489.859 493.179 484.484 486.8 479.953 479.754C475.12 472.241 468.319 468.588 459.09 471.523C450.872 474.135 443.237 477.735 437.092 483.969C432.561 488.569 427.176 491.826 421.447 494.761C415.208 497.955 410.125 496.675 405.271 492.149C398.335 485.665 392.502 478.225 386.69 470.784C379.221 461.22 371.764 461.064 365.639 471.7C353.275 493.168 341.589 515.033 329.871 536.876C322.028 551.487 330.496 558.699 343.172 561.227C350.901 562.768 358.817 563.621 366.691 564.1C377.888 564.776 386.929 569.251 391.918 579.231C396.22 587.827 402.824 592.499 411.448 595.611C420.354 598.816 429.686 597.911 438.779 599.201C449.549 600.731 454.278 604.769 456.424 615.508C457.361 620.191 459.872 622.97 464.069 624.489C466.746 625.457 469.548 626.071 472.277 626.904C477.037 628.34 478.006 631.097 475.089 635.187C472.85 638.33 469.673 640.193 466.184 641.743C463.653 642.867 460.476 642.888 458.851 645.708C451.768 652.972 447.008 661.807 441.873 670.413C436.384 679.602 430.718 688.698 424.812 697.616C420.625 703.933 414.219 705.89 406.948 704.807C404.438 704.433 401.688 703.746 400.772 700.676C399.97 697.991 402.084 696.763 403.49 695.15C413.823 683.297 426.426 673.463 434.946 659.986C438.717 654.034 442.446 648.071 442.04 640.599C442.894 639.412 443.248 638.101 443.05 636.644C443.946 633.324 442.727 630.327 441.675 627.299C441.383 626.362 441.092 625.426 440.79 624.489C440.55 621.981 439.29 620.306 436.665 620.347C434.04 620.389 432.988 622.491 432.249 624.604C430.738 628.943 430.78 633.356 433.311 637.227C436.196 641.629 435.509 645.563 432.53 649.299C422.843 661.412 413.198 673.567 403.168 685.399C400.553 688.49 396.741 690.644 393.241 692.871C391.127 694.224 388.398 696.035 386.127 693.35C384.013 690.842 384.856 687.959 386.638 685.493C393.325 676.179 397.98 665.783 402.855 655.501C403.886 653.336 405.23 651.286 405.147 648.737C406.313 647.529 406.324 646.072 406.094 644.553H406.115Z" fill="#FCFDFD"/>
<path d="M458.861 645.698C460.476 642.878 463.663 642.857 466.194 641.733C469.683 640.182 472.86 638.32 475.1 635.177C478.006 631.097 477.047 628.329 472.287 626.893C469.558 626.071 466.757 625.447 464.08 624.479C459.882 622.96 457.372 620.181 456.434 615.498C454.289 604.758 449.55 600.721 438.79 599.191C429.697 597.9 420.364 598.806 411.459 595.601C402.834 592.499 396.22 587.816 391.929 579.221C386.94 569.241 377.899 564.766 366.702 564.089C358.827 563.611 350.911 562.757 343.183 561.217C330.517 558.688 322.049 551.477 329.881 536.866C341.599 515.033 353.286 493.158 365.65 471.689C371.774 461.054 379.232 461.21 386.7 470.773C392.512 478.214 398.345 485.655 405.282 492.138C410.136 496.675 415.208 497.945 421.458 494.75C427.187 491.816 432.572 488.569 437.103 483.959C443.237 477.715 450.872 474.114 459.101 471.512C468.329 468.588 475.141 472.23 479.964 479.744C484.495 486.789 489.859 493.168 494.775 499.912C496.056 501.671 497.619 503.284 499.244 504.73C504.42 509.361 509.201 508.456 511.451 501.868C513.128 496.936 513.597 491.597 514.576 486.435C520.128 457.37 524.179 428.013 531.783 399.353C532.502 396.658 532.252 392.068 535.616 392.068C540.116 392.068 539.824 396.762 540.293 400.175C540.438 401.268 540.751 402.34 540.793 403.432C540.876 405.857 541.293 407.595 544.459 407.564C547.875 407.533 547.698 405.451 547.667 403.183C547.657 402.308 547.761 401.434 547.813 400.55C549.334 406.301 551.924 408.469 555.583 407.054C554.104 395.326 563.916 389.914 569.613 381.932C576.894 389.467 582.862 397.927 588.831 406.284C592.789 411.831 591.278 419.084 592.039 425.557C592.966 433.487 595.716 440.907 597.33 448.618C597.736 450.574 598.757 452.271 600.226 453.707C602.288 455.736 604.767 456.454 607.496 455.861C610.183 455.268 610.256 452.624 610.787 450.616C611.454 448.087 611.548 445.413 612.079 442.832C613.183 437.462 615.089 432.654 621.172 431.093C627.682 429.428 632.213 432.685 636.046 437.264C640.129 442.155 643.91 447.296 647.962 452.218C653.284 458.691 654.024 458.712 659.534 452.343C660.856 450.814 662.148 450.075 664.054 450.501C666.544 451.053 667.898 452.874 667.887 455.216C667.887 458.265 667.325 461.303 667.043 464.353C666.689 468.286 666.252 472.21 666.096 476.154C666.002 478.391 666.346 480.701 669.345 480.993C672.168 481.263 674.158 479.994 674.689 477.236C675.522 472.938 675.97 468.567 676.751 464.259C677.189 461.782 677.032 458.286 680.699 458.514C683.907 458.712 684.313 462.001 684.844 464.519C686.48 472.334 686.177 480.191 685.532 488.132C684.896 495.926 683.323 503.898 687.229 511.442C688.271 513.461 689.083 515.657 691.812 515.387C694.677 515.106 695.083 512.41 695.25 510.433C695.687 505.407 695.916 500.328 695.645 495.291C695.198 486.893 696.906 478.651 697.031 470.305C697.062 468.453 698.104 466.538 698.947 464.79C699.833 462.937 701.353 461.376 703.541 461.616C706.082 461.897 706.947 463.999 707.467 466.278C709.592 475.623 708.415 485.124 708.436 494.521C708.478 510.537 707.457 526.563 707.02 542.589C706.936 545.639 707.145 548.792 707.895 551.726C708.488 554.037 710.124 555.993 713.061 556.087C716.384 556.191 717.008 553.548 717.613 551.352C718.185 549.281 718.165 547.002 718.102 544.816C717.56 524.586 719.352 504.449 720.727 484.302C720.904 481.69 721.394 479.057 722.143 476.549C722.956 473.812 724.154 470.586 727.633 470.971C730.778 471.315 732.07 474.218 732.632 477.215C734.84 489.079 733.216 500.849 731.789 512.629C731.174 517.655 730.705 522.702 731.705 527.718C731.976 529.102 732.445 531.08 734.455 530.809C735.872 530.611 736.226 529.019 736.424 527.687C737.746 518.8 739.038 509.902 740.382 501.015C740.58 499.725 740.996 498.455 741.309 497.185C742.007 494.407 743.6 491.909 746.485 491.972C749.683 492.045 750.495 495.229 750.766 497.81C751.36 503.481 752.11 509.278 749.839 514.752C742.298 532.974 740.069 552.476 736.059 571.541C734.976 576.692 733.268 581.749 732.622 586.953C732.174 590.543 730.445 595.361 735.632 597.203C740.35 598.879 742.142 594.518 744.194 591.677C748.923 585.142 749.131 577.337 749.756 569.678C750.683 558.314 751.193 546.866 755.016 535.95C756.787 530.903 758.745 525.408 764.932 524.857C770.994 524.315 775.442 527.469 778.962 532.776C790.93 550.779 805.471 566.66 820.824 581.822C823.146 584.122 825.188 586.703 827.354 589.159C823.032 591.147 823.698 595.184 823.667 598.733C823.553 611.897 823.625 625.062 823.615 638.236C823.615 644.161 820.733 647.131 814.97 647.144C792.347 647.144 769.723 647.144 747.1 647.144C747.579 641.525 743.84 633.772 754.485 633.293C755.651 633.241 756.995 629.578 755.974 628.132C752.256 622.907 746.985 629.703 742.465 626.8C740.85 625.759 739.632 628.1 739.673 630.109C739.694 631.202 739.673 632.294 739.663 633.387C739.569 637.976 739.465 642.555 739.371 647.144C737.361 646.936 735.538 647.519 733.809 648.476C730.747 648.123 727.664 646.468 725.279 650.537C724.185 652.4 721.289 651.869 719.383 650.287C717.967 649.111 716.915 647.3 717.404 645.698C718.175 643.169 720.717 644.501 722.466 644.366C725.289 644.147 728.143 644.293 730.987 644.303C732.601 644.303 733.945 644.126 734.497 642.191C735.903 637.227 731.164 628.548 725.914 626.675C720.269 624.656 714.686 627.205 711.853 632.991C709.644 637.529 710.061 642.347 710.124 647.134C707.634 647.613 704.041 645.635 703.364 650.152C701.583 648.3 702.01 645.854 702.437 643.918C703.364 639.787 698.781 633.543 706.874 631.826C707.936 631.597 707.707 627.903 706.968 627.799C700.103 626.883 703.322 620.774 701.843 617.111C694.802 619.546 691.812 627.736 693.25 630.473C696.333 636.322 694.875 641.618 695.333 647.134C693.323 646.988 691.302 645.105 689.292 647.134C689.844 642.982 689.906 638.788 688.719 634.771C687.334 630.109 684.646 626.029 679.261 626.186C675.303 626.3 671.616 628.485 667.273 626.779C664.835 625.821 664.429 628.621 664.408 630.712C664.346 636.186 664.221 641.65 664.117 647.124C661.908 647.124 659.711 647.124 657.503 647.124C657.43 643.18 657.357 639.225 657.273 635.281C657.19 630.879 655.471 627.497 650.899 626.487C646.264 625.457 641.608 625.363 638.098 629.328C636.837 630.754 635.088 632.971 636.546 634.542C637.91 636.009 640.733 636.311 642.4 634.178C644.264 631.805 646.451 631.659 648.774 632.898C649.545 633.304 650.336 634.771 650.201 635.593C649.691 638.767 646.608 638.58 644.493 638.944C637.504 640.151 633.931 643.825 634.525 651.078C633.296 649.247 632.921 646.343 629.588 647.124C629.494 644.72 629.338 642.316 629.328 639.912C629.234 626.664 624.807 623.605 612.548 628.777C612.548 625.811 612.548 623.001 612.548 620.191C612.548 617.819 613.058 615.394 609.152 615.373C605.204 615.352 605.788 617.808 605.767 620.171C605.694 629.162 605.621 638.143 605.548 647.134C603.423 646.697 601.298 646.249 599.184 645.812C596.268 642.68 593.466 638.913 590.685 646.062C589.57 648.934 586.914 650.298 583.779 650.225C580.383 650.152 578.009 648.435 576.654 645.313C574.644 640.692 575.03 635.853 575.53 631.066C575.967 626.852 577.988 623.428 582.331 622.314C586.206 621.315 589.299 623.001 591.018 626.55C592.685 629.984 595.08 628.475 597.09 627.528C599.944 626.186 597.882 624.031 597.143 622.595C594.664 617.767 590.601 614.842 585.091 614.78C578.956 614.707 574.092 617.267 570.988 622.783C566.853 630.13 567.364 637.924 568.718 645.802C565.343 646.874 561.906 647.165 558.354 647.155C528.877 647.082 499.4 647.082 469.913 647.155C466.132 647.165 462.486 646.791 458.903 645.656L458.861 645.698ZM595.476 531.662C596.247 525.98 593.924 524.534 589.581 524.992C586.758 525.294 583.852 525.262 581.008 524.992C576.582 524.586 575.446 526.48 575.519 530.705C575.759 545.212 575.613 559.719 575.613 574.225C575.613 588.337 575.613 588.17 589.935 588.129C594.174 588.118 595.643 586.994 595.538 582.613C595.257 571.187 595.424 559.76 595.455 548.323C595.476 542.787 598.819 539.488 604.944 539.249C610.392 539.03 613.475 541.518 614.079 547.272C615.016 556.274 614.61 565.276 614.662 574.277C614.745 588.389 614.683 588.181 629.026 588.149C633.546 588.149 634.598 586.609 634.515 582.447C634.296 570.802 634.588 559.146 634.358 547.501C634.275 543.464 635.994 541.507 639.546 540.29C648.441 537.24 653.19 540.342 653.347 549.78C653.524 560.77 653.367 571.759 653.482 582.748C653.503 584.518 652.399 587.473 655.159 587.702C660.617 588.149 666.137 588.004 671.616 587.785C673.751 587.702 673.314 585.537 673.314 584.112C673.283 569.605 673.71 555.077 672.96 540.602C672.304 527.802 660.659 520.548 648.357 524.315C643.879 525.689 639.837 528.01 636.39 531.028C633.306 533.723 631.9 533.452 629.39 530.101C624.568 523.66 617.62 522.286 609.902 523.941C604.809 525.033 601.017 528.52 595.466 531.662H595.476ZM498.962 563.309C498.962 557.159 499.035 551.019 498.952 544.868C498.796 533.962 494.015 527.698 483.38 525.002C471.423 521.963 459.455 522.786 447.529 525.512C445.696 525.928 443.925 526.345 443.915 528.572C443.894 532.505 442.758 537.282 444.581 540.113C446.31 542.818 450.216 538.739 453.351 538.437C455.518 538.219 457.643 537.344 459.809 537.272C465.475 537.084 471.277 536.314 476.391 539.852C478.36 541.216 479.631 543.016 479.026 545.399C478.422 547.772 476.089 546.742 474.537 546.991C468.256 548.001 461.84 548.375 455.674 549.832C448.164 551.612 441.706 555.265 439.332 563.444C436.769 572.259 439.3 580.657 446.029 585.922C452.685 591.126 463.611 591.23 472.225 586.474C474.787 585.059 478.412 578.607 480.172 587.338C480.256 587.754 482.13 587.993 483.182 588.014C487.14 588.087 491.098 587.879 495.046 588.087C498.4 588.264 499.077 586.651 499.025 583.727C498.89 576.921 498.983 570.115 498.983 563.309H498.962ZM564.812 535.419C566.957 528.686 562.156 526.646 555.927 525.065C547.636 522.963 539.47 522.754 531.189 524.69C516.44 528.135 507.608 539.613 507.087 555.983C506.566 572.269 514.815 583.841 529.898 588.045C539.459 590.72 549 590.73 558.395 587.473C560.864 586.62 564.728 586.776 564.687 582.863C564.635 578.159 566.603 572.675 563.531 569.033C562.187 567.44 558.52 572.238 555.448 573.299C553.375 574.017 551.406 575.12 549.292 575.568C539.324 577.691 530.585 573.164 528.523 564.193C526.533 555.577 526.45 546.544 534.147 540.539C541.688 534.649 549.834 537.011 557.604 541.372C559.625 542.506 561.479 545.659 563.697 544.421C566.187 543.026 564.374 539.624 564.801 537.136C564.843 536.918 564.801 536.699 564.801 535.419H564.812Z" fill="#1A7CA2"/>
<path d="M399.897 387.916C396.272 392.88 398.636 399.488 398.167 405.888C397.428 415.931 386.46 423.569 376.253 422.32C373.659 421.998 370.93 421.634 368.597 420.551C362.899 417.929 357.473 415.972 351.963 420.957C351.14 421.696 349.452 421.675 348.161 421.675C339.922 421.706 335.11 414.973 328.85 411.289C325.933 409.572 327.183 404.681 328.579 401.414C329.839 398.468 329.371 397.032 326.59 395.138C320.361 390.903 320.215 386.293 326.048 381.318C328.642 379.112 329.798 377.406 329.225 373.69C328.423 368.497 331.923 365.261 336.599 363.305C341.099 361.411 345.349 361.483 348.515 365.5C350.567 368.112 352.4 369.392 355.462 367.394C355.806 367.176 356.494 366.978 356.723 367.155C362.514 371.672 367.691 366.78 373.18 366.27C384.898 365.188 400.219 377.177 399.928 387.927L399.897 387.916Z" fill="#FDFDFF"/>
<path d="M717.977 434.767C712.884 426.754 706.739 419.282 705.395 409.395C703.843 398.031 703.437 386.855 712.217 377.822C720.498 369.309 730.706 367.904 741.423 371.734C752.1 375.553 758.162 383.577 758.953 395.034C759.943 409.323 755.308 421.79 745.382 432.966C749.871 434.08 755.881 434.215 753.87 440.376C751.006 449.18 744.215 441.77 739.34 442.884C738.361 445.537 741.069 447.307 740.726 450.73C735.351 450.73 729.768 451.157 724.279 450.606C719.206 450.096 724.102 446.526 722.581 444.143C720.175 443.363 717.634 445.61 714.873 445.298C711.644 444.934 707.624 445.34 707.405 440.75C707.207 436.609 710.395 435.287 714.04 435.016C715.353 434.923 716.665 434.85 717.977 434.767C718.081 434.944 718.154 435.152 718.3 435.266C718.373 435.329 718.581 435.214 718.727 435.183C718.477 435.048 718.217 434.912 717.967 434.777L717.977 434.767Z" fill="#FCFDFD"/>
<path d="M673.314 726.287C690.614 726.359 700.77 736.933 700.603 754.686C700.426 772.596 690.239 782.971 673.001 782.794C655.773 782.618 645.503 771.972 645.586 754.364C645.67 736.735 656.054 726.214 673.314 726.287ZM684.5 752.334C684.229 751.065 684.021 748.161 683.011 745.57C679.98 737.817 670.095 736.329 664.866 742.677C660.669 747.776 660.627 761.097 664.835 766.29C666.71 768.6 669.064 769.88 672.147 770.057C680.438 770.525 684.646 765.114 684.5 752.345V752.334Z" fill="#F9FBFC"/>
<path d="M526.689 747.506C526.689 751.897 526.773 756.289 526.669 760.68C526.387 772.939 519.992 780.099 507.962 782.295C501.941 783.388 496.077 782.597 490.359 781.233C482.464 779.36 476.891 772.377 476.443 763.22C475.912 752.49 476.287 741.709 476.172 730.959C476.152 728.482 477.068 727.671 479.578 727.4C491.723 726.079 492.192 726.391 492.192 738.181C492.192 745.643 492.067 753.115 492.234 760.576C492.369 766.976 495.556 770.067 501.493 770.057C507.42 770.057 510.534 766.976 510.639 760.483C510.784 751.044 510.836 741.595 510.607 732.166C510.514 728.389 511.805 727.411 515.472 727.369C526.7 727.223 526.7 727.067 526.7 738.296C526.7 741.366 526.7 744.446 526.7 747.516L526.689 747.506Z" fill="#FDFDFF"/>
<path d="M558.708 726.412C570.665 726.235 577.519 730.127 580.018 738.067C580.956 741.043 580.696 742.927 577.175 742.802C572.217 742.635 566.405 745.841 563.155 738.691C562.02 736.194 558.603 736.391 555.927 736.797C553.77 737.12 552.198 738.431 552.052 740.637C551.916 742.698 553.625 743.77 555.322 744.269C559.312 745.456 563.405 746.309 567.405 747.485C577.831 750.565 583.018 756.476 582.643 764.687C582.227 773.918 575.904 780.651 565.207 782.16C555.729 783.502 546.146 783.71 539.126 775.406C536.595 772.409 533.439 767.736 535.782 764.947C538.657 761.523 544.448 763.397 548.979 763.313C550.833 763.282 550.698 765.613 551.302 766.904C552.875 770.234 555.51 772.034 559.031 772.19C562.239 772.336 565.322 771.514 566.342 767.903C567.415 764.083 564.988 762.096 561.864 761.024C558.135 759.744 554.218 759.005 550.489 757.735C540.355 754.291 535.97 748.453 537.032 740.159C538.001 732.531 544.782 727.254 554.76 726.422C556.072 726.307 557.395 726.412 558.708 726.412Z" fill="#F9FBFC"/>
<path d="M638.556 743.125C635.359 743.874 632.119 744.425 629.026 745.435C626.328 746.319 624.693 746.059 623.172 743.322C620.995 739.43 617.287 738.265 612.954 739.305C608.507 740.377 606.569 743.686 605.746 747.797C604.788 752.595 604.986 757.434 605.84 762.221C606.611 766.529 609.059 769.36 613.621 769.942C618.245 770.525 622.11 769.203 623.818 764.614C627.411 754.988 633.098 762.595 637.004 763.573C642.41 764.926 638.015 769.12 636.911 771.41C632.755 780.016 623.464 783.981 612.235 782.638C600.497 781.223 593.081 775.302 590.227 764.853C588.269 757.704 588.279 750.492 590.32 743.364C593.508 732.27 602.476 726.245 615.496 726.276C627.984 726.307 635.244 731.521 638.546 743.114L638.556 743.125Z" fill="#F9FBFC"/>
<path d="M440.185 726.287C454.872 726.307 462.684 731.105 466.058 739.555C467.163 742.313 466.871 743.291 463.84 743.926C458.497 745.06 453.861 747.422 449.164 741.095C445.258 735.84 436.269 739.43 434.394 746.455C432.905 752.053 433.103 757.839 434.488 763.438C435.477 767.434 438.29 769.682 442.56 770.026C446.987 770.379 450.549 768.943 452.143 764.697C455.684 755.29 461.33 762.491 465.298 763.532C470.787 764.978 466.392 769.11 465.298 771.368C461.184 779.839 453.539 782.753 444.612 782.774C434.582 782.805 425.77 780.047 420.916 770.369C415.791 760.139 415.666 749.514 420.427 739.201C424.937 729.429 433.665 726.38 440.196 726.297L440.185 726.287Z" fill="#F9FBFC"/>
<path d="M664.096 647.144C664.2 641.671 664.315 636.207 664.388 630.733C664.408 628.642 664.815 625.842 667.252 626.8C671.595 628.506 675.283 626.321 679.241 626.206C684.626 626.05 687.313 630.119 688.698 634.792C689.896 638.809 689.823 643.003 689.271 647.155C685.219 657.926 682.011 659.518 672.137 655.563C670.981 658.28 671.658 661.12 671.606 663.868C671.554 666.532 671.481 668.551 667.856 668.509C664.034 668.468 664.419 666.043 664.377 663.608C664.294 658.123 664.179 652.629 664.075 647.144H664.096ZM671.512 641.077C671.835 645.417 671.252 651.598 677.522 651.359C683.24 651.13 682.47 645.115 682.511 640.796C682.553 636.904 681.907 632.367 677.335 632.211C672.179 632.024 671.762 636.79 671.512 641.077Z" fill="#F5F9FB"/>
<path d="M568.687 645.833C567.343 637.955 566.822 630.161 570.957 622.814C574.061 617.298 578.925 614.738 585.06 614.811C590.57 614.884 594.643 617.798 597.112 622.626C597.851 624.063 599.903 626.217 597.059 627.559C595.049 628.506 592.643 630.015 590.987 626.581C589.268 623.022 586.175 621.346 582.3 622.346C577.957 623.459 575.936 626.883 575.499 631.097C575.009 635.884 574.613 640.724 576.624 645.344C577.988 648.466 580.352 650.173 583.748 650.256C586.883 650.329 589.529 648.966 590.654 646.093C593.435 638.944 596.237 642.711 599.153 645.844C592.914 657.998 583.342 661.297 574.645 654.377C571.78 652.098 570.541 648.778 568.676 645.844L568.687 645.833Z" fill="#F5F9FB"/>
<path d="M278.417 616.591C279.156 618.849 280.229 621.066 280.563 623.386C281.615 630.629 286.802 632.221 292.822 632.565C296.311 632.763 299.832 632.388 303.342 632.409C312.258 632.461 313.643 633.72 315.31 642.774C315.581 644.251 316.133 645.688 316.549 647.144C305.436 647.144 294.312 647.03 283.198 647.196C278.802 647.259 276.573 645.75 276.979 641.15C277.709 632.981 275.396 624.635 278.417 616.591Z" fill="#1A7CA2"/>
<path d="M605.527 647.145C605.6 638.153 605.673 629.172 605.746 620.181C605.767 617.819 605.184 615.363 609.131 615.384C613.037 615.404 612.516 617.829 612.527 620.202C612.527 623.012 612.527 625.821 612.527 628.787C624.786 623.615 629.223 626.675 629.307 639.922C629.328 642.326 629.473 644.73 629.567 647.134C629.463 649.528 629.317 651.911 629.276 654.304C629.234 656.75 627.599 657.031 625.734 657.072C623.766 657.125 622.287 656.635 622.214 654.273C622.13 651.453 621.974 648.633 621.849 645.802C621.953 643.617 622.245 641.421 622.12 639.246C621.964 636.332 622.786 632.45 618.193 632.284C613.693 632.107 612.912 635.874 612.725 639.131C612.391 644.824 612.641 650.548 612.652 656.25C608.27 657.173 605.899 654.131 605.538 647.124L605.527 647.145Z" fill="#F9FBFC"/>
<path d="M634.504 651.109C633.91 643.856 637.483 640.182 644.472 638.975C646.587 638.611 649.67 638.788 650.18 635.624C650.315 634.792 649.524 633.335 648.753 632.929C646.43 631.701 644.243 631.836 642.379 634.209C640.712 636.342 637.889 636.041 636.525 634.573C635.067 633.012 636.816 630.785 638.077 629.36C641.587 625.384 646.253 625.488 650.878 626.519C655.44 627.528 657.159 630.91 657.252 635.312C657.336 639.256 657.398 643.211 657.482 647.155C657.419 648.248 657.107 649.392 657.336 650.423C658.638 656.281 658.232 659.851 651.18 655.449C650.024 654.731 649.201 655.792 648.222 656.167C640.702 659.008 638.4 658.134 634.504 651.12V651.109ZM648.066 643.471C645.691 644.616 641.774 644.022 641.504 648.258C641.358 650.61 643.035 652.077 645.118 652.015C648.42 651.911 650.045 649.59 650.388 646.458C650.545 644.99 650.743 643.211 648.066 643.471Z" fill="#F5F9FB"/>
<path d="M710.113 647.144C710.05 642.357 709.623 637.529 711.842 633.002C714.664 627.205 720.258 624.666 725.903 626.685C731.153 628.569 735.902 637.237 734.486 642.201C733.934 644.137 732.59 644.324 730.976 644.314C728.132 644.303 725.278 644.158 722.455 644.376C720.706 644.512 718.164 643.18 717.393 645.708C716.904 647.311 717.956 649.122 719.372 650.298C721.268 651.879 724.174 652.41 725.268 650.547C727.653 646.478 730.736 648.123 733.798 648.487C732.673 654.44 728.872 657.395 723.018 657.697C715.623 658.082 712.331 653.212 710.113 647.155V647.144ZM717.341 639.225C719.341 639.225 721.278 639.329 723.205 639.194C724.57 639.1 726.507 639.974 727.08 637.997C727.684 635.926 726.684 634.178 724.955 632.96C721.403 630.452 718.539 632.679 717.341 639.225Z" fill="#F4F8FA"/>
<path d="M695.322 647.144C694.874 641.629 696.322 636.332 693.239 630.483C691.802 627.747 694.781 619.546 701.832 617.121C703.311 620.795 700.093 626.893 706.957 627.809C707.707 627.913 707.925 631.607 706.863 631.836C698.77 633.553 703.353 639.797 702.426 643.929C701.988 645.864 701.572 648.31 703.353 650.162C704.436 651.671 707.946 650.142 707.54 653.763C707.311 655.782 706.79 657.072 704.78 657.468C701.853 658.04 699.124 657.697 697.114 655.23C695.176 652.858 695.749 649.871 695.322 647.134V647.144Z" fill="#FCFDFD"/>
<path d="M739.361 647.145C739.454 642.555 739.559 637.976 739.652 633.387C739.673 632.294 739.684 631.202 739.663 630.109C739.621 628.101 740.84 625.769 742.454 626.8C746.975 629.703 752.256 622.897 755.964 628.132C756.984 629.578 755.641 633.241 754.474 633.293C743.839 633.783 747.568 641.525 747.089 647.145C746.996 649.32 746.777 651.505 746.839 653.67C746.912 656.271 745.6 657.083 743.235 657.135C740.767 657.187 739.621 656.167 739.631 653.67C739.642 651.495 739.444 649.32 739.34 647.145H739.361Z" fill="#F5F9FB"/>
<path d="M357.816 433.643C353.765 433.591 351.046 431.936 350.9 427.961C350.744 423.715 353.358 421.477 357.493 421.477C361.576 421.477 364.285 423.559 364.18 427.857C364.076 431.884 361.368 433.497 357.816 433.643Z" fill="#F5F9FB"/>
<path d="M612.652 656.271C612.652 650.558 612.402 644.834 612.725 639.152C612.912 635.895 613.683 632.128 618.193 632.305C622.787 632.481 621.964 636.363 622.12 639.267C622.234 641.442 621.953 643.637 621.849 645.823C611.808 643.18 614.537 651.755 612.652 656.271Z" fill="#1A7CA2"/>
<path d="M349.453 444.996C348.953 448.961 346.922 450.835 343.297 450.699C340.089 450.574 337.808 449.086 337.756 445.59C337.704 441.906 339.756 440.043 343.401 439.856C347.266 439.658 348.745 442.02 349.463 444.996H349.453Z" fill="#F5F9FB"/>
<path d="M584.935 325.425C579.456 331.148 573.987 336.872 568.509 342.595C567.957 342.096 567.405 341.586 566.853 341.087C572.31 335.29 577.768 329.504 583.226 323.708C583.799 324.28 584.372 324.852 584.945 325.425H584.935Z" fill="#F4F8FA"/>
<path d="M536.876 335.633C534.053 328.193 531.22 320.752 528.397 313.311C529.147 313.03 529.897 312.739 530.647 312.458C533.501 319.899 536.355 327.329 539.22 334.77C538.438 335.061 537.657 335.342 536.886 335.633H536.876Z" fill="#E0EDF2"/>
<path d="M557.76 335.217C560.468 327.485 563.166 319.763 565.874 312.031C566.551 312.271 567.217 312.51 567.894 312.749C565.759 320.679 563.03 328.401 559.885 335.966C559.176 335.717 558.468 335.467 557.76 335.217Z" fill="#E0EDF2"/>
<path d="M335.641 448.805C335.474 451.605 333.558 452.885 330.954 452.916C328.412 452.947 326.079 451.938 326.038 448.951C326.006 446.37 327.839 445.257 330.318 445.142C332.964 445.017 335.026 445.746 335.641 448.805Z" fill="#F4F8FA"/>
<path d="M592.81 341.638C586.873 345.936 580.363 349.245 573.874 352.596C573.478 351.909 573.082 351.212 572.676 350.525C579.009 346.914 585.341 343.303 591.685 339.692C592.06 340.337 592.435 340.993 592.81 341.638Z" fill="#E0EDF2"/>
<path d="M513.201 326.111C518.534 331.544 523.857 336.966 528.252 341.44C522.95 338.069 518.44 331.762 513.201 326.111Z" fill="#E0EDF2"/>
<path d="M505.473 342.054C512.514 343.522 518.076 347.643 523.628 351.764C516.618 350.234 510.931 346.342 505.473 342.054Z" fill="#E0EDF2"/>
<path d="M548.542 308.774V332.657C548.25 332.657 547.948 332.657 547.656 332.657V308.784C547.948 308.784 548.25 308.784 548.542 308.774Z" fill="white"/>
<path d="M348.505 616.768C348.505 614.603 348.515 612.428 348.526 610.263C350.151 612.438 350.161 614.603 348.505 616.768Z" fill="#2880A5"/>
<path d="M373.837 629.869C373.816 627.736 373.785 625.613 373.764 623.49C375.211 625.603 375.18 627.726 373.837 629.869Z" fill="#2880A5"/>
<path d="M303.581 579.928C305.654 578.503 307.737 578.544 309.82 579.928C307.737 579.928 305.664 579.928 303.581 579.928Z" fill="#2880A5"/>
<path d="M378.742 613.927C379.857 615.612 379.878 617.486 379.721 619.4C378.055 617.819 378.732 615.81 378.742 613.927Z" fill="#2880A5"/>
<path d="M407.438 635.323C407.657 637.206 407.667 639.048 406.428 640.651C406.501 638.83 405.824 636.852 407.438 635.323Z" fill="#2180A4"/>
<path d="M370.68 614.27C369.243 612.501 369.378 610.773 370.784 609.056C370.753 610.794 370.722 612.532 370.68 614.27Z" fill="#2880A5"/>
<path d="M380.013 621.971C381.107 623.605 381.252 625.426 381.002 627.31C379.409 625.769 380.055 623.803 380.013 621.971Z" fill="#2880A5"/>
<path d="M406.428 628.548C407.698 629.661 407.636 631.108 407.428 632.596C406.094 631.493 406.386 629.994 406.428 628.548Z" fill="#2180A4"/>
<path d="M443.06 636.644C443.258 638.101 442.904 639.412 442.05 640.599C442.029 639.194 441.758 637.716 443.06 636.644Z" fill="#2180A4"/>
<path d="M276.979 610.243C278.26 611.283 278.187 612.667 277.979 614.093C276.729 613.042 277.02 611.596 276.979 610.243Z" fill="#1A7CA2"/>
<path d="M406.115 644.553C406.344 646.073 406.333 647.54 405.167 648.737C405.073 647.249 404.761 645.708 406.115 644.553Z" fill="#2180A4"/>
<path d="M307.279 586.079C306.466 585.756 305.654 585.423 304.831 585.1C305.643 585.423 306.456 585.756 307.279 586.079Z" fill="#2880A5"/>
<path d="M440.8 624.489C441.091 625.426 441.383 626.362 441.685 627.299C440.779 626.56 440.695 625.561 440.8 624.489Z" fill="#2180A4"/>
<path d="M320.601 584.164C321.673 583.966 322.569 584.278 323.288 585.1C322.392 584.788 321.496 584.476 320.601 584.164Z" fill="#2880A5"/>
<path d="M555.593 407.054C551.927 408.469 549.337 406.301 547.823 400.55C547.823 400.04 547.823 399.54 547.823 399.03C549.312 396.897 549.312 394.764 547.823 392.62C552.593 385.367 544.344 387.073 541.729 384.118C544.469 382.661 547.01 381.318 549.51 379.986C548.156 377.437 544.302 379.029 542.875 375.772C547.271 375.605 550.895 377.51 555.218 378.602C553.374 381.86 549.646 381.527 547.604 383.764C548.989 386.022 552.208 385.044 554.156 387.437C549.052 391.132 549.875 396.627 549.687 402.028C549.521 406.69 551.531 407.855 555.603 407.054H555.593Z" fill="#5E9EBB"/>
<path d="M547.823 392.63C549.313 394.764 549.313 396.897 547.823 399.041C547.823 396.907 547.823 394.774 547.823 392.63Z" fill="#1A7CA2"/>
<path d="M595.476 531.662C601.028 528.509 604.819 525.023 609.912 523.941C617.631 522.286 624.578 523.67 629.401 530.101C631.911 533.452 633.317 533.723 636.4 531.028C639.848 527.999 643.899 525.679 648.368 524.315C660.669 520.548 672.314 527.802 672.97 540.602C673.71 555.077 673.283 569.605 673.324 584.112C673.324 585.537 673.772 587.702 671.627 587.785C666.148 588.004 660.627 588.16 655.169 587.702C652.409 587.473 653.513 584.518 653.492 582.748C653.378 571.759 653.534 560.77 653.357 549.78C653.201 540.342 648.451 537.251 639.556 540.29C635.994 541.507 634.286 543.464 634.369 547.501C634.598 559.146 634.306 570.802 634.525 582.447C634.608 586.609 633.556 588.139 629.036 588.149C614.704 588.17 614.766 588.378 614.672 574.277C614.62 565.276 615.027 556.274 614.089 547.272C613.495 541.528 610.402 539.041 604.954 539.249C598.83 539.488 595.486 542.787 595.466 548.323C595.434 559.75 595.268 571.187 595.549 582.613C595.653 586.994 594.195 588.118 589.945 588.129C575.623 588.17 575.623 588.337 575.623 574.225C575.623 559.719 575.769 545.212 575.53 530.705C575.457 526.47 576.602 524.586 581.019 524.992C583.852 525.252 586.758 525.283 589.591 524.992C593.934 524.524 596.247 525.98 595.486 531.662H595.476Z" fill="#FBFDFD"/>
<path d="M498.972 563.309C498.972 570.115 498.878 576.921 499.014 583.727C499.076 586.651 498.389 588.264 495.035 588.087C491.087 587.879 487.129 588.087 483.171 588.014C482.119 587.993 480.244 587.754 480.161 587.338C478.401 578.596 474.776 585.059 472.214 586.474C463.61 591.23 452.674 591.126 446.018 585.923C439.279 580.657 436.748 572.259 439.32 563.444C441.706 555.265 448.164 551.612 455.663 549.832C461.829 548.375 468.245 548.001 474.526 546.991C476.078 546.742 478.411 547.782 479.015 545.399C479.62 543.016 478.359 541.216 476.38 539.852C471.266 536.314 465.464 537.084 459.798 537.272C457.632 537.345 455.517 538.219 453.34 538.437C450.205 538.749 446.299 542.818 444.57 540.113C442.758 537.272 443.883 532.495 443.903 528.572C443.914 526.355 445.695 525.939 447.518 525.512C459.444 522.786 471.412 521.964 483.369 525.002C494.004 527.708 498.785 533.973 498.941 544.868C499.024 551.019 498.951 557.159 498.962 563.309H498.972ZM479.099 565.016C478.088 563.58 481.807 558.98 476.401 558.824C471.839 558.688 467.204 559.302 463.027 561.363C457.965 563.871 456.986 572.415 461.621 574.912C465.808 577.171 470.381 576.609 474.839 574.767C479.047 573.018 479.953 569.865 479.099 565.016Z" fill="#F9FBFC"/>
<path d="M564.822 535.419C564.822 536.699 564.853 536.918 564.822 537.136C564.395 539.624 566.207 543.037 563.718 544.421C561.499 545.659 559.645 542.496 557.624 541.372C549.854 537.011 541.709 534.66 534.168 540.539C526.481 546.544 526.564 555.577 528.543 564.194C530.605 573.164 539.344 577.701 549.312 575.568C551.427 575.12 553.395 574.007 555.468 573.299C558.541 572.238 562.207 567.451 563.551 569.033C566.624 572.675 564.655 578.149 564.707 582.863C564.749 586.776 560.884 586.62 558.416 587.473C549.021 590.73 539.48 590.71 529.918 588.045C514.836 583.831 506.586 572.269 507.107 555.983C507.628 539.603 516.461 528.124 531.21 524.69C539.48 522.754 547.656 522.963 555.947 525.065C562.176 526.646 566.978 528.686 564.832 535.419H564.822Z" fill="#F9FBFC"/>
<path d="M717.977 434.767C718.227 434.902 718.487 435.037 718.737 435.173C718.591 435.204 718.383 435.318 718.31 435.256C718.164 435.141 718.091 434.923 717.987 434.756L717.977 434.767Z" fill="#187CA2"/>
<path d="M684.5 752.345C684.635 765.114 680.438 770.525 672.147 770.057C669.064 769.88 666.71 768.6 664.835 766.29C660.627 761.097 660.668 747.787 664.866 742.677C670.095 736.329 679.979 737.817 683.01 745.57C684.021 748.161 684.24 751.065 684.5 752.334V752.345Z" fill="#1E7EA3"/>
<path d="M671.512 641.078C671.762 636.78 672.178 632.024 677.334 632.211C681.907 632.378 682.553 636.905 682.511 640.797C682.459 645.115 683.23 651.13 677.522 651.359C671.262 651.609 671.835 645.428 671.512 641.078Z" fill="#2180A4"/>
<path d="M648.076 643.471C650.753 643.211 650.565 644.98 650.399 646.458C650.055 649.59 648.43 651.911 645.128 652.015C643.035 652.077 641.358 650.61 641.514 648.258C641.785 644.012 645.701 644.616 648.076 643.471Z" fill="#2880A5"/>
<path d="M717.342 639.225C718.54 632.669 721.404 630.442 724.956 632.96C726.674 634.178 727.685 635.926 727.081 637.997C726.508 639.974 724.57 639.1 723.206 639.194C721.289 639.329 719.352 639.225 717.342 639.225Z" fill="#2880A5"/>
<path d="M479.099 565.026C479.943 569.876 479.047 573.029 474.839 574.777C470.391 576.629 465.819 577.181 461.621 574.923C456.986 572.415 457.955 563.871 463.027 561.373C467.204 559.313 471.839 558.688 476.401 558.834C481.807 559.001 478.099 563.59 479.099 565.026Z" fill="#1E7EA3"/>
</g>
</g>
<defs>
<clipPath id="clip0_2000_4527">
<rect width="1102" height="1087" fill="white"/>
</clipPath>
</defs>
</svg>
