<svg width="133" height="149" viewBox="0 0 133 149" fill="none" xmlns="http://www.w3.org/2000/svg">
<path d="M114.346 28.4791C109.993 22.0059 86.5415 23.811 86.5415 23.811C85.9624 24.6737 79.7954 26.0871 75.4623 37.2663C71.1291 48.4454 48.2094 37.4357 38.2444 46.8444C38.2444 46.8444 35.4683 49.7762 35.6108 53.6801C40.9492 54.035 51.9108 55.0997 56.2527 62.5524C60.5946 70.0052 78.247 84.3367 92.4116 71.537C106.576 58.7373 108.877 71.537 108.877 71.537C108.877 71.537 118.698 34.9522 114.346 28.4791Z" fill="#AABBCC"/>
<path d="M68.6372 4.31179L69.4151 3.22599C69.4151 3.22599 68.6157 0.577588 69.6393 0.467583C70.6629 0.357578 72.4294 0.487208 72.5104 1.26509C72.5914 2.04298 72.0566 3.25841 71.4732 3.4853C70.8898 3.71219 70.6953 4.8952 70.6953 4.8952L68.6372 4.31179Z" fill="#97A6B7"/>
<path d="M86.7651 41.2674C86.3225 41.6425 85.8378 41.9629 85.3087 42.22C84.4193 42.6521 83.4351 42.8903 82.3875 42.9514C74.7915 43.3982 63.8821 34.5987 61.9009 23.8833C61.6712 22.644 61.5743 21.4342 61.5847 20.2581C61.6501 11.5429 67.5558 4.84264 68.6181 3.67285C68.7403 3.72345 68.8605 3.77614 68.9827 3.82673C69.5772 4.07964 70.1735 4.33046 70.768 4.58338C70.9408 4.65505 71.1136 4.72881 71.2864 4.80258C70.848 5.82268 68.3946 11.7684 71.2253 17.2863C73.5838 21.881 78.9161 24.8381 85.0053 24.8865C86.9864 24.9034 89.0457 24.6126 91.107 23.9697C91.1976 23.9423 91.2882 23.9128 91.3789 23.8833C91.3789 23.9002 91.3809 23.9191 91.3809 23.9402C91.4567 25.2765 91.9542 36.8898 86.7651 41.2674Z" fill="#AABBCC"/>
<path d="M124.31 4.76336L123.495 3.88762C123.495 3.88762 123.901 1.44251 122.979 1.46203C122.057 1.48155 120.502 1.7992 120.519 2.49976C120.536 3.20033 121.151 4.21914 121.695 4.35388C122.24 4.48862 122.548 5.51764 122.548 5.51764L124.31 4.76336Z" fill="#97A6B7"/>
<path d="M122.012 5.50267C122.52 6.35938 125.381 11.3611 123.497 16.5894C121.397 22.4197 114.216 26.2543 106.344 24.761C106.411 25.7459 107.385 38.1926 113.839 40.3617C120.769 42.691 131.933 32.4779 132.54 21.3829C133.059 11.8893 125.477 5.2353 124.254 4.19434C123.506 4.63043 122.759 5.06652 122.012 5.50267Z" fill="#AABBCC"/>
<path d="M108.033 123.769C108.033 123.769 107.727 125.637 107.766 126.302C107.805 126.967 115.183 127.307 115.258 126.809C115.332 126.311 114.038 125.519 113.127 125.239C112.217 124.96 109.551 124.214 109.551 124.214L108.033 123.769Z" fill="#AABBCC"/>
<path d="M109.823 121.907L109.588 124.23C109.588 124.23 108.731 124.796 107.976 124.359L107.598 121.831L109.823 121.907Z" fill="#AABBCC"/>
<path d="M94.8688 126.798C94.8688 126.798 94.5635 128.666 94.6023 129.331C94.6411 129.996 102.019 130.336 102.094 129.838C102.168 129.34 100.874 128.547 99.9634 128.268C99.0526 127.988 96.3868 127.242 96.3868 127.242L94.8688 126.798Z" fill="#AABBCC"/>
<path d="M96.6596 124.935L96.4243 127.258C96.4243 127.258 95.5673 127.825 94.8121 127.387L94.4343 124.859L96.6596 124.935Z" fill="#AABBCC"/>
<path d="M108.485 61.2635C109.338 62.9925 110.191 64.7215 111.043 66.4504C111.729 76.3174 112.07 87.0466 111.851 98.5209C111.688 107.058 111.232 115.145 110.577 122.736C109.42 122.683 108.264 122.629 107.108 122.576C105.436 119.258 103.462 114.23 103.28 108.024C103.091 101.551 105.053 100.691 104.929 94.493C104.768 86.4595 101.399 84.3161 99.6041 74.6528C98.9177 70.9573 98.4556 66.1304 99.0049 60.2744C102.165 60.6041 105.325 60.934 108.485 61.2635Z" fill="#AABBCC"/>
<path opacity="0.3" d="M99.0049 60.2744C100.711 60.4523 102.418 60.6303 104.125 60.8087C107.197 66.1546 108.054 71.7189 107.515 74.1801C106.753 77.6623 104.735 78.7778 104.846 82.2741C104.956 85.7335 106.994 86.6305 108.287 90.7079C109.182 93.5309 108.946 96.1265 108.437 101.203C107.411 111.427 104.942 114.554 107.01 117.906C107.598 118.859 108.657 119.993 110.731 120.859C110.68 121.486 110.63 122.115 110.577 122.736C109.421 122.683 108.264 122.629 107.108 122.577C105.436 119.258 103.462 114.23 103.28 108.024C103.091 101.551 105.053 100.691 104.929 94.493C104.768 86.4594 101.399 84.3162 99.6041 74.6529C98.9177 70.9573 98.4556 66.1305 99.0049 60.2744Z" fill="#AABBCC"/>
<path d="M103.896 64.3762C102.295 73.1058 100.881 82.4488 99.778 92.3573C98.4459 104.321 97.735 115.6 97.4555 126.072C96.1863 126.108 94.9172 126.144 93.648 126.18C88.6469 116.286 88.3414 109.578 89.0624 105.211C89.3403 103.528 90.095 100.228 90.2672 95.2968C90.3872 91.8591 90.168 89.2429 89.8941 86.0979C89.2935 79.2025 88.5646 77.6971 88.4599 72.4228C88.3614 67.4728 88.3411 64.9682 89.7542 63.5063C93.4769 59.6547 103.162 64.0353 103.896 64.3762Z" fill="#AABBCC"/>
<path d="M116.972 47.2575C116.629 52.141 116.294 52.2148 115.507 59.1069C114.77 65.5838 114.635 69.3004 114.22 71.5485H114.22C114.219 71.5527 114.218 71.5566 114.217 71.5609C114.199 71.6597 114.18 71.7567 114.161 71.8499C114.133 71.989 114.104 72.1218 114.07 72.2503C114.066 72.2609 114.064 72.2693 114.062 72.2798C114.03 72.4084 113.994 72.5306 113.958 72.6466C113.832 73.0491 113.684 73.3864 113.501 73.673C113.463 73.732 113.425 73.7868 113.387 73.8395C113.347 73.8943 113.307 73.9449 113.265 73.9955C113.227 74.0398 113.189 74.082 113.151 74.122L113.132 74.1409C113.088 74.1873 113.039 74.2316 112.991 74.2758C112.989 74.2779 112.987 74.28 112.985 74.2822C112.94 74.3222 112.892 74.3622 112.843 74.3981C112.831 74.4107 112.818 74.4213 112.803 74.4297C112.763 74.4613 112.721 74.4908 112.677 74.5203C112.622 74.5583 112.563 74.5962 112.504 74.632C111.035 75.5088 110.504 74.4487 103.007 73.7068C97.98 73.2093 95.415 72.9775 92.8689 73.8374C89.4039 75.0114 88.2447 76.98 86.8136 76.3393C85.4414 75.7259 85.2686 73.3569 85.1021 69.2301C84.8471 62.8628 84.8618 58.5357 84.8386 56.9866C84.8324 56.5419 84.8176 56.1056 84.7986 55.6735C84.7901 55.4775 84.7797 55.2836 84.7691 55.0917C84.767 55.058 84.7649 55.0243 84.7628 54.9927C84.7375 54.5796 84.7058 54.1707 84.6679 53.766C84.649 53.5574 84.6278 53.3508 84.6068 53.1443C84.5899 52.9841 84.5709 52.8239 84.552 52.6658C84.512 52.3139 84.4656 51.9661 84.4171 51.6226C84.3981 51.4856 84.3771 51.3486 84.3559 51.2116C84.2906 50.788 84.221 50.3664 84.1452 49.9491C84.0736 49.5655 83.9997 49.184 83.9197 48.8046C83.9155 48.7857 83.9112 48.7667 83.9092 48.7478C83.8712 48.5623 83.8312 48.3789 83.789 48.1955C83.4033 46.4504 82.927 44.7263 82.3874 42.9516C81.8542 41.2065 81.2598 39.4108 80.6254 37.5012C80.4652 37.0206 80.3051 36.5506 80.1448 36.0912C78.8528 32.388 77.5376 29.3613 76.5049 27.163C78.8402 26.3705 81.7003 25.5423 85.0052 24.8867C86.8978 24.5116 88.9359 24.1912 91.1069 23.9699C91.1975 23.9594 91.2902 23.9488 91.3808 23.9404C94.2135 23.6601 97.2654 23.5442 100.505 23.677C106.413 23.9214 111.492 24.9352 115.516 26.0607C116.06 29.1042 116.605 32.1477 117.149 35.1912C117.274 38.2409 117.314 42.3741 116.972 47.2575Z" fill="#AABBCC"/>
<path d="M99.8309 16.6357C99.7505 18.4228 99.4756 19.8288 99.2352 20.7888C98.9599 21.8888 98.789 22.1677 98.5779 22.3901C98.2603 22.7249 97.7915 22.995 95.198 23.493C93.7867 23.7639 93.6079 23.7449 93.5698 23.8815C93.3838 24.5478 97.0592 27.0488 101.013 26.7044C103.432 26.4938 105.691 25.2403 105.595 24.5137C105.499 23.7824 103.079 24.0427 102.434 22.6946C101.985 21.7567 102.612 20.4927 103.328 19.4566C102.754 18.2265 100.405 17.8657 99.8309 16.6357Z" fill="#97A6B7"/>
<path d="M104.328 17.2836C104.884 16.5209 104.898 15.2043 104.231 14.3825C103.658 13.6754 102.77 13.5872 102.239 13.5341C100.7 13.3808 98.7719 14.0523 98.1198 15.4768C97.7334 16.3209 98.6248 18.0485 98.765 18.3594C98.9238 18.7109 99.2035 18.8279 99.4647 19.0915C99.8267 19.457 100.394 20.0384 101.319 21.0111C101.385 20.7188 101.487 20.3567 101.652 19.9632C101.715 19.8117 101.97 19.2202 102.362 18.7269C103.148 17.738 103.801 18.0065 104.328 17.2836Z" fill="#AABBCC"/>
<path d="M100.008 20.2018C100.008 20.2018 101.044 21.8429 103.053 21.6807C104.851 21.5354 105.052 17.4939 103.889 16.6551C103.5 16.3753 102.73 16.2686 102.108 16.4534C101.741 16.5626 101.618 16.7179 101.015 16.8845C100.458 17.0384 100.299 16.9789 100.132 17.1234C99.9239 17.3045 99.776 17.7424 100.147 18.9172C99.7981 18.5749 99.3837 18.4478 99.0937 18.5902C99.0474 18.6131 98.9252 18.6991 98.8575 18.8276C98.6131 19.2927 99.0436 19.8751 100.008 20.2018Z" fill="#97A6B7"/>
<path d="M100.047 16.8831C100.134 16.9465 99.8741 17.2745 99.8615 17.7333C99.8369 18.6238 100.754 19.678 101.675 19.7543C102.219 19.7993 102.363 19.4695 103.26 19.3606C103.815 19.2932 104.279 19.3567 104.571 19.4158C104.869 20.3874 104.618 21.3647 103.973 21.8263C103.278 22.3234 102.376 22.0425 101.999 21.9251C101.747 21.8465 100.939 21.5964 100.507 20.8656C100.057 20.104 100.48 19.634 99.9691 19.1222C99.7116 18.864 99.377 18.7557 99.0451 18.2532C98.955 18.1167 98.8943 17.9956 98.8572 17.9141C99.3139 17.4146 99.9194 16.7912 100.047 16.8831Z" fill="#AABBCC"/>
<path d="M103.923 19.7879C103.923 19.7879 103.538 19.9971 102.865 19.9698C102.832 19.9684 102.796 19.9786 102.793 19.9956C102.778 20.0595 103.214 20.3386 103.609 20.2208C103.89 20.137 104.105 19.8667 104.066 19.7993C104.05 19.771 103.986 19.7758 103.923 19.7879Z" fill="#AABBCC"/>
<path d="M91.9698 23.0853C91.0018 21.6013 88.1034 22.794 86.5957 23.5542C86.3407 23.6828 86.1496 23.9107 86.0683 24.1845C85.9869 24.4584 86.0222 24.7537 86.166 25.0006C86.7966 26.0841 88.0023 27.9006 89.6919 29.3244C92.2709 31.4977 93.3004 25.1251 91.9698 23.0853Z" fill="#AABBCC"/>
<path d="M113.06 24.7763C112.663 23.0495 109.532 23.1698 107.854 23.3637C107.57 23.3965 107.312 23.5445 107.142 23.7735C106.971 24.0026 106.902 24.2919 106.952 24.5733C107.171 25.8078 107.676 27.9285 108.771 29.8475C110.443 32.7767 113.606 27.1498 113.06 24.7763Z" fill="#AABBCC"/>
<path opacity="0.3" d="M114.22 71.5485C114.201 71.6517 114.182 71.7529 114.161 71.8498C114.131 71.9889 114.102 72.1217 114.07 72.2503C114.066 72.2608 114.064 72.2692 114.062 72.2798C114.03 72.4083 113.994 72.5306 113.958 72.6465C113.832 73.0491 113.684 73.3863 113.501 73.673C113.463 73.7319 113.425 73.7868 113.387 73.8395C113.347 73.8943 113.307 73.9449 113.265 73.9954C113.227 74.0397 113.189 74.0819 113.151 74.1219L113.132 74.1409C113.088 74.1873 113.04 74.2315 112.991 74.2758C112.989 74.2779 112.987 74.28 112.985 74.2821C112.94 74.3222 112.892 74.3622 112.844 74.398C112.831 74.4107 112.818 74.4212 112.803 74.4297C112.763 74.4613 112.721 74.4908 112.677 74.5203C112.622 74.5582 112.563 74.5962 112.504 74.632C111.035 75.5088 110.504 74.4486 103.007 73.7067C97.9801 73.2093 95.4151 72.9774 92.869 73.8374C89.404 75.0114 88.2448 76.9799 86.8137 76.3392C85.4415 75.7259 85.2687 73.3569 85.1022 69.23C84.8472 62.8627 84.8619 58.5357 84.8388 56.9865C84.8325 56.5418 84.8177 56.1055 84.7987 55.6734C84.7902 55.4774 84.7798 55.2835 84.7692 55.0917C84.7671 55.058 84.765 55.0242 84.7629 54.9927C84.7376 54.5796 84.7059 54.1707 84.668 53.766C84.6511 53.5573 84.6301 53.3508 84.6069 53.1442C84.59 52.9841 84.5732 52.8238 84.5521 52.6658C84.5121 52.3138 84.4657 51.966 84.4172 51.6225C84.3982 51.4855 84.3772 51.3485 84.356 51.2115C84.2907 50.7879 84.2211 50.3663 84.1453 49.949C84.0737 49.5654 83.9998 49.184 83.9198 48.8046C83.9156 48.7856 83.9113 48.7666 83.9093 48.7477C83.8692 48.5622 83.8291 48.3789 83.7891 48.1955C83.4034 46.4503 82.9271 44.7262 82.3875 42.9516C74.7915 43.3984 63.8821 34.5989 61.9009 23.8835C61.6712 22.6442 61.5743 21.4344 61.5847 20.2583C62.5501 25.5781 69.478 33.0561 76.505 34.8265C77.8771 35.1721 79.0869 35.6085 80.1449 36.0912C84.5057 38.0745 86.2867 40.7934 86.2867 40.7934C86.4848 40.9304 86.6409 41.0884 86.7652 41.2676C87.9329 42.9327 86.3183 46.3471 88.3944 50.0081C90.8182 54.2846 95.3434 53.7302 96.0305 56.8538C96.8925 60.7846 90.4072 64.7702 91.2903 66.0707C92.1377 67.3205 97.567 62.8143 102.48 64.7534C105.924 66.1128 105.903 69.3692 109.591 70.9415C111.124 71.5949 112.717 71.7108 114.22 71.5485Z" fill="#AABBCC"/>
<path d="M34.8663 96.4425C34.7789 97.4748 35.0038 98.1759 35.3787 98.6558C37.0408 100.787 42.6908 99.9155 46.0489 97.0624C48.5346 94.9503 49.8506 91.6711 49.8018 88.7317C49.7068 82.998 43.8731 77.0905 36.4323 75.4834C35.2625 78.9814 34.149 82.4344 32.978 85.9324C34.7014 85.9586 36.1861 86.4348 37.3646 87.1559C39.5204 88.4731 40.6576 90.6076 40.3739 92.3022C40.074 94.0918 38.1369 95.7165 35.5812 96.3063C35.3487 96.3613 35.1101 96.4063 34.8663 96.4425Z" fill="url(#paint0_linear_2251_782)"/>
<path opacity="0.3" d="M35.5811 96.3065C35.6099 96.329 35.6398 96.349 35.6711 96.369C38.4217 98.0961 44.5003 96.6426 43.2082 94.6431C41.9172 92.6435 43.708 93.0184 44.0005 89.2268C44.2917 85.4364 38.5429 84.9365 38.5429 84.9365C38.5429 84.9365 38.0168 85.8451 37.3644 87.156C39.5202 88.4732 40.6575 90.6077 40.3737 92.3024C40.0738 94.092 38.1368 95.7166 35.5811 96.3065Z" fill="url(#paint1_linear_2251_782)"/>
<path d="M32.9698 143.869C32.9698 143.869 32.7576 145.168 32.7846 145.63C32.8115 146.092 37.9413 146.328 37.9932 145.982C38.045 145.636 37.1452 145.085 36.512 144.891C35.8787 144.696 34.0253 144.178 34.0253 144.178L32.9698 143.869Z" fill="url(#paint2_linear_2251_782)"/>
<path d="M34.2152 142.574L34.0516 144.189C34.0516 144.189 33.4557 144.582 32.9307 144.278L32.668 142.521L34.2152 142.574Z" fill="url(#paint3_linear_2251_782)"/>
<path d="M23.8173 145.974C23.8173 145.974 23.605 147.273 23.632 147.735C23.659 148.198 28.7888 148.434 28.8406 148.088C28.8925 147.741 27.9927 147.191 27.3594 146.996C26.7262 146.802 24.8727 146.283 24.8727 146.283L23.8173 145.974Z" fill="url(#paint4_linear_2251_782)"/>
<path d="M25.0628 144.679L24.8992 146.294C24.8992 146.294 24.3033 146.688 23.7783 146.384L23.5156 144.626L25.0628 144.679Z" fill="url(#paint5_linear_2251_782)"/>
<path d="M33.2845 100.41C33.8774 101.612 34.4704 102.815 35.0634 104.017C35.5402 110.877 35.7772 118.337 35.625 126.314C35.5118 132.25 35.1946 137.872 34.739 143.15C33.9351 143.113 33.1311 143.076 32.3271 143.039C31.1646 140.732 29.7922 137.237 29.666 132.922C29.5342 128.421 30.8987 127.823 30.8122 123.514C30.7 117.928 28.3578 116.438 27.11 109.72C26.6328 107.15 26.3115 103.794 26.6934 99.7227C28.8904 99.9518 31.0875 100.181 33.2845 100.41Z" fill="url(#paint6_linear_2251_782)"/>
<path opacity="0.3" d="M26.6934 99.7227C27.8799 99.8464 29.0665 99.9701 30.2531 100.094C32.3889 103.811 32.9853 107.68 32.6104 109.391C32.0802 111.812 30.6775 112.588 30.7546 115.018C30.8309 117.424 32.2479 118.047 33.1469 120.882C33.7691 122.845 33.6049 124.65 33.2509 128.179C32.538 135.288 30.8214 137.462 32.2592 139.792C32.6679 140.455 33.404 141.243 34.8463 141.846C34.811 142.282 34.7763 142.719 34.739 143.15C33.9351 143.113 33.1312 143.076 32.3271 143.039C31.1646 140.732 29.7923 137.237 29.666 132.922C29.5342 128.421 30.8988 127.823 30.8122 123.514C30.7 117.928 28.3579 116.438 27.11 109.72C26.6328 107.15 26.3115 103.794 26.6934 99.7227Z" fill="url(#paint7_linear_2251_782)"/>
<path d="M30.0941 102.575C28.981 108.644 27.9979 115.14 27.2308 122.029C26.3046 130.347 25.8103 138.189 25.6159 145.47C24.7335 145.495 23.8511 145.52 22.9687 145.545C19.4915 138.666 19.2791 134.002 19.7804 130.966C19.9736 129.796 20.4983 127.501 20.6181 124.073C20.7015 121.683 20.5491 119.864 20.3586 117.677C19.9411 112.883 19.4343 111.836 19.3615 108.169C19.293 104.727 19.2789 102.986 20.2614 101.97C22.8498 99.2918 29.5832 102.338 30.0941 102.575Z" fill="url(#paint8_linear_2251_782)"/>
<path d="M11.0503 76.7007C14.8498 75.4125 20.647 73.9851 27.7372 74.2772C31.8445 74.4464 35.3756 75.1512 38.1735 75.9349C38.5518 78.0506 38.9301 80.1664 39.3083 82.282C39.3953 84.4034 39.4233 87.2769 39.185 90.6722C38.9467 94.0672 38.7134 94.1183 38.1674 98.9107C37.2772 106.724 37.6495 108.766 36.0792 109.704C35.0579 110.315 34.6884 109.578 29.4764 109.061C25.9815 108.715 24.1979 108.554 22.4281 109.153C20.018 109.968 19.2116 111.337 18.2173 110.892C17.264 110.465 17.1426 108.819 17.0274 105.949C16.8497 101.522 16.8607 98.513 16.8443 97.4359C16.7692 92.4942 15.5178 88.721 13.9152 83.8886C12.9128 80.8661 11.8569 78.42 11.0503 76.7007Z" fill="url(#paint9_linear_2251_782)"/>
<path d="M27.267 69.3818C27.2111 70.6243 27.02 71.6018 26.8529 72.2693C26.6615 73.0342 26.5426 73.228 26.3959 73.3827C26.1751 73.6155 25.8491 73.8032 24.0459 74.1495C23.0647 74.3379 22.9404 74.3246 22.9139 74.4196C22.7846 74.8829 25.34 76.6217 28.0888 76.3823C29.7711 76.2359 31.3412 75.3643 31.2746 74.8591C31.2076 74.3507 29.5254 74.5317 29.0768 73.5943C28.7649 72.9423 29.2006 72.0635 29.6985 71.3431C29.2991 70.4879 27.6664 70.237 27.267 69.3818Z" fill="url(#paint10_linear_2251_782)"/>
<path d="M29.8133 69.2824C30.0296 68.6629 29.7742 67.7838 29.165 67.3711C28.6407 67.0161 28.0326 67.1359 27.6685 67.2075C26.6134 67.4153 25.4653 68.2504 25.318 69.3296C25.2307 69.9692 26.1717 70.9394 26.3276 71.1181C26.504 71.32 26.7137 71.3417 26.9406 71.4645C27.2551 71.6349 27.7494 71.9077 28.5612 72.3687C28.5464 72.1608 28.5413 71.8994 28.5717 71.6043C28.5834 71.4908 28.634 71.0458 28.7956 70.6386C29.1193 69.8224 29.6082 69.8695 29.8133 69.2824Z" fill="url(#paint11_linear_2251_782)"/>
<path d="M27.5255 72.0939C27.5255 72.0939 28.5452 72.9775 29.8494 72.4653C31.017 72.0065 30.337 69.2766 29.3941 68.9525C29.0794 68.8444 28.5454 68.9284 28.1687 69.1766C27.9461 69.3232 27.8959 69.4513 27.5276 69.6836C27.1879 69.8982 27.0702 69.8905 26.9885 70.0203C26.8863 70.1827 26.876 70.5039 27.3594 71.2111C27.0583 71.0535 26.757 71.0523 26.5926 71.2055C26.5664 71.23 26.5024 71.3118 26.4832 71.411C26.4141 71.7697 26.8178 72.0706 27.5255 72.0939Z" fill="url(#paint12_linear_2251_782)"/>
<path d="M26.8832 69.8777C26.9545 69.9022 26.8472 70.1728 26.9312 70.4807C27.0941 71.0783 27.9168 71.5953 28.5447 71.4607C28.9158 71.3811 28.9454 71.1327 29.5202 70.8796C29.8761 70.7231 30.1976 70.6719 30.404 70.6524C30.7975 71.2391 30.8276 71.9399 30.4911 72.3771C30.1288 72.8477 29.4721 72.8423 29.1975 72.84C29.0138 72.8385 28.4256 72.8348 27.9911 72.4353C27.5384 72.019 27.725 71.6212 27.2822 71.3833C27.0589 71.2633 26.8145 71.2586 26.4924 70.991C26.4049 70.9183 26.3402 70.8499 26.2991 70.8032C26.5026 70.3789 26.7801 69.8421 26.8832 69.8777Z" fill="url(#paint13_linear_2251_782)"/>
<path d="M30.048 71.0303C30.048 71.0303 29.8335 71.2472 29.3805 71.3644C29.3584 71.37 29.3366 71.384 29.3374 71.3961C29.3407 71.4416 29.6867 71.5396 29.9262 71.3817C30.0961 71.2694 30.1849 71.0462 30.1454 71.0092C30.1287 70.9936 30.0873 71.0096 30.048 71.0303Z" fill="url(#paint14_linear_2251_782)"/>
<path opacity="0.3" d="M34.053 107.139C31.4895 106.045 31.5043 103.782 29.1101 102.837C25.6935 101.489 21.9188 104.621 21.3295 103.752C20.7162 102.849 25.2245 100.078 24.6248 97.3448C24.1482 95.1729 21.0011 95.5578 19.3156 92.5849C17.7167 89.7647 19.2669 87.1574 17.851 86.1773C17.3433 85.8258 16.4477 85.6871 14.7495 86.4344C15.9336 90.1325 16.7827 93.3938 16.8442 97.4363C16.8606 98.5133 16.8497 101.522 17.0272 105.949C17.1424 108.819 17.2638 110.465 18.2172 110.892C19.2114 111.338 20.0179 109.969 22.4279 109.153C24.1978 108.554 25.9813 108.715 29.4762 109.062C34.6883 109.578 35.0577 110.315 36.0791 109.705C36.7442 109.307 37.0605 108.709 37.2721 107.561C36.2272 107.674 35.1187 107.594 34.053 107.139Z" fill="url(#paint15_linear_2251_782)"/>
<path d="M14.5557 97.4403L15.8135 97.3701C15.8135 97.3701 17.1916 96.2169 17.8188 96.2889C18.446 96.3608 19.3843 96.7961 19.4987 96.8874C19.6131 96.9787 19.1554 97.4901 18.6978 97.4404C18.2401 97.3906 17.2188 97.6376 17.0361 98.0408C16.8535 98.444 16.0608 98.6875 15.9261 98.451L14.2354 98.7866L14.5557 97.4403Z" fill="url(#paint16_linear_2251_782)"/>
<path d="M14.9361 96.9999C15.0242 98.0318 14.7994 98.7326 14.4244 99.2132C12.762 101.343 7.11221 100.472 3.75432 97.619C1.26878 95.5071 -0.0473049 92.2277 0.00129941 89.2892C0.0961424 83.5555 5.40993 77.9371 13.3142 75.9961C14.4842 79.4937 17.1231 82.4596 18.2932 85.9572C13.4201 86.0315 8.99057 90.2367 9.42963 92.8592C9.75663 94.8128 12.0352 96.5701 14.9361 96.9999Z" fill="url(#paint17_linear_2251_782)"/>
<path d="M38.3409 98.639C38.3409 98.639 39.6872 96.5383 38.7703 96.4106C37.8534 96.2829 36.7044 96.4338 37.157 97.0953C37.6097 97.7569 38.0739 97.8497 38.2364 97.8265C38.3989 97.8033 37.8418 99.3469 38.3409 98.639Z" fill="url(#paint18_linear_2251_782)"/>
<defs>
<linearGradient id="paint0_linear_2251_782" x1="45.1153" y1="98.7222" x2="27.0045" y2="56.8752" gradientUnits="userSpaceOnUse">
<stop stop-color="#FF9085"/>
<stop offset="1" stop-color="#FB6FBB"/>
</linearGradient>
<linearGradient id="paint1_linear_2251_782" x1="41.8338" y1="97.0146" x2="32.7758" y2="76.085" gradientUnits="userSpaceOnUse">
<stop stop-color="#FF9085"/>
<stop offset="1" stop-color="#FB6FBB"/>
</linearGradient>
<linearGradient id="paint2_linear_2251_782" x1="38.3828" y1="129.867" x2="33.6991" y2="154.176" gradientUnits="userSpaceOnUse">
<stop stop-color="#311944"/>
<stop offset="1" stop-color="#893976"/>
</linearGradient>
<linearGradient id="paint3_linear_2251_782" x1="33.8658" y1="147.151" x2="33.1272" y2="139.136" gradientUnits="userSpaceOnUse">
<stop stop-color="#FFC444"/>
<stop offset="0.9964" stop-color="#F36F56"/>
</linearGradient>
<linearGradient id="paint4_linear_2251_782" x1="29.9491" y1="128.242" x2="25.2654" y2="152.551" gradientUnits="userSpaceOnUse">
<stop stop-color="#311944"/>
<stop offset="1" stop-color="#893976"/>
</linearGradient>
<linearGradient id="paint5_linear_2251_782" x1="24.5981" y1="148.004" x2="23.8596" y2="139.989" gradientUnits="userSpaceOnUse">
<stop stop-color="#FFC444"/>
<stop offset="0.9964" stop-color="#F36F56"/>
</linearGradient>
<linearGradient id="paint6_linear_2251_782" x1="36.423" y1="120.979" x2="27.8815" y2="121.664" gradientUnits="userSpaceOnUse">
<stop stop-color="#444B8C"/>
<stop offset="0.9964" stop-color="#26264F"/>
</linearGradient>
<linearGradient id="paint7_linear_2251_782" x1="36.4229" y1="120.979" x2="27.8815" y2="121.664" gradientUnits="userSpaceOnUse">
<stop stop-color="#444B8C"/>
<stop offset="0.9964" stop-color="#26264F"/>
</linearGradient>
<linearGradient id="paint8_linear_2251_782" x1="31.6981" y1="122.586" x2="18.7314" y2="123.625" gradientUnits="userSpaceOnUse">
<stop stop-color="#444B8C"/>
<stop offset="0.9964" stop-color="#26264F"/>
</linearGradient>
<linearGradient id="paint9_linear_2251_782" x1="18.5562" y1="105.282" x2="36.6804" y2="63.4036" gradientUnits="userSpaceOnUse">
<stop stop-color="#FF9085"/>
<stop offset="1" stop-color="#FB6FBB"/>
</linearGradient>
<linearGradient id="paint10_linear_2251_782" x1="24.7606" y1="78.9553" x2="30.7344" y2="68.0484" gradientUnits="userSpaceOnUse">
<stop stop-color="#FFC444"/>
<stop offset="0.9964" stop-color="#F36F56"/>
</linearGradient>
<linearGradient id="paint11_linear_2251_782" x1="27.1585" y1="76.252" x2="27.6935" y2="67.6337" gradientUnits="userSpaceOnUse">
<stop stop-color="#311944"/>
<stop offset="1" stop-color="#6B3976"/>
</linearGradient>
<linearGradient id="paint12_linear_2251_782" x1="28.0124" y1="69.8828" x2="32.1624" y2="80.8452" gradientUnits="userSpaceOnUse">
<stop stop-color="#FFC444"/>
<stop offset="0.9964" stop-color="#F36F56"/>
</linearGradient>
<linearGradient id="paint13_linear_2251_782" x1="28.1961" y1="76.3206" x2="28.7317" y2="67.6932" gradientUnits="userSpaceOnUse">
<stop stop-color="#311944"/>
<stop offset="1" stop-color="#6B3976"/>
</linearGradient>
<linearGradient id="paint14_linear_2251_782" x1="29.6524" y1="70.7553" x2="29.9479" y2="72.2028" gradientUnits="userSpaceOnUse">
<stop stop-color="#FFC444"/>
<stop offset="1" stop-color="#F36F56"/>
</linearGradient>
<linearGradient id="paint15_linear_2251_782" x1="21.8874" y1="106.724" x2="40.0118" y2="64.8454" gradientUnits="userSpaceOnUse">
<stop stop-color="#FF9085"/>
<stop offset="1" stop-color="#FB6FBB"/>
</linearGradient>
<linearGradient id="paint16_linear_2251_782" x1="16.4624" y1="96.5902" x2="17.3037" y2="99.158" gradientUnits="userSpaceOnUse">
<stop stop-color="#FFC444"/>
<stop offset="0.9964" stop-color="#F36F56"/>
</linearGradient>
<linearGradient id="paint17_linear_2251_782" x1="4.66765" y1="99.2708" x2="22.7919" y2="57.3928" gradientUnits="userSpaceOnUse">
<stop stop-color="#FF9085"/>
<stop offset="1" stop-color="#FB6FBB"/>
</linearGradient>
<linearGradient id="paint18_linear_2251_782" x1="38.8547" y1="98.6028" x2="37.0016" y2="94.3212" gradientUnits="userSpaceOnUse">
<stop stop-color="#FFC444"/>
<stop offset="0.9964" stop-color="#F36F56"/>
</linearGradient>
</defs>
</svg>
