<svg width="161" height="156" viewBox="0 0 161 156" fill="none" xmlns="http://www.w3.org/2000/svg">
<g id="Icon experience">
<g id="Group">
<g id="Group_2">
<g id="Group_3">
<path id="Vector" d="M39.8882 54.5287C39.8882 54.5287 39.9201 66.9323 29.4651 70.4844C22.2623 72.9315 18.1372 69.7888 16.2674 67.5965C15.63 66.8489 16.106 65.6901 17.0822 65.5799L18.8744 65.3777C18.8744 65.3777 16.0158 50.5635 18.5881 44.0311C22.4001 34.3508 37.2268 29.5698 46.6028 40.0416L48.8184 39.172C49.5549 38.8828 50.3697 39.347 50.4921 40.1286C51.0751 43.855 51.3989 53.3502 39.8882 54.5287Z" fill="#233F52"/>
<path id="Vector_2" d="M50.0336 65.5803L48.2414 65.3781C48.2414 65.3781 50.9053 51.5721 48.775 44.739C48.775 44.739 19.221 53.7093 27.2276 54.5291C27.2276 54.5291 27.1957 66.9327 37.6511 70.4849C44.8538 72.932 48.9789 69.7892 50.8488 67.5969C51.4858 66.8497 51.0098 65.6906 50.0336 65.5803Z" fill="#233F52"/>
<g id="Group_4">
<g id="Group_5">
<g id="Group_6">
<path id="Vector_3" d="M57.098 154.201V88.29C57.098 85.8197 56.0967 83.583 54.4777 81.964C52.8587 80.3451 50.622 79.3438 48.1517 79.3438H18.8777C16.4073 79.3438 14.1707 80.3451 12.5517 81.964C10.9327 83.583 9.9314 85.8197 9.9314 88.29V154.201H57.098Z" fill="#233F52"/>
<path id="Vector_4" d="M57.098 139.816H9.9314V155.856H57.098V139.816Z" fill="#042A37"/>
<path id="Vector_5" d="M57.098 138.144H9.9314V139.817H57.098V138.144Z" fill="#375060"/>
<g id="Group_7">
<g id="Group_8">
<g id="Group_9">
<path id="Vector_6" d="M25.0426 58.5623C25.0426 59.6255 24.6117 60.5878 23.915 61.2846C23.2182 61.9813 22.2559 62.4122 21.1927 62.4122C20.1295 62.4122 19.1672 61.9813 18.4704 61.2846C17.7736 60.5878 17.3428 59.6255 17.3428 58.5623C17.3428 57.4995 17.7736 56.5368 18.4704 55.84C19.1672 55.1433 20.1295 54.7124 21.1927 54.7124C22.2559 54.7124 23.2182 55.1433 23.915 55.84C24.6117 56.5368 25.0426 57.4991 25.0426 58.5623Z" fill="#FF917F"/>
<path id="Vector_7" d="M49.535 58.5621C49.535 59.6253 49.1042 60.5876 48.4074 61.2843C47.7106 61.9811 46.7483 62.412 45.6851 62.412C44.6219 62.412 43.6596 61.9811 42.9628 61.2843C42.2661 60.5876 41.8352 59.6253 41.8352 58.5621C41.8352 57.4992 42.2661 56.5366 42.9628 55.8398C43.6596 55.143 44.6219 54.7122 45.6851 54.7122C46.7483 54.7122 47.7106 55.143 48.4074 55.8398C49.1042 56.5366 49.535 57.4988 49.535 58.5621Z" fill="#FF917F"/>
</g>
<path id="Vector_8" d="M48.6949 50.9503C48.6949 55.2472 46.9876 59.1372 44.227 61.9529C41.4664 64.7686 37.6527 66.5103 33.4402 66.5103C29.2278 66.5103 25.4141 64.7686 22.6535 61.9529C19.8929 59.1372 18.1855 55.2472 18.1855 50.9503C18.1855 46.6535 19.8929 42.7638 22.6535 39.9478C25.4141 37.1321 29.2278 35.3904 33.4402 35.3904C37.6527 35.3904 41.4664 37.1321 44.227 39.9478C46.9876 42.7635 48.6949 46.6535 48.6949 50.9503Z" fill="#233F52"/>
<path id="Vector_9" d="M21.0229 52.9194V66.1264V79.3334C22.8058 80.5094 24.7648 81.4405 26.8515 82.0775C28.9382 82.7145 31.1534 83.0577 33.4491 83.0577C35.7409 83.0577 37.9521 82.7156 40.0359 82.0804C42.1198 81.4452 44.0759 80.5173 45.857 79.3449V66.1322V52.9194H33.4401H21.0229Z" fill="#FF917F"/>
<path id="Vector_10" d="M34.8809 75.0167H33.4401H31.999C28.9683 75.0167 26.2242 73.7882 24.238 71.802C22.2519 69.8159 21.0229 67.0718 21.0229 64.041V56.3469V48.6528C21.0229 45.6221 22.2515 42.878 24.2376 40.8915C26.2238 38.9053 28.9679 37.6768 31.999 37.6768H33.4401H34.8813C37.912 37.6768 40.6561 38.9053 42.6426 40.8915C44.6288 42.8776 45.8573 45.6217 45.8573 48.6525V56.3466V64.0407C45.8573 67.0718 44.6288 69.8155 42.6426 71.802C40.6558 73.7882 37.9117 75.0167 34.8809 75.0167Z" fill="#FFB3A2"/>
<path id="Vector_11" d="M23.8864 53.4142C23.7254 53.4142 23.5643 53.3834 23.413 53.3222C23.2616 53.2607 23.1195 53.1687 22.9968 53.0456C22.7509 52.7997 22.6282 52.4777 22.6282 52.1559C22.6282 51.8339 22.7509 51.5118 22.9968 51.2663C23.5651 50.698 24.2271 50.2575 24.9479 49.959C25.6686 49.6605 26.4484 49.5042 27.2518 49.5042C28.0262 49.5042 28.7809 49.6509 29.4827 49.9307C30.1845 50.2106 30.8329 50.6239 31.3944 51.1568C31.6464 51.3962 31.7773 51.7147 31.7859 52.0364C31.7942 52.3585 31.68 52.6834 31.4406 52.9354C31.2008 53.1873 30.882 53.3186 30.5602 53.3269C30.2385 53.3351 29.9136 53.2209 29.6613 52.9815C29.3349 52.6716 28.9577 52.4311 28.5498 52.2687C28.1418 52.1058 27.7023 52.0207 27.2518 52.0207C26.7844 52.0207 26.3306 52.1116 25.9112 52.2855C25.4918 52.459 25.1064 52.7156 24.7757 53.0463C24.653 53.169 24.5109 53.261 24.3595 53.3226C24.2085 53.3834 24.0475 53.4142 23.8864 53.4142Z" fill="#233F52"/>
<path id="Vector_12" d="M36.246 53.4142C36.085 53.4142 35.924 53.3834 35.7726 53.3222C35.6212 53.2607 35.4791 53.1687 35.3564 53.0456C35.1109 52.7997 34.9878 52.4777 34.9878 52.1559C34.9878 51.8339 35.1105 51.5118 35.3564 51.2663C35.9247 50.698 36.5867 50.2575 37.3078 49.959C38.0286 49.6605 38.808 49.5042 39.6118 49.5042C40.3862 49.5042 41.1409 49.6509 41.8427 49.9307C42.5445 50.2106 43.1929 50.6239 43.7544 51.1568C44.0063 51.3962 44.1373 51.7147 44.1459 52.0364C44.1541 52.3585 44.04 52.6834 43.8006 52.9354C43.5608 53.1873 43.2419 53.3186 42.9202 53.3269C42.5985 53.3351 42.2736 53.2209 42.0213 52.9815C41.6949 52.6716 41.3177 52.4311 40.9097 52.2687C40.5018 52.1058 40.0623 52.0207 39.6118 52.0207C39.144 52.0207 38.6906 52.1116 38.2712 52.2855C37.8518 52.459 37.4667 52.7156 37.1357 53.0463C37.0129 53.169 36.8709 53.261 36.7195 53.3226C36.5678 53.3834 36.4071 53.4142 36.246 53.4142Z" fill="#233F52"/>
</g>
<path id="Vector_13" d="M34.6304 60.9039H33.2773H31.9242C31.6383 60.9039 31.3974 60.7597 31.2543 60.5493C31.1111 60.3388 31.0657 60.0618 31.1709 59.796L32.1844 57.2351L33.1978 54.6742C33.2519 54.5375 33.3768 54.4727 33.4991 54.477C33.6215 54.4817 33.7414 54.5554 33.7854 54.6957L34.5939 57.2737L35.4026 59.8518C35.4846 60.1127 35.428 60.3757 35.2827 60.5736C35.1378 60.7711 34.9038 60.9039 34.6304 60.9039Z" fill="#FF917F"/>
</g>
</g>
<g id="Group_10">
<g id="Group_11">
<g id="Group_12">
<g id="Group_13">
<path id="Vector_14" d="M58.3386 84.952C56.9226 81.7674 53.2852 79.5654 49.086 79.3503H47.5093C50.0304 79.3503 52.1848 80.4744 53.0265 82.1181C54.1133 84.2406 55.1157 90.7448 55.854 96.807C57.94 96.1696 60.0549 95.6106 62.1853 95.0953L58.3386 84.952Z" fill="#375060"/>
</g>
</g>
<g id="Group_14">
<path id="Vector_15" d="M8.81974 84.952C10.2358 81.7674 13.8731 79.5654 18.0723 79.3503H19.6491C17.1279 79.3503 14.9736 80.4744 14.1319 82.1181C13.045 84.2406 11.8967 90.7448 11.1584 96.807L5.90063 95.4532L8.81974 84.952Z" fill="#375060"/>
</g>
</g>
</g>
<path id="Vector_16" d="M28.85 56.298C28.85 56.7514 28.6661 57.1619 28.3691 57.4589C28.072 57.7559 27.6616 57.9399 27.2082 57.9399C26.7547 57.9399 26.3443 57.7559 26.0469 57.4589C25.7499 57.1619 25.5659 56.7514 25.5659 56.298C25.5659 55.8446 25.7495 55.4341 26.0469 55.1367C26.3439 54.8397 26.7547 54.6558 27.2082 54.6558C27.6616 54.6558 28.072 54.8397 28.3691 55.1367C28.6661 55.4338 28.85 55.8446 28.85 56.298Z" fill="#233F52"/>
<path id="Vector_17" d="M41.2097 56.298C41.2097 56.7514 41.0257 57.1619 40.7287 57.4589C40.4317 57.7559 40.0212 57.9399 39.5674 57.9399C39.114 57.9399 38.7035 57.7559 38.4065 57.4589C38.1095 57.1619 37.9255 56.7514 37.9255 56.298C37.9255 55.8446 38.1095 55.4341 38.4065 55.1367C38.7035 54.8397 39.114 54.6558 39.5674 54.6558C40.0208 54.6558 40.4313 54.8397 40.7287 55.1367C41.0257 55.4338 41.2097 55.8446 41.2097 56.298Z" fill="#233F52"/>
</g>
<path id="Vector_18" d="M57.0989 117.417V135.596C57.0989 137.927 55.2091 139.817 52.8779 139.817L57.0918 151.979C57.0918 151.979 64.5085 143.383 65.6884 118.741C65.7167 118.147 65.7235 117.52 65.7127 116.869C65.3366 116.56 64.9369 116.29 64.5082 116.076C62.424 114.918 59.2247 115.511 57.0989 117.417Z" fill="#FFB3A2"/>
<path id="Vector_19" d="M55.8555 96.8079L57.0991 114.558V117.416C59.2248 115.51 62.4241 114.917 64.509 116.075C64.9374 116.29 65.3375 116.56 65.7136 116.868C65.5701 108.182 62.1872 95.0962 62.1872 95.0962L55.8555 96.8079Z" fill="#FF917F"/>
<path id="Vector_20" d="M9.91591 115.114V114.558L11.1595 96.8077L5.90174 95.4539C5.90174 95.4539 2.97226 107.444 1.33789 115.707C3.98144 114.181 7.02508 113.714 9.91591 115.114Z" fill="#FF917F"/>
</g>
<g id="Group_15">
<path id="Vector_21" d="M47.3448 133.405L23.7962 138.055C23.0347 138.206 22.2957 137.71 22.1454 136.949L15.24 101.979C15.0897 101.217 15.585 100.478 16.3465 100.328L39.8951 95.6778C40.6566 95.5275 41.3956 96.0227 41.5459 96.7843L48.4513 131.754C48.6016 132.516 48.1063 133.255 47.3448 133.405Z" fill="#2E7EDD"/>
<path id="Vector_22" d="M47.3447 133.405L23.7961 138.055C23.0346 138.205 22.2956 137.71 22.1453 136.949C21.995 136.187 22.4903 135.448 23.2518 135.298L46.8004 130.648C47.5619 130.497 48.3009 130.993 48.4512 131.754C48.6015 132.516 48.1062 133.255 47.3447 133.405Z" fill="#1666B9"/>
</g>
<path id="Vector_23" d="M33.0342 119.772C34.6392 119.111 35.4048 117.275 34.7442 115.67C34.0836 114.065 32.247 113.299 30.642 113.96C29.037 114.62 28.2714 116.457 28.932 118.062C29.5926 119.667 31.4292 120.432 33.0342 119.772Z" fill="white"/>
<path id="Vector_24" d="M36.9243 106.675L32.1303 107.629L35.3454 104.794C35.6821 104.47 35.34 103.848 34.903 103.99L28.4998 106.073L28.5291 103.494C28.5331 103.156 28.1462 102.97 27.9411 103.211L25.8416 105.678C24.8696 106.82 23.6299 107.656 22.2393 108.109L19.8513 108.965L3.75271 113.901C0.755593 114.921 -0.756386 118.445 0.375898 121.771C1.50818 125.097 4.85601 126.967 7.85348 125.947L38.7955 115.054C39.1999 114.884 39.0951 114.225 38.6527 114.157L34.5763 113.862L38.3149 111.285C38.686 111.056 38.5057 110.42 38.0666 110.411L33.6011 110.699L37.2539 107.521C37.5956 107.249 37.3573 106.636 36.9243 106.675Z" fill="#FFB3A2"/>
<path id="Vector_25" d="M48.5038 48.4885C48.5038 48.4885 38.8268 55.5281 22.6287 46.4651C22.6287 46.4651 23.2056 49.9447 19.6491 52.9182C19.6491 52.9182 17.4204 37.7386 31.7872 36.7352C46.1537 35.7321 48.5038 48.4885 48.5038 48.4885Z" fill="#233F52"/>
<path id="Vector_26" d="M39.5673 62.1201C38.1895 64.1982 35.8294 65.5681 33.149 65.5681C30.7105 65.5681 28.5372 64.4341 27.1272 62.6644" stroke="#EE826E" stroke-width="3" stroke-miterlimit="10" stroke-linecap="round" stroke-linejoin="round"/>
</g>
<g id="Group_16">
<g id="Group_17">
<g id="Group_18">
<path id="Vector_27" d="M151.85 154.099V84.1325C151.85 81.5101 150.787 79.136 149.069 77.4172C147.35 75.6987 144.976 74.6355 142.353 74.6355H111.278C108.656 74.6355 106.282 75.6983 104.563 77.4172C102.844 79.1356 101.781 81.5101 101.781 84.1325V154.099H151.85Z" fill="#233F52"/>
<path id="Vector_28" d="M151.851 138.828H101.782V155.855H151.851V138.828Z" fill="#042A37"/>
<path id="Vector_29" d="M151.851 137.053H101.782V138.828H151.851V137.053Z" fill="#2E7EDD"/>
<g id="Group_19">
<path id="Vector_30" d="M151.85 116.865H101.782V118.64H151.85V116.865Z" fill="#2E7EDD"/>
<path id="Vector_31" d="M151.85 111.627H101.782V113.403H151.85V111.627Z" fill="#2E7EDD"/>
<path id="Vector_32" d="M151.85 106.389H101.782V108.165H151.85V106.389Z" fill="#2E7EDD"/>
<path id="Vector_33" d="M151.851 101.15H101.782V102.925H151.851V101.15Z" fill="#2E7EDD"/>
</g>
<path id="Vector_34" d="M114.604 80.337C114.63 80.3527 114.657 80.3678 114.684 80.3817C119.586 82.9122 125.264 83.8799 130.599 83.0782C135.457 82.3485 140.031 80.1527 143.476 76.3354C143.977 75.7803 143.681 74.8774 142.941 74.7629C142.936 74.7622 142.931 74.7611 142.925 74.7604C142.39 74.6781 141.841 74.6355 141.282 74.6355H126.991H112.701C112.172 74.6355 111.652 74.6741 111.144 74.7489C111.096 74.7557 111.049 74.7633 111.002 74.7708C110.326 74.8792 109.993 75.6644 110.376 76.2319C110.803 76.8625 111.268 77.4605 111.781 78.0191C112.59 78.8987 113.519 79.6803 114.604 80.337Z" fill="#2E7EDD"/>
<g id="Group_20">
<g id="Group_21">
<g id="Group_22">
<path id="Vector_35" d="M117.824 52.5749C117.824 53.7032 117.367 54.7249 116.627 55.4646C115.888 56.204 114.866 56.6617 113.737 56.6617C112.609 56.6617 111.587 56.2043 110.847 55.4646C110.108 54.7249 109.65 53.7036 109.65 52.5749C109.65 51.4465 110.108 50.4248 110.847 49.6851C111.587 48.9457 112.609 48.488 113.737 48.488C114.866 48.488 115.887 48.9454 116.627 49.6851C117.367 50.4248 117.824 51.4461 117.824 52.5749Z" fill="#FF917F"/>
<path id="Vector_36" d="M143.824 52.5749C143.824 53.7032 143.366 54.7249 142.626 55.4646C141.887 56.204 140.865 56.6617 139.737 56.6617C138.608 56.6617 137.587 56.2043 136.847 55.4646C136.108 54.7253 135.65 53.7036 135.65 52.5749C135.65 51.4465 136.107 50.4248 136.847 49.6851C137.586 48.9457 138.608 48.488 139.737 48.488C140.865 48.488 141.887 48.9454 142.626 49.6851C143.366 50.4248 143.824 51.4461 143.824 52.5749Z" fill="#FF917F"/>
</g>
<path id="Vector_37" d="M142.93 44.4927C142.93 49.0537 141.118 53.1831 138.187 56.1723C135.257 59.1612 131.209 61.01 126.737 61.01C122.265 61.01 118.217 59.1612 115.286 56.1723C112.356 53.1834 110.543 49.0541 110.543 44.4927C110.543 39.9317 112.356 35.8023 115.286 32.8131C118.217 29.8242 122.265 27.9751 126.737 27.9751C131.209 27.9751 135.257 29.8238 138.187 32.8131C141.118 35.8023 142.93 39.9314 142.93 44.4927Z" fill="#233F52"/>
<path id="Vector_38" d="M117.547 33.2459C117.547 33.2459 112.119 32.7378 109.758 38.4636C107.397 44.1894 112.067 51.4888 112.067 51.4888L117.547 33.2459Z" fill="#233F52"/>
<path id="Vector_39" d="M113.555 46.5841V60.6038V74.6232C115.448 75.8714 117.527 76.8598 119.743 77.5362C121.958 78.2125 124.309 78.5769 126.746 78.5769C129.179 78.5769 131.526 78.2136 133.738 77.5394C135.95 76.8652 138.026 75.88 139.917 74.6353V60.6095V46.5837H126.736L113.555 46.5841Z" fill="#FF917F"/>
<path id="Vector_40" d="M128.266 70.0414H126.736H125.207C121.989 70.0414 119.077 68.7373 116.968 66.6288C114.859 64.5202 113.555 61.6076 113.555 58.39V50.2225V42.0549C113.555 38.8374 114.859 35.9247 116.968 33.8162C119.077 31.7076 121.989 30.4036 125.207 30.4036H126.736H128.266C131.483 30.4036 134.396 31.7076 136.505 33.8162C138.613 35.9247 139.917 38.8374 139.917 42.0549V50.2225V58.39C139.917 61.6076 138.613 64.5202 136.505 66.6288C134.396 68.7373 131.483 70.0414 128.266 70.0414Z" fill="#FFB3A2"/>
<path id="Vector_41" d="M116.596 47.1084C116.425 47.1084 116.254 47.0758 116.093 47.0107C115.932 46.9456 115.782 46.8475 115.651 46.7172C115.39 46.4564 115.26 46.1146 115.26 45.7728C115.26 45.4311 115.39 45.0893 115.651 44.8284C116.255 44.2251 116.957 43.7577 117.723 43.4406C118.488 43.1236 119.315 42.9575 120.168 42.9575C120.99 42.9575 121.792 43.1132 122.537 43.4106C123.281 43.7076 123.97 44.1463 124.566 44.7121C124.833 44.9662 124.973 45.3044 124.982 45.6462C124.99 45.9879 124.869 46.3329 124.615 46.6006C124.361 46.8679 124.022 47.0075 123.681 47.0161C123.339 47.025 122.994 46.9033 122.727 46.6496C122.38 46.3207 121.98 46.0656 121.547 45.8927C121.113 45.7199 120.647 45.6293 120.169 45.6293C119.673 45.6293 119.191 45.726 118.746 45.9103C118.301 46.0946 117.892 46.3669 117.54 46.718C117.41 46.8482 117.26 46.9459 117.098 47.0114C116.937 47.0755 116.767 47.1084 116.596 47.1084Z" fill="#233F52"/>
<path id="Vector_42" d="M129.716 47.1084C129.544 47.1084 129.374 47.0758 129.213 47.0107C129.052 46.9456 128.901 46.8475 128.771 46.7172C128.51 46.4564 128.38 46.1146 128.38 45.7728C128.38 45.4311 128.51 45.0893 128.771 44.8284C129.375 44.2251 130.077 43.7577 130.842 43.4406C131.608 43.1239 132.435 42.9575 133.288 42.9575C134.11 42.9575 134.911 43.1132 135.656 43.4106C136.402 43.708 137.09 44.1463 137.686 44.7121C137.953 44.9662 138.092 45.3044 138.101 45.6462C138.11 45.9879 137.989 46.3329 137.735 46.6006C137.48 46.8679 137.142 47.0075 136.801 47.0161C136.459 47.025 136.114 46.9033 135.846 46.6496C135.5 46.3207 135.1 46.0656 134.667 45.8927C134.233 45.7199 133.767 45.6293 133.289 45.6293C132.792 45.6293 132.311 45.726 131.866 45.9103C131.42 46.0946 131.011 46.3669 130.66 46.718C130.53 46.8482 130.379 46.9459 130.218 47.0114C130.057 47.0755 129.886 47.1084 129.716 47.1084Z" fill="#233F52"/>
</g>
<path id="Vector_43" d="M133.26 59.0081H126.736H120.212C120.064 59.0081 119.938 59.0789 119.858 59.1848C119.779 59.2911 119.747 59.4328 119.788 59.5746C119.986 60.2584 120.456 61.6044 121.51 62.7553C122.564 63.9062 124.201 64.8617 126.732 64.765C129.501 64.6591 131.146 63.7097 132.146 62.6107C133.146 61.5117 133.501 60.2634 133.688 59.5595C133.726 59.42 133.691 59.2822 133.611 59.1791C133.531 59.0764 133.405 59.0081 133.26 59.0081Z" fill="white"/>
<path id="Vector_44" d="M128 55.0583H126.564H125.127C124.824 55.0583 124.568 54.9055 124.416 54.6818C124.265 54.4585 124.216 54.1644 124.328 53.882L125.404 51.1637L126.479 48.4453C126.537 48.3004 126.669 48.2313 126.799 48.2363C126.929 48.241 127.057 48.3194 127.103 48.4682L127.962 51.2048L128.82 53.9414C128.907 54.2184 128.847 54.4975 128.693 54.7076C128.538 54.9177 128.29 55.0583 128 55.0583Z" fill="#FF917F"/>
</g>
</g>
<g id="Group_23">
<g id="Group_24">
<g id="Group_25">
<path id="Vector_45" d="M153.168 80.5886C151.665 77.2082 147.804 74.8707 143.346 74.6423H141.672C144.348 74.6423 146.636 75.8355 147.529 77.5804C148.683 79.8335 149.747 86.7378 150.531 93.1729C152.745 92.4966 154.99 91.9029 157.252 91.356L153.168 80.5886Z" fill="#2E7EDD"/>
</g>
<g id="Group_26">
<path id="Vector_46" d="M100.603 80.5886C102.106 77.2082 105.967 74.8707 110.424 74.6423H112.098C109.422 74.6423 107.135 75.8355 106.242 77.5804C105.088 79.8335 104.024 86.7378 103.24 93.1729C101.026 92.4966 98.7806 91.9029 96.5193 91.356L100.603 80.5886Z" fill="#375060"/>
</g>
</g>
</g>
<path id="Vector_47" d="M121.864 50.1724C121.864 50.6537 121.669 51.0896 121.354 51.4048C121.039 51.7205 120.603 51.9155 120.121 51.9155C119.64 51.9155 119.204 51.7205 118.889 51.4048C118.574 51.0896 118.378 50.6537 118.378 50.1724C118.378 49.691 118.573 49.2552 118.889 48.9399C119.204 48.6242 119.64 48.4292 120.121 48.4292C120.603 48.4292 121.039 48.6242 121.354 48.9399C121.669 49.2555 121.864 49.691 121.864 50.1724Z" fill="#233F52"/>
<path id="Vector_48" d="M134.985 50.1724C134.985 50.6537 134.79 51.0896 134.474 51.4048C134.159 51.7205 133.723 51.9155 133.242 51.9155C132.761 51.9155 132.325 51.7205 132.009 51.4048C131.694 51.0896 131.499 50.6537 131.499 50.1724C131.499 49.691 131.694 49.2552 132.009 48.9399C132.325 48.6242 132.761 48.4292 133.242 48.4292C133.723 48.4292 134.159 48.6242 134.474 48.9399C134.79 49.2555 134.985 49.691 134.985 50.1724Z" fill="#233F52"/>
</g>
<path id="Vector_49" d="M151.85 115.05V134.348C151.85 136.823 149.844 138.829 147.37 138.829L151.843 151.74C151.843 151.74 159.716 142.614 160.968 116.456C160.999 115.825 161.006 115.159 160.995 114.468C160.596 114.141 160.171 113.854 159.716 113.627C157.503 112.397 154.107 113.027 151.85 115.05Z" fill="#FFB3A2"/>
<path id="Vector_50" d="M150.53 93.1731L151.85 112.016V115.049C154.107 113.026 157.503 112.397 159.716 113.626C160.171 113.853 160.596 114.14 160.995 114.468C160.843 105.248 157.252 91.3562 157.252 91.3562L150.53 93.1731Z" fill="#FF917F"/>
<path id="Vector_51" d="M101.765 112.606V112.016L103.085 93.1731L96.3637 91.3562C96.3637 91.3562 93.0788 104.061 92.6587 113.235C95.4651 111.615 98.6959 111.12 101.765 112.606Z" fill="#FF917F"/>
<path id="Vector_52" d="M101.764 134.348V112.607C98.6955 111.121 95.4647 111.617 92.6584 113.236C92.6061 114.374 92.5982 115.458 92.6458 116.456C93.8984 142.614 101.771 151.74 101.771 151.74L106.245 138.829C103.77 138.829 101.764 136.823 101.764 134.348Z" fill="#FFB3A2"/>
<path id="Vector_53" d="M113.556 36.7356C113.556 36.7356 117.93 41.9533 126.969 42.0932C136.007 42.2335 146.654 35.5235 143.823 27.4146C141.207 19.922 129.699 19.5906 128.38 28.8543C128.38 28.8543 120.091 27.1219 113.556 36.7356Z" fill="#233F52"/>
</g>
</g>
<g id="Group_27">
<g id="Group_28">
<g id="Group_29">
<path id="Vector_54" d="M105.163 18.3346C105.163 13.1889 100.991 9.01758 95.8457 9.01758C90.7 9.01758 86.5287 13.1889 86.5287 18.3346C86.5287 20.7101 87.4191 22.877 88.8828 24.5228C88.0017 25.8505 87.4871 27.4426 87.4871 29.1553C87.4871 29.2316 87.4907 29.3071 87.4928 29.3829C83.9131 30.5818 81.3325 33.9597 81.3325 37.9431C81.3325 42.9288 85.3742 46.9709 90.3604 46.9709C95.3461 46.9709 99.3882 42.9292 99.3882 37.9431C99.3882 37.558 99.3614 37.1794 99.3145 36.8072C102.233 35.4938 104.265 32.5629 104.265 29.1557C104.265 27.4258 103.741 25.8183 102.843 24.4827C104.286 22.8412 105.163 20.6908 105.163 18.3346Z" fill="#233F52"/>
<path id="Vector_55" d="M75.0582 29.3829C75.0604 29.3071 75.064 29.2316 75.064 29.1553C75.064 27.4426 74.5494 25.8505 73.6683 24.5228C75.132 22.877 76.0227 20.7105 76.0227 18.3346C76.0227 13.1889 71.8514 9.01758 66.7057 9.01758C61.5599 9.01758 57.3887 13.1889 57.3887 18.3346C57.3887 20.6908 58.2651 22.8415 59.7076 24.482C58.8101 25.8175 58.2858 27.4251 58.2858 29.155C58.2858 32.5626 60.3185 35.4931 63.2365 36.8065C63.1897 37.1787 63.1628 37.5573 63.1628 37.9424C63.1628 42.9281 67.2045 46.9702 72.1907 46.9702C77.1764 46.9702 81.2185 42.9285 81.2185 37.9424C81.2185 33.9597 78.638 30.5818 75.0582 29.3829Z" fill="#233F52"/>
</g>
</g>
<g id="Group_30">
<path id="Vector_56" d="M110.149 153.83V73.133C110.149 70.1083 108.923 67.3699 106.941 65.3877C104.959 63.4055 102.22 62.1794 99.1955 62.1794H63.3546C60.33 62.1794 57.5916 63.4055 55.6094 65.3877C53.6272 67.3699 52.4011 70.1083 52.4011 73.133V153.83H110.149Z" fill="#2E7EDD"/>
<path id="Vector_57" d="M110.149 136.218H52.4019V155.855H110.149V136.218Z" fill="#233F52"/>
<path id="Vector_58" d="M110.149 130.307H52.4019V136.218H110.149V130.307Z" fill="#1666B9"/>
<path id="Vector_59" d="M66.9873 68.7556C67.0173 68.7738 67.0485 68.791 67.0796 68.8071C72.7328 71.7259 79.2817 72.842 85.4356 71.9173C91.0379 71.0756 96.3132 68.543 100.288 64.1402C100.866 63.5 100.523 62.4586 99.6707 62.3265C99.6646 62.3255 99.6582 62.3247 99.6521 62.3237C99.0344 62.2288 98.4017 62.1794 97.7572 62.1794H81.2747H64.7921C64.182 62.1794 63.5826 62.2242 62.9964 62.3101C62.9416 62.3179 62.8869 62.3265 62.8325 62.3351C62.0523 62.46 61.6683 63.3658 62.1107 64.0203C62.6024 64.7475 63.1388 65.4371 63.7311 66.0816C64.6644 67.0965 65.7355 67.9983 66.9873 68.7556Z" fill="#1666B9"/>
<g id="Group_31">
<g id="Group_32">
<g id="Group_33">
<path id="Vector_60" d="M70.9026 36.7338C70.9026 38.0354 70.3751 39.2138 69.5223 40.0666C68.6695 40.9194 67.4911 41.4473 66.1895 41.4473C64.888 41.4473 63.7095 40.9198 62.8567 40.0666C62.0039 39.2135 61.4761 38.0354 61.4761 36.7338C61.4761 35.4323 62.0036 34.2538 62.8567 33.401C63.7095 32.5482 64.888 32.0208 66.1895 32.0208C67.4911 32.0208 68.6695 32.5482 69.5223 33.401C70.3751 34.2538 70.9026 35.4323 70.9026 36.7338Z" fill="#FF917F"/>
<path id="Vector_61" d="M100.89 36.7336C100.89 38.0351 100.363 39.2136 99.5096 40.0664C98.6565 40.9192 97.4784 41.447 96.1768 41.447C94.8753 41.447 93.6968 40.9195 92.844 40.0664C91.9912 39.2132 91.4634 38.0351 91.4634 36.7336C91.4634 35.432 91.9909 34.2536 92.844 33.4008C93.6968 32.548 94.8753 32.0205 96.1768 32.0205C97.4784 32.0205 98.6568 32.548 99.5096 33.4008C100.363 34.2536 100.89 35.432 100.89 36.7336Z" fill="#FF917F"/>
</g>
<path id="Vector_62" d="M99.8605 27.4131C99.8605 32.6737 97.7699 37.4366 94.3902 40.8839C91.0105 44.3312 86.3411 46.4637 81.1835 46.4637C76.026 46.4637 71.3566 44.3315 67.9769 40.8839C64.5969 37.4366 62.5066 32.6737 62.5066 27.4131C62.5066 22.1525 64.5972 17.39 67.9769 13.9424C71.3569 10.4951 76.026 8.36255 81.1835 8.36255C86.3411 8.36255 91.0105 10.4951 94.3902 13.9424C97.7702 17.39 99.8605 22.1525 99.8605 27.4131Z" fill="#233F52"/>
<path id="Vector_63" d="M65.9805 29.8245V45.9942V62.164C68.1634 63.6037 70.5615 64.7435 73.1166 65.5236C75.6718 66.3038 78.3837 66.7239 81.194 66.7239C83.9997 66.7239 86.7073 66.3052 89.2585 65.5276C91.8097 64.7499 94.2045 63.6133 96.3854 62.1783V46.0014V29.8245H81.1829H65.9805Z" fill="#FF917F"/>
<path id="Vector_64" d="M82.9471 56.8802H81.1828H79.4185C75.7075 56.8802 72.3482 55.3761 69.9161 52.944C67.4844 50.5124 65.98 47.1527 65.98 43.4417V34.0216V24.6015C65.98 20.8908 67.4841 17.5312 69.9161 15.0991C72.3482 12.6674 75.7075 11.1633 79.4185 11.1633H81.1828H82.9471C86.6581 11.1633 90.0174 12.6674 92.4494 15.0991C94.8811 17.5308 96.3856 20.8905 96.3856 24.6015V34.0216V43.4417C96.3856 47.1527 94.8815 50.512 92.4494 52.944C90.0178 55.3761 86.6581 56.8802 82.9471 56.8802Z" fill="#FFB3A2"/>
<path id="Vector_65" d="M80.0955 53.4862V52.705V51.9237C80.0955 51.6246 80.2179 51.3529 80.415 51.1558C80.6122 50.9586 80.8838 50.8362 81.183 50.8362C81.4822 50.8362 81.7538 50.9586 81.951 51.1558C82.1482 51.3529 82.2706 51.6249 82.2706 51.9237V52.705V53.4862C82.2706 53.7853 82.1482 54.057 81.951 54.2541C81.7538 54.4513 81.4822 54.5737 81.183 54.5737C80.8838 54.5737 80.6122 54.4513 80.415 54.2541C80.2179 54.057 80.0955 53.785 80.0955 53.4862Z" fill="#FF917F"/>
<path id="Vector_66" d="M69.4873 30.4304C69.2901 30.4304 69.0929 30.3929 68.9075 30.3177C68.7222 30.2426 68.5482 30.1298 68.3979 29.9792C68.0973 29.6782 67.9467 29.2838 67.947 28.8898C67.947 28.4955 68.0977 28.1015 68.3983 27.8005C69.0943 27.1048 69.9049 26.5655 70.7874 26.1998C71.6699 25.8344 72.6243 25.6426 73.6084 25.6426C74.5564 25.6426 75.4808 25.8222 76.34 26.1651C77.1993 26.5079 77.993 27.0136 78.6805 27.6663C78.9889 27.959 79.1493 28.3495 79.1596 28.7435C79.17 29.1375 79.0297 29.5354 78.737 29.8443C78.4432 30.1527 78.0531 30.3134 77.6591 30.3238C77.2651 30.3342 76.8672 30.1939 76.5587 29.9008C76.1589 29.5215 75.6973 29.2273 75.1977 29.028C74.6981 28.8286 74.1603 28.7241 73.6084 28.7241C73.0359 28.7241 72.4808 28.8354 71.9673 29.0484C71.4537 29.2609 70.9821 29.5752 70.577 29.9799C70.4267 30.1302 70.2527 30.2429 70.0674 30.3181C69.8813 30.3929 69.6841 30.4304 69.4873 30.4304Z" fill="#233F52"/>
<path id="Vector_67" d="M84.6198 30.4304C84.4227 30.4304 84.2255 30.3929 84.0401 30.3177C83.8547 30.2426 83.6808 30.1298 83.5305 29.9792C83.2299 29.6782 83.0796 29.2838 83.0796 28.8898C83.0796 28.4955 83.2302 28.1015 83.5309 27.8005C84.2269 27.1048 85.0375 26.5655 85.92 26.1998C86.8025 25.8344 87.7569 25.6426 88.741 25.6426C89.689 25.6426 90.6134 25.8222 91.4726 26.1651C92.3318 26.5079 93.1256 27.0136 93.813 27.6663C94.1215 27.959 94.2818 28.3495 94.2922 28.7435C94.3026 29.1375 94.1623 29.5354 93.8696 29.8443C93.5758 30.1527 93.1857 30.3134 92.7917 30.3238C92.3977 30.3342 92.0001 30.1939 91.6912 29.9008C91.2915 29.5215 90.8299 29.2273 90.3303 29.028C89.8307 28.8286 89.2928 28.7241 88.741 28.7241C88.1684 28.7241 87.613 28.8354 87.0998 29.0484C86.5863 29.2609 86.1146 29.5752 85.7095 29.9799C85.5592 30.1302 85.3853 30.2429 85.1999 30.3181C85.0138 30.3929 84.817 30.4304 84.6198 30.4304Z" fill="#233F52"/>
</g>
<path id="Vector_68" d="M88.7075 42.0918H81.1824H73.6572C73.4868 42.0918 73.3412 42.1734 73.2499 42.2958C73.1587 42.4182 73.1218 42.5817 73.1691 42.7453C73.3967 43.534 73.9395 45.0864 75.1552 46.4137C76.3709 47.741 78.2593 48.8433 81.1777 48.7316C84.3716 48.6096 86.2694 47.5145 87.4224 46.247C88.5755 44.9794 88.9845 43.5397 89.2007 42.7277C89.2436 42.5667 89.2035 42.4078 89.1112 42.289C89.0189 42.1702 88.8739 42.0918 88.7075 42.0918Z" fill="white"/>
<path id="Vector_69" d="M83.1642 39.5989H80.984H78.8039C78.3434 39.5989 77.9551 39.3667 77.7246 39.0274C77.4941 38.6882 77.4208 38.2419 77.5904 37.8135L79.2233 33.6874L80.8563 29.5612C80.9436 29.3411 81.1447 29.2366 81.3419 29.2438C81.5391 29.2509 81.7323 29.3697 81.8032 29.5959L83.1062 33.7496L84.4092 37.9034C84.5409 38.3239 84.45 38.7476 84.2159 39.0664C83.9819 39.3853 83.6047 39.5989 83.1642 39.5989Z" fill="#FF917F"/>
</g>
</g>
<path id="Vector_70" d="M97.3838 12.4409C97.5827 11.7857 97.6905 11.0907 97.6905 10.3703C97.6905 6.43667 94.5015 3.2481 90.5682 3.2481C90.2215 3.2481 89.8811 3.27422 89.5476 3.32217C87.8248 1.29057 85.2554 -0.000244141 82.3832 -0.000244141C79.6115 -0.000244141 77.1208 1.20111 75.4016 3.11103C74.6347 2.89667 73.827 2.77965 72.9914 2.77965C68.0543 2.77965 64.0515 6.78201 64.0515 11.7195C64.0515 13.7364 64.72 15.5973 65.8469 17.0932C63.4507 18.2212 61.7913 20.6564 61.7913 23.4807C61.7913 27.3782 64.9508 30.5378 68.8484 30.5378C72.7459 30.5378 75.9054 27.3782 75.9054 23.4807C75.9054 23.0631 75.8672 22.6547 75.7974 22.2568C76.9379 22.7549 78.1961 23.033 79.5202 23.033C83.4746 23.033 86.8511 20.5662 88.2006 17.0885C88.2124 17.0928 88.2249 17.0964 88.2367 17.1007C88.1927 17.4009 88.1627 17.7055 88.1627 18.0179C88.1627 21.4963 90.9826 24.3163 94.4611 24.3163C97.9395 24.3163 100.76 21.4963 100.76 18.0179C100.76 15.5944 99.3896 13.4945 97.3838 12.4409Z" fill="#233F52"/>
<g id="Group_34">
<g id="Group_35">
<path id="Vector_71" d="M100.339 62.1905C105.48 62.518 109.934 65.8726 111.668 70.7235L122.855 107.425C124.748 113.633 120.104 119.903 113.614 119.903H98.0251C91.3222 119.903 85.8884 114.47 85.8884 107.767L104.983 73.357C107.764 68.3458 104.14 62.1902 98.4087 62.1902L100.339 62.1905Z" fill="#1666B9"/>
<path id="Vector_72" d="M98.5592 114.665H88.4531C86.0912 114.665 84.1763 112.75 84.1763 110.388C84.1763 108.026 86.0912 106.111 88.4531 106.111H98.5592C100.921 106.111 102.836 108.026 102.836 110.388C102.836 112.75 100.921 114.665 98.5592 114.665Z" fill="#FFB3A2"/>
</g>
<g id="Group_36">
<path id="Vector_73" d="M62.211 62.1901C57.07 62.5175 52.6163 65.8721 50.8828 70.723L39.6949 107.425C37.8025 113.632 42.4469 119.903 48.9364 119.903H64.5254C71.2282 119.903 76.662 114.469 76.662 107.766L57.5674 73.3565C54.7864 68.3453 58.4105 62.1897 64.1417 62.1897L62.211 62.1901Z" fill="#1666B9"/>
<path id="Vector_74" d="M63.9914 114.665H74.0975C76.4594 114.665 78.3744 112.75 78.3744 110.388C78.3744 108.026 76.4598 106.111 74.0975 106.111H63.9914C61.6295 106.111 59.7146 108.026 59.7146 110.388C59.715 112.75 61.6295 114.665 63.9914 114.665Z" fill="#FFB3A2"/>
</g>
</g>
<g id="Group_37">
<g id="Group_38">
<g id="Group_39">
<path id="Vector_75" d="M93.3888 69.7025H110.387C111.259 69.7025 111.966 70.4096 111.966 71.2818V107.446H51.1665V71.2814C51.1665 70.4096 51.874 69.7021 52.7465 69.7021H71.4549H93.3888V69.7025Z" fill="#233F52"/>
</g>
<g id="Group_40">
<g id="Group_41">
<path id="Vector_76" d="M111.967 107.444H51.1667H47.5154V108.827C47.5154 109.73 48.2479 110.464 49.1515 110.464H113.983C114.886 110.464 115.618 109.73 115.618 108.827V107.444H111.967Z" fill="#CFE4E9"/>
</g>
</g>
<g id="Group_42">
<g id="Group_43">
<path id="Vector_77" d="M89.0856 107.444H74.047H72.2212V108.136C72.2212 108.587 72.5873 108.954 73.0393 108.954H90.0933C90.5449 108.954 90.911 108.587 90.911 108.136V107.444H89.0856Z" fill="#A8CED7"/>
</g>
</g>
<g id="Group_44">
<path id="Vector_78" d="M93.4612 72.084H93.4011H71.5427H71.3548H53.5364V89.9826V105.012H109.598V91.394V72.084H93.4612Z" fill="white"/>
</g>
<g id="Group_45">
<path id="Vector_79" d="M93.4617 75.2725H93.4016H71.5432H71.3553H53.5369V91.4376V105.012H109.599V92.7123V75.2725H93.4617Z" fill="#DDDEE0"/>
</g>
<g id="Group_46">
<path id="Vector_80" d="M55.9789 75.2725H55.9754H54.6384H54.6269H53.5369V91.4376V105.012H56.9663V92.7123V75.2725H55.9789Z" fill="#CECFD2"/>
</g>
<g id="Group_47">
<g id="Group_48">
<g id="Group_49">
<path id="Vector_81" d="M70.291 78.4209H58.9478V79.9493H70.291V78.4209Z" fill="#E45C50"/>
</g>
<g id="Group_50">
<path id="Vector_82" d="M78.4079 78.4209H72.1252V79.9493H78.4079V78.4209Z" fill="#1495D0"/>
</g>
<g id="Group_51">
<path id="Vector_83" d="M87.4771 78.4209H80.2415V79.9493H87.4771V78.4209Z" fill="#5DC09B"/>
</g>
</g>
<g id="Group_52">
<g id="Group_53">
<path id="Vector_84" d="M65.2297 81.4861H58.947V83.0145H65.2297V81.4861Z" fill="#1495D0"/>
</g>
<g id="Group_54">
<path id="Vector_85" d="M75.7594 81.4858H67.064V83.0143H75.7594V81.4858Z" fill="#5DC09B"/>
</g>
</g>
<g id="Group_55">
<g id="Group_56">
<path id="Vector_86" d="M70.2898 84.5522H58.9465V86.0807H70.2898V84.5522Z" fill="#1495D0"/>
</g>
<g id="Group_57">
<path id="Vector_87" d="M82.5299 84.5522H72.1243V86.0807H82.5299V84.5522Z" fill="#E45C50"/>
</g>
<g id="Group_58">
<path id="Vector_88" d="M91.65 84.5522H84.3635V86.0807H91.65V84.5522Z" fill="#5DC09B"/>
</g>
</g>
<g id="Group_59">
<g id="Group_60">
<path id="Vector_89" d="M67.5177 87.6165H58.9475V89.1449H67.5177V87.6165Z" fill="#5DC09B"/>
</g>
<g id="Group_61">
<path id="Vector_90" d="M78.7364 87.6167H69.3511V89.1451H78.7364V87.6167Z" fill="#1495D0"/>
</g>
</g>
<g id="Group_62">
<g id="Group_63">
<path id="Vector_91" d="M70.2903 90.6816H58.947V92.2101H70.2903V90.6816Z" fill="#E45C50"/>
</g>
<g id="Group_64">
<path id="Vector_92" d="M80.7096 90.6816H72.124V92.2101H80.7096V90.6816Z" fill="#5DC09B"/>
</g>
<g id="Group_65">
<path id="Vector_93" d="M87.476 90.6816H82.5432V92.2101H87.476V90.6816Z" fill="#1495D0"/>
</g>
</g>
<g id="Group_66">
<g id="Group_67">
<path id="Vector_94" d="M65.2292 93.7454H58.9465V95.2738H65.2292V93.7454Z" fill="#1495D0"/>
</g>
<g id="Group_68">
<path id="Vector_95" d="M75.7586 93.7454H67.0632V95.2738H75.7586V93.7454Z" fill="#5DC09B"/>
</g>
</g>
<g id="Group_69">
<g id="Group_70">
<path id="Vector_96" d="M70.2907 96.8096H58.9475V98.338H70.2907V96.8096Z" fill="#1495D0"/>
</g>
<g id="Group_71">
<path id="Vector_97" d="M82.5297 96.8098H72.124V98.3383H82.5297V96.8098Z" fill="#E45C50"/>
</g>
<g id="Group_72">
<path id="Vector_98" d="M91.65 96.8098H84.3635V98.3383H91.65V96.8098Z" fill="#5DC09B"/>
</g>
</g>
<g id="Group_73">
<g id="Group_74">
<path id="Vector_99" d="M67.5177 99.8748H58.9475V101.403H67.5177V99.8748Z" fill="#5DC09B"/>
</g>
<g id="Group_75">
<path id="Vector_100" d="M78.7374 99.8745H69.3521V101.403H78.7374V99.8745Z" fill="#1495D0"/>
</g>
</g>
</g>
<path id="Vector_101" d="M56.9656 78.4243H55.3899V101.405H56.9656V78.4243Z" fill="white"/>
</g>
</g>
<path id="Vector_102" d="M92.4735 37.3983C94.3715 35.3104 94.2176 32.0791 92.1296 30.181C90.0417 28.283 86.8104 28.4369 84.9123 30.5249C83.0143 32.6128 83.1682 35.8441 85.2562 37.7422C87.3441 39.6402 90.5754 39.4863 92.4735 37.3983Z" fill="#FFCCC1" stroke="#233F52" stroke-width="4" stroke-miterlimit="10"/>
<path id="Vector_103" d="M77.1661 37.5746C79.1612 35.5795 79.1612 32.3448 77.1661 30.3497C75.171 28.3546 71.9362 28.3545 69.9411 30.3497C67.946 32.3448 67.946 35.5795 69.9411 37.5746C71.9362 39.5698 75.171 39.5698 77.1661 37.5746Z" fill="#FFCCC1" stroke="#233F52" stroke-width="4" stroke-miterlimit="10"/>
<path id="Vector_104" d="M75.5647 33.9625C75.5647 34.5176 75.3396 35.0204 74.976 35.384C74.6124 35.7479 74.1096 35.9726 73.5546 35.9726C72.9995 35.9726 72.4967 35.7475 72.1331 35.384C71.7692 35.02 71.5444 34.5176 71.5444 33.9625C71.5444 33.4075 71.7695 32.9047 72.1331 32.5411C72.4971 32.1771 72.9995 31.9524 73.5546 31.9524C74.1096 31.9524 74.6124 32.1775 74.976 32.5411C75.3396 32.9047 75.5647 33.4075 75.5647 33.9625Z" fill="#233F52"/>
<path id="Vector_105" d="M90.6966 33.9625C90.6966 34.5176 90.4715 35.0204 90.1079 35.384C89.744 35.7479 89.2416 35.9726 88.6865 35.9726C88.1315 35.9726 87.6287 35.7475 87.2651 35.384C86.9011 35.02 86.676 34.5176 86.676 33.9625C86.676 33.4075 86.9011 32.9047 87.2651 32.5411C87.629 32.1771 88.1315 31.9524 88.6865 31.9524C89.2416 31.9524 89.7444 32.1775 90.1079 32.5411C90.4715 32.9047 90.6966 33.4075 90.6966 33.9625Z" fill="#233F52"/>
<g id="Group_76">
<path id="Vector_106" d="M78.6628 34.1859C78.6628 32.8288 79.7629 31.7288 81.1199 31.7288C82.477 31.7288 83.577 32.8288 83.577 34.1859" stroke="#233F52" stroke-width="4" stroke-miterlimit="10" stroke-linecap="round" stroke-linejoin="round"/>
</g>
<g id="Group_77">
<path id="Vector_107" d="M93.7146 32.021H99.2712" stroke="#233F52" stroke-width="4" stroke-miterlimit="10" stroke-linecap="round" stroke-linejoin="round"/>
<path id="Vector_108" d="M62.969 32.0212H68.5256" stroke="#233F52" stroke-width="4" stroke-miterlimit="10" stroke-linecap="round" stroke-linejoin="round"/>
</g>
</g>
</g>
</g>
</svg>
