<svg width="183" height="165" viewBox="0 0 183 165" fill="none" xmlns="http://www.w3.org/2000/svg">
<path d="M74.2116 40.4746H0V164.483H74.2116V40.4746Z" fill="#708CD5"/>
<path d="M69.5092 45.2537H4.70239V164.484H69.5092V45.2537Z" fill="#D3DFFF"/>
<path d="M59.9256 55.9177H14.2864V82.2723H59.9256V55.9177Z" stroke="white" stroke-width="3.75" stroke-miterlimit="10"/>
<path d="M59.9256 119.626H14.2864V155.761H59.9256V119.626Z" stroke="white" stroke-width="3.75" stroke-miterlimit="10"/>
<path d="M59.8843 97.1076C59.8843 93.9422 57.1441 91.4167 53.9063 91.774C51.4339 92.0468 49.4407 94.0532 49.1801 96.5269C48.9735 98.4876 49.8273 100.257 51.2338 101.348V105.514C51.2338 107.327 52.7037 108.797 54.5169 108.797C56.33 108.797 57.7999 107.327 57.7999 105.514V101.348C59.0661 100.366 59.8843 98.8339 59.8843 97.1076Z" fill="#959292"/>
<path opacity="0.3" d="M56.2782 105.603V101.437C57.6847 100.346 58.5385 98.5771 58.332 96.6164C58.0713 94.1427 56.0783 92.1364 53.6059 91.8636C53.546 91.857 53.4876 91.8583 53.428 91.8535C53.9695 91.7418 54.5399 91.7092 55.1276 91.7741C57.6 92.0469 59.5931 94.0532 59.8537 96.5269C60.0602 98.4876 59.2065 100.257 57.7999 101.348V105.514C57.7999 107.327 56.33 108.797 54.5169 108.797C54.323 108.797 54.1339 108.777 53.9492 108.745C55.2968 108.336 56.2782 107.085 56.2782 105.603Z" fill="black"/>
<path d="M93.1897 73.3984C93.1897 73.3984 88.3855 76.2018 89.057 78.2016L91.9365 78.7394L93.1897 73.3984Z" fill="#102048"/>
<path d="M92.4034 73.1532L89.6868 74.9049C89.0823 75.0231 87.6077 74.1523 86.7624 72.4027C86.759 72.402 86.759 72.402 86.759 72.402C86.5904 72.3068 86.4267 72.166 86.2844 72.0255C86.0453 71.7886 85.9585 71.4616 86.013 71.164C86.0637 70.8873 86.2307 70.639 86.5099 70.5005C86.5403 69.8266 86.7165 69.3332 87.3375 69.3791C87.33 68.7555 87.6732 68.3463 88.7848 68.4069C88.6912 67.5128 89.147 67.2965 89.8958 67.4397C90.4413 67.544 90.935 67.835 91.3253 68.2303C91.4381 68.3446 91.5455 68.4606 91.6465 68.577C91.7823 68.7341 91.9043 68.9067 92.0046 69.0825C92.3712 69.6967 92.5415 70.4072 92.5028 71.1261L92.4034 73.1532Z" fill="#F9B384"/>
<path d="M91.1586 70.479L90.438 69.6961C89.9594 69.905 89.5565 69.9401 89.2402 69.8007C88.8807 69.6418 88.7738 69.3151 88.7695 69.3012L88.7505 69.2408L89.7161 68.4243C90.0082 68.2034 90.7072 68.1769 91.0621 68.2534L91.0215 68.4397C90.6764 68.3647 90.0481 68.4122 89.8351 68.5729L88.9755 69.3001C89.0169 69.3836 89.1176 69.5392 89.3204 69.6274C89.5979 69.7486 89.9689 69.7041 90.4216 69.4943L90.4847 69.465L91.2988 70.3498L91.1586 70.479Z" fill="#E28B6D"/>
<path d="M87.3057 72.5926C87.1367 72.5926 86.9475 72.5594 86.7344 72.4937L86.7907 72.3115C87.3647 72.4888 87.7047 72.4145 87.9653 72.0554L88.1196 72.1673C87.9121 72.4533 87.6511 72.5926 87.3057 72.5926Z" fill="#E28B6D"/>
<path d="M89.6711 71.9596C89.4369 71.9596 89.1713 71.8311 88.7807 71.5551C88.1657 71.1212 87.7646 70.3981 87.7478 70.3676L87.9149 70.2759C87.9188 70.2829 88.3124 70.9914 88.8906 71.3995C89.508 71.8354 89.7185 71.8326 89.9836 71.6585C90.0175 71.6363 90.0366 71.6061 90.0436 71.5636C90.0767 71.3627 89.8348 70.9989 89.7476 70.8873C89.7208 70.8506 89.1419 70.0506 88.9815 69.6245L89.1598 69.5574C89.3113 69.9595 89.8939 70.7646 89.8997 70.7726C89.9373 70.8207 90.2841 71.275 90.2317 71.5942C90.2161 71.6891 90.1665 71.7662 90.0882 71.8178C89.9468 71.911 89.8149 71.9596 89.6711 71.9596Z" fill="#E28B6D"/>
<path d="M88.2615 72.1998C87.8518 72.1998 87.4276 72.0088 87.0556 71.4595C87.04 71.4366 87.0288 71.4193 87.0212 71.4105L87.1322 71.2576C87.1597 71.2733 87.1755 71.2965 87.2136 71.3527C87.4001 71.6282 87.9685 72.4669 89.1919 71.6911L89.294 71.8519C88.9945 72.0421 88.6337 72.1998 88.2615 72.1998Z" fill="#E28B6D"/>
<path d="M90.4344 71.589C90.3449 71.589 90.2463 71.5729 90.1389 71.5407L90.1938 71.3583C90.4162 71.425 90.5812 71.4081 90.6842 71.3077C90.954 71.046 90.8198 70.2661 90.7452 69.9876L90.9293 69.9382C90.9417 69.9835 91.2221 71.0512 90.8171 71.4442C90.7178 71.5407 90.5896 71.589 90.4344 71.589Z" fill="#E28B6D"/>
<path d="M94.6003 75.7969L91.2167 78.9406L90.3144 77.3831L89.2224 75.4926L88.7211 74.6261L88.406 74.0819L92.3589 72.0303L92.4484 72.1842L93.1752 73.4052L93.1824 73.4123L94.6003 75.7969Z" fill="#F9B384"/>
<path d="M123.502 62.0906L122.36 71.45L115.718 71.1599L116.123 68.582L116.545 65.8931L116.638 65.2987L123.502 62.0906Z" fill="#F9B384"/>
<path d="M120.87 65.7898C120.87 65.7898 119.764 68.0419 116.123 68.5826L116.545 65.8936L120.87 65.7898Z" fill="#102048"/>
<path d="M144.57 49.2748C144.746 46.1319 145.257 43.4594 146.584 41.9348L152.313 44.3965C151.403 47.3234 150.002 49.8175 148.508 52.2289L144.57 49.2748Z" fill="#F9B384"/>
<path d="M142.422 116.901L150.12 116.811L151.373 129.701C149.552 128.001 148.051 125.566 146.808 122.54L141.616 120.75L142.422 116.901Z" fill="#EE6F57"/>
<path d="M114.39 148.518L117.386 157.511L108.29 164.13C108.625 161.661 109.745 159.029 111.496 156.266L109.957 150.995L114.39 148.518Z" fill="#EE6F57"/>
<path d="M111.003 124.599L117.089 150.2L108.138 153.422L99.9854 131.438C98.7609 128.14 98.5067 124.563 99.2514 121.126L104.737 95.7761L105.99 90.0474L115.299 92.1957L116.896 104.165L117.089 105.622L114.053 115.089L111.003 124.599Z" fill="#1F3C88"/>
<path opacity="0.6" d="M117.089 105.623L113.375 117.17C111.226 110.202 114.046 101.774 114.046 101.774L116.896 104.166L117.089 105.623Z" fill="#102048"/>
<path d="M124.847 94.4636L132.008 116.543L144.182 115.947L143.108 126.807L129.406 128.419C126.695 128.738 124.092 127.256 122.983 124.761L108.138 91.3605L123.892 90.7637L124.847 94.4636Z" fill="#1F3C88"/>
<path d="M123.528 61.0159C125.429 59.9048 126.366 58.2051 126.256 56.3341C126.113 53.8974 124.223 51.8562 121.812 51.4725C119.9 51.168 117.689 51.5995 115.291 52.4964C110.827 49.0697 106.426 57.5264 113.939 59.6955L123.528 61.0159Z" fill="#102048"/>
<path d="M123.864 62.0909C123.864 62.0909 122.571 67.2002 117.29 67.1107C114.923 67.0713 114.021 65.6463 113.745 64.0852C113.577 63.1399 113.641 62.141 113.749 61.3712C113.86 60.5799 114.017 60.0321 114.017 60.0321L113.806 57.0459L116.971 55.2271L123.416 56.5411L123.864 62.0909Z" fill="#F9B384"/>
<path d="M123.117 60.6877C123.534 59.4345 123.057 57.9725 121.386 57.3757C119.174 58.719 115.836 58.5096 113.211 57.2265L112.823 56.2716L114.852 54.3321L120.342 53.7354L124.549 55.3466L124.668 57.8529L124.31 59.9415L123.117 60.6877Z" fill="#102048"/>
<path d="M115.808 59.8983C115.808 60.2942 115.603 60.615 115.35 60.615C115.097 60.615 114.892 60.294 114.892 59.8983C114.892 59.5024 115.097 59.1816 115.35 59.1816C115.603 59.1816 115.808 59.5024 115.808 59.8983Z" fill="#102048"/>
<path d="M119.751 60.2981C119.718 60.7093 119.478 61.0254 119.215 61.0042C118.952 60.983 118.766 60.6325 118.799 60.2215C118.832 59.8103 119.072 59.4942 119.335 59.5154C119.598 59.5366 119.784 59.8869 119.751 60.2981Z" fill="#102048"/>
<path d="M117.253 59.9192C117.124 60.1995 116.98 60.4659 116.826 60.7339C116.67 61.0078 116.479 61.245 116.367 61.4925C116.251 61.7381 116.24 61.9762 116.367 62.2138C116.489 62.4569 116.69 62.6921 116.859 62.9538L116.753 63.0454C116.525 62.8466 116.277 62.6574 116.094 62.3703C115.998 62.2278 115.933 62.0483 115.926 61.8619C115.921 61.6754 115.971 61.4958 116.043 61.3433C116.192 61.0368 116.396 60.8025 116.574 60.5674C116.751 60.3243 116.934 60.0762 117.135 59.8438L117.253 59.9192Z" fill="#102048"/>
<path d="M115.802 64.2946C115.728 64.282 118.917 63.7495 118.917 63.7495C118.756 65.9913 116.362 66.2273 115.802 64.2946Z" fill="white"/>
<path opacity="0.6" d="M106.086 94.8514C112.315 96.845 118.315 96.975 124.013 94.6675L125.438 89.8408L106.592 90.6682L106.086 94.8514Z" fill="#102048"/>
<path d="M123.893 79.5748L122.371 93.4492C120.287 93.9898 118.289 94.3335 116.406 94.4338C115.339 94.4911 114.308 94.4696 113.319 94.3622C111.504 94.1653 109.821 93.6747 108.3 92.8405C107.813 92.5719 107.34 92.2676 106.885 91.9274L109.671 80.7348V80.7241L110.677 76.6782L111.271 74.2935L115.969 69.553C117.312 70.7632 119.954 70.935 122.596 69.8179L122.79 71.2788L123.893 79.5748Z" fill="white"/>
<path opacity="0.3" d="M123.892 79.575L122.371 93.4494C120.287 93.9901 118.289 94.3338 116.406 94.4341C116.776 89.8689 117.542 79.2743 121.878 71.698L122.79 71.2791L123.892 79.575Z" fill="#1F3C88"/>
<g opacity="0.3">
<path d="M114.986 71.2954C115.359 71.9824 115.898 72.5313 116.548 72.8548C117.196 73.1792 117.93 73.3046 118.661 73.2768C119.395 73.2585 120.128 73.0925 120.837 72.8496C121.547 72.6017 122.231 72.2659 122.908 71.8773C122.369 72.4419 121.714 72.9019 120.995 73.2377C120.277 73.5763 119.487 73.7834 118.677 73.8135C117.872 73.8345 117.03 73.6661 116.338 73.216C115.641 72.778 115.146 72.0599 114.986 71.2954Z" fill="#1F3C88"/>
</g>
<path opacity="0.3" d="M113.319 94.3624C111.504 94.1655 109.821 93.6749 108.299 92.8407C108.632 90.2162 109.27 84.3979 109.671 80.7351V80.7243C109.878 78.8338 110.018 77.5162 110.018 77.5162L110.677 76.6784L115.657 70.3552C116.094 79.3279 115.077 89.117 113.319 94.3624Z" fill="#1F3C88"/>
<path d="M115.969 69.553C115.747 77.2833 112.911 93.152 110.287 98.759C107.558 98.7017 102.513 98.2577 100.709 97.4772L106.706 80.9174C104.203 82.7041 101.353 84.6197 98.6357 86.1378C97.0137 87.0401 94.6864 86.7644 93.6659 85.214L89.0579 78.1999C89.4302 78.0101 89.774 77.7917 90.0962 77.5518C91.4998 76.5099 92.445 75.0454 93.1897 73.3984L97.8444 78.9482L105.793 72.378C106.685 71.6368 107.752 71.1356 108.887 70.9136L115.969 69.553Z" fill="#708CD5"/>
<path d="M122.557 69.8322C118.842 76.0086 117.723 88.605 118.074 98.0145C123.534 98.7604 127.831 94.9711 127.831 94.9711L128.86 79.7541L138.713 70.4333C139.985 69.1647 141.067 67.7183 141.924 66.1395L149.672 51.8711L144.122 48.0967L135.052 62.4784L129.531 68.2237C128.376 69.4251 126.754 70.061 125.091 69.9639L122.557 69.8322Z" fill="#708CD5"/>
<path d="M125.683 61.4337C125.504 62.6271 124.344 63.4327 123.385 63.4327C122.427 63.4327 122.437 62.6223 122.437 61.4752C122.437 60.3282 123.202 59.345 124.161 59.345C125.119 59.345 125.882 60.1029 125.683 61.4337Z" fill="#F9B384"/>
<path opacity="0.6" d="M120.779 64.0106C121.538 64.0106 122.152 63.3957 122.152 62.6372C122.152 61.8788 121.538 61.2639 120.779 61.2639C120.021 61.2639 119.406 61.8788 119.406 62.6372C119.406 63.3957 120.021 64.0106 120.779 64.0106Z" fill="#FC8879"/>
<path opacity="0.6" d="M114.923 62.7286C114.905 63.4193 114.415 63.9925 113.745 64.0856C113.577 63.1403 113.641 62.1414 113.749 61.3716C114.415 61.4647 114.95 61.6887 114.923 62.7286Z" fill="#FC8879"/>
<path d="M107.788 77.1899L105.462 83.9487L105.801 84.0652L108.126 77.3063L107.788 77.1899Z" fill="#1F3C88"/>
<path d="M129.031 75.2621L128.407 83.3184L128.764 83.346L129.388 75.2898L129.031 75.2621Z" fill="#1F3C88"/>
<path opacity="0.6" d="M93.1898 73.3984C93.1863 73.402 93.1863 73.4092 93.1827 73.4128C92.4773 74.9667 91.5965 76.3559 90.3147 77.3835L89.2227 75.493L93.1755 73.4056L93.1898 73.3984Z" fill="#E28B6D"/>
<path d="M123.552 61.5258C123.44 61.329 123.385 61.0922 123.405 60.8521C123.42 60.6119 123.521 60.3696 123.703 60.1857C123.879 60.002 124.169 59.8885 124.432 59.9597C124.695 60.0214 124.876 60.2132 124.984 60.4083L124.876 60.4969C124.712 60.3709 124.54 60.2832 124.38 60.2698C124.22 60.2535 124.072 60.3235 123.953 60.4395C123.832 60.5555 123.751 60.7199 123.704 60.898C123.66 61.0781 123.66 61.2733 123.684 61.4787L123.552 61.5258Z" fill="#102048"/>
<path d="M124.429 31.3021L119.578 29.1585L123.441 20.418L126.237 21.6537C127.369 22.1536 127.886 23.4794 127.384 24.616L124.429 31.3021Z" fill="#FBC343"/>
<path opacity="0.3" d="M121.465 24.8811L120.14 27.8801L124.99 30.0237L126.316 27.0246L121.465 24.8811Z" fill="#6F3428"/>
<path d="M160.228 50.388L159.082 49.8832L118.372 31.8912L120.889 26.1982L161.434 44.115L162.745 44.695C162.816 46.9472 162.1 48.8699 160.228 50.388Z" fill="#FBC343"/>
<path d="M160.228 50.3873L159.082 49.8824C159.698 47.9132 160.432 45.9761 161.434 44.1143L162.745 44.6943C162.816 46.9464 162.1 48.8691 160.228 50.3873Z" fill="#BB9132"/>
<path d="M165.831 64.1346C161.402 62.1773 159.155 57.0706 159.899 51.6651C160.09 50.2378 160.491 48.7951 161.116 47.3811C161.708 46.0417 162.455 44.8282 163.318 43.7685C166.814 39.4519 172.185 37.6031 176.678 39.5887C182.276 42.0624 184.39 49.5601 181.393 56.3422C178.398 63.1189 171.428 66.6083 165.831 64.1346Z" fill="#FBC343"/>
<path d="M177.469 54.5944C179.305 50.44 178.011 45.8428 174.579 44.3263C171.147 42.8098 166.877 44.9482 165.041 49.1026C163.205 53.257 164.499 57.8541 167.931 59.3707C171.363 60.8872 175.633 58.7488 177.469 54.5944Z" fill="white"/>
<path d="M167.932 59.3801C167.697 59.2763 167.475 59.159 167.265 59.0278C170.552 59.9894 174.379 57.8667 176.089 53.998C177.801 50.124 176.794 45.8647 173.87 44.0813C174.108 44.1483 174.345 44.2337 174.579 44.3375C178.011 45.8538 179.303 50.4495 177.466 54.6064C175.631 58.758 171.363 60.8964 167.932 59.3801Z" fill="#BB9132"/>
<path d="M145.181 16.6683L144.939 16.6795C144.317 16.708 143.785 16.2226 143.756 15.6007L143.115 1.62852C143.086 1.00666 143.572 0.474455 144.194 0.445955L144.436 0.434787C145.058 0.406287 145.59 0.891655 145.619 1.51351L146.26 15.4857C146.289 16.1076 145.803 16.6398 145.181 16.6683Z" fill="#FBC343"/>
<path d="M159.884 22.9666L160.023 23.1654C160.379 23.6756 161.089 23.8015 161.599 23.4451L173.065 15.4351C173.575 15.0786 173.701 14.3694 173.345 13.859L173.206 13.66C172.85 13.1497 172.14 13.0238 171.63 13.3803L160.164 21.3903C159.653 21.7469 159.528 22.4563 159.884 22.9666Z" fill="#FBC343"/>
<path d="M153.429 19.3971C152.787 19.1455 152.468 18.4146 152.719 17.773L159.081 1.55066C159.332 0.909032 160.063 0.589797 160.705 0.841433C161.346 1.09307 161.666 1.82392 161.414 2.46554L155.053 18.6879C154.801 19.3296 154.07 19.6487 153.429 19.3971Z" fill="#FBC343"/>
</svg>
